<svg width="39" height="27" viewBox="0 0 39 27" fill="none" xmlns="http://www.w3.org/2000/svg">
<path d="M37.5976 4.22459C37.156 2.5617 35.8548 1.25205 34.2027 0.807609C31.2081 0 19.2 0 19.2 0C19.2 0 7.19205 0 4.19738 0.80761C2.54524 1.25213 1.24404 2.5617 0.802406 4.22459C0 7.23867 0 13.5273 0 13.5273C0 13.5273 0 19.8159 0.802406 22.83C1.24404 24.4929 2.54524 25.7479 4.19738 26.1924C7.19205 27 19.2 27 19.2 27C19.2 27 31.208 27 34.2027 26.1924C35.8548 25.7479 37.156 24.4929 37.5976 22.83C38.4 19.8159 38.4 13.5273 38.4 13.5273C38.4 13.5273 38.4 7.23867 37.5976 4.22459ZM15.2727 19.2369V7.8177L25.3091 13.5274L15.2727 19.2369Z" fill="white"/>
</svg>
