<svg width="32" height="32" viewBox="0 0 32 32" fill="none" xmlns="http://www.w3.org/2000/svg">
<path d="M15.7623 7.67637C11.2904 7.67637 7.6834 11.2834 7.6834 15.7553C7.6834 20.2271 11.2904 23.8342 15.7623 23.8342C20.2342 23.8342 23.8412 20.2271 23.8412 15.7553C23.8412 11.2834 20.2342 7.67637 15.7623 7.67637ZM15.7623 21.0076C12.8725 21.0076 10.51 18.6521 10.51 15.7553C10.51 12.8584 12.8654 10.5029 15.7623 10.5029C18.6592 10.5029 21.0147 12.8584 21.0147 15.7553C21.0147 18.6521 18.6521 21.0076 15.7623 21.0076ZM26.0561 7.3459C26.0561 8.39355 25.2123 9.23027 24.1717 9.23027C23.124 9.23027 22.2873 8.38652 22.2873 7.3459C22.2873 6.30527 23.1311 5.46152 24.1717 5.46152C25.2123 5.46152 26.0561 6.30527 26.0561 7.3459ZM31.4068 9.2584C31.2873 6.73418 30.7107 4.49824 28.8615 2.65605C27.0193 0.813867 24.7834 0.237305 22.2592 0.110742C19.6576 -0.0369141 11.86 -0.0369141 9.2584 0.110742C6.74121 0.230273 4.50527 0.806836 2.65605 2.64902C0.806836 4.49121 0.237305 6.72715 0.110742 9.25137C-0.0369141 11.8529 -0.0369141 19.6506 0.110742 22.2521C0.230273 24.7764 0.806836 27.0123 2.65605 28.8545C4.50527 30.6967 6.73418 31.2732 9.2584 31.3998C11.86 31.5475 19.6576 31.5475 22.2592 31.3998C24.7834 31.2803 27.0193 30.7037 28.8615 28.8545C30.7037 27.0123 31.2803 24.7764 31.4068 22.2521C31.5545 19.6506 31.5545 11.86 31.4068 9.2584ZM28.0459 25.0436C27.4975 26.4217 26.4357 27.4834 25.0506 28.0389C22.9764 28.8615 18.0545 28.6717 15.7623 28.6717C13.4701 28.6717 8.54121 28.8545 6.47402 28.0389C5.0959 27.4904 4.03418 26.4287 3.47871 25.0436C2.65605 22.9693 2.8459 18.0475 2.8459 15.7553C2.8459 13.4631 2.66309 8.53418 3.47871 6.46699C4.02715 5.08887 5.08887 4.02715 6.47402 3.47168C8.54824 2.64902 13.4701 2.83887 15.7623 2.83887C18.0545 2.83887 22.9834 2.65605 25.0506 3.47168C26.4287 4.02012 27.4904 5.08184 28.0459 6.46699C28.8686 8.54121 28.6787 13.4631 28.6787 15.7553C28.6787 18.0475 28.8686 22.9764 28.0459 25.0436Z" fill="white"/>
</svg>
