<svg width="380" height="152" viewBox="0 0 380 152" fill="none" xmlns="http://www.w3.org/2000/svg">
<mask id="mask0_21_1430" style="mask-type:alpha" maskUnits="userSpaceOnUse" x="-407" y="19" width="1236" height="149">
<path opacity="0.05" d="M-355.904 30.624L-318.816 126.232C-317.296 130.083 -315.573 132.667 -313.648 133.984C-311.723 135.2 -309.949 135.859 -308.328 135.96V139C-310.355 138.797 -312.837 138.696 -315.776 138.696C-318.715 138.595 -321.653 138.544 -324.592 138.544C-328.544 138.544 -332.243 138.595 -335.688 138.696C-339.133 138.696 -341.92 138.797 -344.048 139V135.96C-338.88 135.757 -335.587 134.896 -334.168 133.376C-332.749 131.755 -333.053 128.36 -335.08 123.192L-363.352 47.648L-360.92 45.672L-387.368 114.376C-388.989 118.429 -389.952 121.875 -390.256 124.712C-390.56 127.448 -390.307 129.627 -389.496 131.248C-388.584 132.869 -387.115 134.035 -385.088 134.744C-382.96 135.453 -380.325 135.859 -377.184 135.96V139C-380.021 138.797 -383.011 138.696 -386.152 138.696C-389.192 138.595 -392.029 138.544 -394.664 138.544C-397.197 138.544 -399.376 138.595 -401.2 138.696C-402.923 138.696 -404.544 138.797 -406.064 139V135.96C-404.037 135.453 -401.96 134.288 -399.832 132.464C-397.704 130.539 -395.779 127.296 -394.056 122.736L-358.336 30.624C-357.931 30.624 -357.525 30.624 -357.12 30.624C-356.715 30.624 -356.309 30.624 -355.904 30.624ZM-337.36 95.224V98.264H-382.656L-381.136 95.224H-337.36ZM-246.178 58.592C-242.327 58.592 -239.135 59.0987 -236.602 60.112C-233.967 61.1253 -231.788 62.544 -230.066 64.368C-228.14 66.3947 -226.772 68.928 -225.962 71.968C-225.151 75.008 -224.746 79.112 -224.746 84.28V124.864C-224.746 129.12 -223.884 132.008 -222.162 133.528C-220.338 135.048 -217.348 135.808 -213.194 135.808V139C-214.916 138.899 -217.551 138.797 -221.098 138.696C-224.644 138.493 -228.09 138.392 -231.434 138.392C-234.778 138.392 -238.071 138.493 -241.314 138.696C-244.455 138.797 -246.836 138.899 -248.458 139V135.808C-244.81 135.808 -242.226 135.048 -240.706 133.528C-239.186 132.008 -238.426 129.12 -238.426 124.864V80.936C-238.426 77.7947 -238.679 74.9067 -239.186 72.272C-239.692 69.6373 -240.858 67.5093 -242.682 65.888C-244.404 64.2667 -247.09 63.456 -250.738 63.456C-254.994 63.456 -258.743 64.672 -261.986 67.104C-265.127 69.536 -267.61 72.88 -269.434 77.136C-271.156 81.2907 -272.018 85.952 -272.018 91.12V124.864C-272.018 129.12 -271.258 132.008 -269.738 133.528C-268.218 135.048 -265.634 135.808 -261.986 135.808V139C-263.607 138.899 -266.039 138.797 -269.282 138.696C-272.423 138.493 -275.666 138.392 -279.01 138.392C-282.354 138.392 -285.799 138.493 -289.346 138.696C-292.892 138.797 -295.527 138.899 -297.25 139V135.808C-293.095 135.808 -290.156 135.048 -288.434 133.528C-286.61 132.008 -285.698 129.12 -285.698 124.864V77.288C-285.698 72.728 -286.508 69.384 -288.13 67.256C-289.751 65.0267 -292.791 63.912 -297.25 63.912V60.72C-294.007 61.024 -290.866 61.176 -287.826 61.176C-284.887 61.176 -282.1 61.024 -279.466 60.72C-276.73 60.3147 -274.247 59.7573 -272.018 59.048V76.984C-269.383 70.0933 -265.735 65.3307 -261.074 62.696C-256.311 59.96 -251.346 58.592 -246.178 58.592ZM-175.091 19.832V124.864C-175.091 129.12 -174.331 132.008 -172.811 133.528C-171.291 135.048 -168.707 135.808 -165.059 135.808V139C-166.68 138.899 -169.112 138.797 -172.355 138.696C-175.496 138.493 -178.688 138.392 -181.931 138.392C-185.376 138.392 -188.872 138.493 -192.419 138.696C-195.965 138.797 -198.6 138.899 -200.323 139V135.808C-196.168 135.808 -193.229 135.048 -191.507 133.528C-189.683 132.008 -188.771 129.12 -188.771 124.864V38.072C-188.771 33.512 -189.581 30.168 -191.203 28.04C-192.824 25.8107 -195.864 24.696 -200.323 24.696V21.504C-197.08 21.808 -193.939 21.96 -190.899 21.96C-187.96 21.96 -185.173 21.808 -182.539 21.504C-179.803 21.0987 -177.32 20.5413 -175.091 19.832ZM-126.755 60.72V63.76C-129.288 63.9627 -131.669 64.672 -133.899 65.888C-136.128 67.0027 -138.306 68.6747 -140.434 70.904L-161.867 93.4L-159.739 89.144L-131.467 127.904C-129.744 130.235 -128.123 132.059 -126.603 133.376C-124.981 134.693 -123.056 135.504 -120.826 135.808V139C-121.941 138.899 -123.715 138.797 -126.147 138.696C-128.477 138.493 -130.808 138.392 -133.139 138.392C-136.28 138.392 -139.472 138.493 -142.715 138.696C-145.957 138.797 -148.389 138.899 -150.011 139V135.808C-147.984 135.808 -146.565 135.301 -145.755 134.288C-144.944 133.275 -145.096 132.059 -146.211 130.64L-163.691 105.104C-165.616 102.368 -167.389 100.595 -169.011 99.784C-170.531 98.9733 -172.76 98.5173 -175.699 98.416V95.376C-172.456 94.9707 -169.821 94.312 -167.795 93.4C-165.768 92.3867 -163.843 90.9173 -162.019 88.992L-150.771 77.288C-147.528 73.944 -145.906 71.3093 -145.906 69.384C-145.906 67.3573 -146.97 65.9387 -149.098 65.128C-151.125 64.216 -153.811 63.76 -157.155 63.76V60.72C-154.52 60.8213 -151.581 60.9733 -148.339 61.176C-144.995 61.2773 -142.208 61.328 -139.978 61.328C-138.256 61.328 -136.584 61.328 -134.963 61.328C-133.341 61.2267 -131.821 61.1253 -130.403 61.024C-128.984 60.9227 -127.768 60.8213 -126.755 60.72ZM-88.5218 19.984V76.832C-85.8871 69.9413 -82.2391 65.1787 -77.5778 62.544C-72.8151 59.9093 -67.8498 58.592 -62.6818 58.592C-58.8311 58.592 -55.6391 59.0987 -53.1058 60.112C-50.4711 61.1253 -48.2924 62.544 -46.5698 64.368C-44.6444 66.3947 -43.2764 68.928 -42.4658 71.968C-41.6551 75.008 -41.2498 79.112 -41.2498 84.28V124.864C-41.2498 129.12 -40.3884 132.008 -38.6658 133.528C-36.8418 135.048 -33.8524 135.808 -29.6978 135.808V139C-31.4204 138.899 -34.0551 138.797 -37.6018 138.696C-41.1484 138.493 -44.5938 138.392 -47.9378 138.392C-51.2818 138.392 -54.5751 138.493 -57.8178 138.696C-60.9591 138.797 -63.3404 138.899 -64.9618 139V135.808C-61.3138 135.808 -58.7298 135.048 -57.2098 133.528C-55.6898 132.008 -54.9298 129.12 -54.9298 124.864V80.936C-54.9298 77.7947 -55.1831 74.9067 -55.6898 72.272C-56.1964 69.6373 -57.3618 67.5093 -59.1858 65.888C-60.9084 64.2667 -63.5938 63.456 -67.2418 63.456C-71.3964 63.456 -75.0951 64.6213 -78.3378 66.952C-81.4791 69.2827 -83.9618 72.5253 -85.7858 76.68C-87.6098 80.8347 -88.5218 85.5973 -88.5218 90.968V124.864C-88.5218 129.12 -87.7618 132.008 -86.2418 133.528C-84.7218 135.048 -82.1378 135.808 -78.4898 135.808V139C-80.1111 138.899 -82.5431 138.797 -85.7858 138.696C-88.9271 138.493 -92.1698 138.392 -95.5138 138.392C-98.8578 138.392 -102.303 138.493 -105.85 138.696C-109.396 138.797 -112.031 138.899 -113.754 139V135.808C-109.599 135.808 -106.66 135.048 -104.938 133.528C-103.114 132.008 -102.202 129.12 -102.202 124.864V38.224C-102.202 33.664 -103.012 30.32 -104.634 28.192C-106.255 25.9627 -109.295 24.848 -113.754 24.848V21.656C-110.511 21.96 -107.37 22.112 -104.33 22.112C-101.391 22.112 -98.6044 21.96 -95.9698 21.656C-93.2338 21.2507 -90.7511 20.6933 -88.5218 19.984ZM67.2652 58.592C73.7505 58.592 79.5772 60.0107 84.7452 62.848C89.9132 65.6853 94.0172 70.144 97.0572 76.224C100.199 82.304 101.769 90.208 101.769 99.936C101.769 109.664 100.199 117.568 97.0572 123.648C94.0172 129.627 89.9132 134.035 84.7452 136.872C79.5772 139.709 73.7505 141.128 67.2652 141.128C60.8812 141.128 55.0545 139.709 49.7852 136.872C44.6172 134.035 40.4625 129.627 37.3212 123.648C34.2812 117.568 32.7612 109.664 32.7612 99.936C32.7612 90.208 34.2812 82.304 37.3212 76.224C40.4625 70.144 44.6172 65.6853 49.7852 62.848C55.0545 60.0107 60.8812 58.592 67.2652 58.592ZM67.2652 61.632C61.4892 61.632 56.7265 64.6213 52.9772 70.6C49.3292 76.5787 47.5052 86.3573 47.5052 99.936C47.5052 113.515 49.3292 123.293 52.9772 129.272C56.7265 135.149 61.4892 138.088 67.2652 138.088C73.0412 138.088 77.7532 135.149 81.4012 129.272C85.1505 123.293 87.0252 113.515 87.0252 99.936C87.0252 86.3573 85.1505 76.5787 81.4012 70.6C77.7532 64.6213 73.0412 61.632 67.2652 61.632ZM158.443 20.136C161.28 20.136 163.763 20.5413 165.891 21.352C168.12 22.0613 170.045 23.024 171.667 24.24C173.187 25.456 174.352 26.8747 175.163 28.496C175.973 30.1173 176.379 31.84 176.379 33.664C176.379 35.9947 175.619 37.92 174.099 39.44C172.579 40.96 170.653 41.72 168.323 41.72C166.093 41.72 164.117 41.0107 162.395 39.592C160.773 38.072 159.963 36.0453 159.963 33.512C159.963 31.384 160.52 29.6613 161.635 28.344C162.851 27.0267 164.421 26.1653 166.347 25.76C166.043 24.848 165.232 24.088 163.915 23.48C162.699 22.7707 161.027 22.416 158.899 22.416C156.568 22.416 154.541 22.9227 152.819 23.936C151.197 24.9493 149.931 26.3173 149.019 28.04C147.803 30.168 147.043 33.36 146.739 37.616C146.435 41.7707 146.283 48.2053 146.283 56.92V60.872H162.547V63.912H146.283V123.344C146.283 128.309 147.701 131.653 150.539 133.376C153.477 134.997 157.429 135.808 162.395 135.808V139C160.064 138.899 156.771 138.797 152.515 138.696C148.259 138.493 143.749 138.392 138.987 138.392C135.541 138.392 132.096 138.493 128.651 138.696C125.307 138.797 122.773 138.899 121.051 139V135.808C125.205 135.808 128.144 135.048 129.867 133.528C131.691 132.008 132.603 129.12 132.603 124.864V63.912H120.443V60.872H132.603C132.603 54.8933 132.856 49.8773 133.363 45.824C133.869 41.7707 134.68 38.3253 135.795 35.488C136.909 32.5493 138.429 29.9653 140.355 27.736C142.381 25.4053 144.965 23.5813 148.107 22.264C151.248 20.8453 154.693 20.136 158.443 20.136ZM302.243 31.384C301.838 34.9307 301.534 38.376 301.331 41.72C301.23 45.064 301.179 47.5973 301.179 49.32C301.179 51.144 301.23 52.9173 301.331 54.64C301.432 56.2613 301.534 57.6293 301.635 58.744H298.139C297.531 52.7653 296.67 48.0533 295.555 44.608C294.44 41.0613 292.515 38.5787 289.779 37.16C287.144 35.64 283.142 34.88 277.771 34.88H265.155C261.71 34.88 259.075 35.184 257.251 35.792C255.528 36.2987 254.363 37.464 253.755 39.288C253.147 41.0107 252.843 43.7467 252.843 47.496V122.888C252.843 126.536 253.147 129.272 253.755 131.096C254.363 132.92 255.528 134.136 257.251 134.744C259.075 135.251 261.71 135.504 265.155 135.504H276.251C282.635 135.504 287.448 134.643 290.691 132.92C294.035 131.197 296.416 128.411 297.835 124.56C299.355 120.608 300.47 115.288 301.179 108.6H304.675C304.371 111.336 304.219 114.984 304.219 119.544C304.219 121.469 304.27 124.256 304.371 127.904C304.574 131.451 304.878 135.149 305.283 139C300.115 138.797 294.288 138.696 287.803 138.696C281.318 138.595 275.542 138.544 270.475 138.544C268.246 138.544 265.358 138.544 261.811 138.544C258.366 138.544 254.616 138.595 250.563 138.696C246.51 138.696 242.406 138.747 238.251 138.848C234.096 138.848 230.144 138.899 226.395 139V135.96C229.84 135.757 232.424 135.352 234.147 134.744C235.971 134.136 237.187 132.92 237.795 131.096C238.403 129.272 238.707 126.536 238.707 122.888V47.496C238.707 43.7467 238.403 41.0107 237.795 39.288C237.187 37.464 235.971 36.248 234.147 35.64C232.424 34.9307 229.84 34.5253 226.395 34.424V31.384C230.144 31.4853 234.096 31.5867 238.251 31.688C242.406 31.688 246.51 31.7387 250.563 31.84C254.616 31.84 258.366 31.84 261.811 31.84C265.358 31.84 268.246 31.84 270.475 31.84C275.136 31.84 280.406 31.84 286.283 31.84C292.262 31.7387 297.582 31.5867 302.243 31.384ZM276.099 83.368C276.099 83.368 276.099 83.8747 276.099 84.888C276.099 85.9013 276.099 86.408 276.099 86.408H248.283C248.283 86.408 248.283 85.9013 248.283 84.888C248.283 83.8747 248.283 83.368 248.283 83.368H276.099ZM280.507 63.304C280.102 69.08 279.899 73.488 279.899 76.528C280 79.568 280.051 82.3547 280.051 84.888C280.051 87.4213 280.102 90.208 280.203 93.248C280.304 96.288 280.558 100.696 280.963 106.472H277.467C277.062 103.229 276.555 100.088 275.947 97.048C275.44 93.9067 274.224 91.3733 272.299 89.448C270.475 87.4213 267.334 86.408 262.875 86.408V83.368C266.219 83.368 268.752 82.7093 270.475 81.392C272.299 79.9733 273.616 78.2 274.427 76.072C275.238 73.944 275.795 71.7653 276.099 69.536C276.403 67.2053 276.707 65.128 277.011 63.304H280.507ZM349.116 35.488V60.872H371.612V63.912H349.116V122.736C349.116 127.499 349.977 130.843 351.7 132.768C353.423 134.693 355.804 135.656 358.844 135.656C361.884 135.656 364.519 134.44 366.748 132.008C368.977 129.475 370.903 125.269 372.524 119.392L375.564 120.152C374.551 126.029 372.524 130.995 369.484 135.048C366.545 139.101 361.985 141.128 355.804 141.128C352.359 141.128 349.521 140.672 347.292 139.76C345.063 138.949 343.087 137.733 341.364 136.112C339.135 133.781 337.564 130.995 336.652 127.752C335.841 124.509 335.436 120.203 335.436 114.832V63.912H320.844V60.872H335.436V37.616C337.969 37.5147 340.401 37.312 342.732 37.008C345.063 36.704 347.191 36.1973 349.116 35.488ZM422.914 58.592C431.832 58.592 438.773 61.328 443.738 66.8C448.805 72.1707 451.338 80.5813 451.338 92.032H397.682L397.53 89.144H436.746C436.949 84.1787 436.544 79.6187 435.53 75.464C434.517 71.208 432.896 67.8133 430.666 65.28C428.538 62.7467 425.752 61.48 422.306 61.48C417.645 61.48 413.49 63.8107 409.842 68.472C406.296 73.1333 404.168 80.5307 403.458 90.664L403.914 91.272C403.712 92.792 403.56 94.464 403.458 96.288C403.357 98.112 403.306 99.936 403.306 101.76C403.306 108.651 404.421 114.579 406.65 119.544C408.88 124.509 411.768 128.309 415.314 130.944C418.962 133.477 422.712 134.744 426.562 134.744C429.602 134.744 432.49 134.288 435.226 133.376C437.962 132.363 440.496 130.741 442.826 128.512C445.157 126.283 447.184 123.293 448.906 119.544L451.946 120.76C450.832 124.104 449.008 127.347 446.474 130.488C443.941 133.629 440.749 136.213 436.898 138.24C433.048 140.165 428.589 141.128 423.522 141.128C416.226 141.128 409.944 139.456 404.674 136.112C399.506 132.768 395.504 128.157 392.666 122.28C389.93 116.301 388.562 109.461 388.562 101.76C388.562 92.8427 389.981 85.192 392.818 78.808C395.656 72.3227 399.658 67.3573 404.826 63.912C409.994 60.3653 416.024 58.592 422.914 58.592ZM517.741 58.592C520.477 58.592 522.858 59.1493 524.885 60.264C527.013 61.3787 528.634 62.848 529.749 64.672C530.965 66.3947 531.573 68.3707 531.573 70.6C531.573 73.1333 530.762 75.3627 529.141 77.288C527.621 79.2133 525.544 80.176 522.909 80.176C520.781 80.176 518.906 79.5173 517.285 78.2C515.664 76.7813 514.853 74.8053 514.853 72.272C514.853 70.3467 515.36 68.7253 516.373 67.408C517.488 65.9893 518.704 64.8747 520.021 64.064C519.312 63.0507 518.248 62.544 516.829 62.544C513.688 62.544 510.8 63.5067 508.165 65.432C505.53 67.256 503.301 69.6373 501.477 72.576C499.653 75.5147 498.234 78.656 497.221 82C496.208 85.2427 495.701 88.2827 495.701 91.12V123.344C495.701 128.309 497.12 131.653 499.957 133.376C502.896 134.997 506.848 135.808 511.813 135.808V139C509.482 138.899 506.189 138.797 501.933 138.696C497.677 138.493 493.168 138.392 488.405 138.392C484.96 138.392 481.514 138.493 478.069 138.696C474.725 138.797 472.192 138.899 470.469 139V135.808C474.624 135.808 477.562 135.048 479.285 133.528C481.109 132.008 482.021 129.12 482.021 124.864V77.288C482.021 72.728 481.21 69.384 479.589 67.256C477.968 65.0267 474.928 63.912 470.469 63.912V60.72C473.712 61.024 476.853 61.176 479.893 61.176C482.832 61.176 485.618 61.024 488.253 60.72C490.989 60.3147 493.472 59.7573 495.701 59.048V78.048C496.816 75.1093 498.386 72.1707 500.413 69.232C502.541 66.192 505.074 63.6587 508.013 61.632C510.952 59.6053 514.194 58.592 517.741 58.592ZM596.828 58.592C600.679 58.592 603.871 59.0987 606.404 60.112C609.039 61.1253 611.218 62.544 612.94 64.368C614.866 66.3947 616.234 68.928 617.044 71.968C617.855 75.008 618.26 79.112 618.26 84.28V124.864C618.26 129.12 619.122 132.008 620.844 133.528C622.668 135.048 625.658 135.808 629.812 135.808V139C628.09 138.899 625.455 138.797 621.908 138.696C618.362 138.493 614.916 138.392 611.572 138.392C608.228 138.392 604.935 138.493 601.692 138.696C598.551 138.797 596.17 138.899 594.548 139V135.808C598.196 135.808 600.78 135.048 602.3 133.528C603.82 132.008 604.58 129.12 604.58 124.864V80.936C604.58 77.7947 604.327 74.9067 603.82 72.272C603.314 69.6373 602.148 67.5093 600.324 65.888C598.602 64.2667 595.916 63.456 592.268 63.456C588.012 63.456 584.263 64.672 581.02 67.104C577.879 69.536 575.396 72.88 573.572 77.136C571.85 81.2907 570.988 85.952 570.988 91.12V124.864C570.988 129.12 571.748 132.008 573.268 133.528C574.788 135.048 577.372 135.808 581.02 135.808V139C579.399 138.899 576.967 138.797 573.724 138.696C570.583 138.493 567.34 138.392 563.996 138.392C560.652 138.392 557.207 138.493 553.66 138.696C550.114 138.797 547.479 138.899 545.756 139V135.808C549.911 135.808 552.85 135.048 554.572 133.528C556.396 132.008 557.308 129.12 557.308 124.864V77.288C557.308 72.728 556.498 69.384 554.876 67.256C553.255 65.0267 550.215 63.912 545.756 63.912V60.72C548.999 61.024 552.14 61.176 555.18 61.176C558.119 61.176 560.906 61.024 563.54 60.72C566.276 60.3147 568.759 59.7573 570.988 59.048V76.984C573.623 70.0933 577.271 65.3307 581.932 62.696C586.695 59.96 591.66 58.592 596.828 58.592ZM661.38 22.72C664.014 22.72 666.294 23.6827 668.22 25.608C670.145 27.5333 671.108 29.8133 671.108 32.448C671.108 35.0827 670.145 37.3627 668.22 39.288C666.294 41.2133 664.014 42.176 661.38 42.176C658.745 42.176 656.465 41.2133 654.54 39.288C652.614 37.3627 651.652 35.0827 651.652 32.448C651.652 29.8133 652.614 27.5333 654.54 25.608C656.465 23.6827 658.745 22.72 661.38 22.72ZM669.284 59.048V124.864C669.284 129.12 670.145 132.008 671.868 133.528C673.692 135.048 676.681 135.808 680.836 135.808V139C679.113 138.899 676.478 138.797 672.932 138.696C669.486 138.493 665.99 138.392 662.444 138.392C658.998 138.392 655.502 138.493 651.956 138.696C648.409 138.797 645.774 138.899 644.052 139V135.808C648.206 135.808 651.145 135.048 652.868 133.528C654.692 132.008 655.604 129.12 655.604 124.864V77.288C655.604 72.728 654.793 69.384 653.172 67.256C651.55 65.0267 648.51 63.912 644.052 63.912V60.72C647.294 61.024 650.436 61.176 653.476 61.176C656.414 61.176 659.201 61.024 661.836 60.72C664.572 60.3147 667.054 59.7573 669.284 59.048ZM720.655 35.488V60.872H743.151V63.912H720.655V122.736C720.655 127.499 721.516 130.843 723.239 132.768C724.962 134.693 727.343 135.656 730.383 135.656C733.423 135.656 736.058 134.44 738.287 132.008C740.516 129.475 742.442 125.269 744.063 119.392L747.103 120.152C746.09 126.029 744.063 130.995 741.023 135.048C738.084 139.101 733.524 141.128 727.343 141.128C723.898 141.128 721.06 140.672 718.831 139.76C716.602 138.949 714.626 137.733 712.903 136.112C710.674 133.781 709.103 130.995 708.191 127.752C707.38 124.509 706.975 120.203 706.975 114.832V63.912H692.383V60.872H706.975V37.616C709.508 37.5147 711.94 37.312 714.271 37.008C716.602 36.704 718.73 36.1973 720.655 35.488ZM828.197 60.72V63.76C826.272 63.9627 824.499 64.824 822.877 66.344C821.256 67.864 819.736 70.5493 818.317 74.4L793.389 139.76H790.805L762.837 72.424C760.912 68.472 758.987 66.0907 757.061 65.28C755.237 64.368 753.717 63.912 752.501 63.912V60.72C754.731 61.024 757.061 61.2773 759.493 61.48C761.925 61.5813 764.56 61.632 767.397 61.632C770.539 61.632 773.832 61.5307 777.277 61.328C780.824 61.1253 784.117 60.9227 787.157 60.72V63.912C784.624 63.912 782.344 64.1147 780.317 64.52C778.392 64.824 777.176 65.888 776.669 67.712C776.163 69.4347 776.771 72.424 778.493 76.68L797.189 123.04L796.277 123.344L813.605 78.048C814.923 74.704 815.429 72.0693 815.125 70.144C814.923 68.1173 813.909 66.5973 812.085 65.584C810.261 64.5707 807.525 63.9627 803.877 63.76V60.72C805.701 60.8213 807.272 60.9227 808.589 61.024C809.907 61.024 811.173 61.0747 812.389 61.176C813.707 61.176 815.125 61.176 816.645 61.176C818.976 61.176 821.053 61.1253 822.877 61.024C824.803 60.9227 826.576 60.8213 828.197 60.72ZM793.389 139.76L788.221 152.984C787.208 155.517 786.144 157.645 785.029 159.368C784.016 161.091 782.901 162.509 781.685 163.624C780.064 165.144 778.139 166.157 775.909 166.664C773.68 167.272 771.653 167.576 769.829 167.576C767.904 167.576 766.131 167.221 764.509 166.512C762.989 165.803 761.773 164.739 760.861 163.32C759.949 162.003 759.493 160.381 759.493 158.456C759.493 156.024 760.203 154.048 761.621 152.528C763.04 151.109 765.016 150.4 767.549 150.4C769.677 150.4 771.501 151.008 773.021 152.224C774.541 153.44 775.301 155.213 775.301 157.544C775.301 159.267 774.896 160.685 774.085 161.8C773.275 162.915 772.312 163.776 771.197 164.384C771.4 164.485 771.552 164.536 771.653 164.536C771.856 164.536 772.008 164.536 772.109 164.536C774.845 164.536 777.277 163.573 779.405 161.648C781.533 159.824 783.408 156.835 785.029 152.68L790.501 138.544L793.389 139.76Z" fill="#6E3F08"/>
</mask>
<g mask="url(#mask0_21_1430)">
<rect y="-8" width="382" height="154" fill="url(#paint0_linear_21_1430)"/>
</g>
<defs>
<linearGradient id="paint0_linear_21_1430" x1="191" y1="98.2727" x2="191" y2="146" gradientUnits="userSpaceOnUse">
<stop/>
<stop offset="1" stop-opacity="0"/>
</linearGradient>
</defs>
</svg>
