<svg width="1950" height="240" viewBox="0 0 1950 240" fill="none" xmlns="http://www.w3.org/2000/svg">
<mask id="mask0_7063_714" style="mask-type:alpha" maskUnits="userSpaceOnUse" x="-2" y="31" width="1950" height="235">
<path opacity="0.05" d="M77.52 48.88L136.08 199.84C138.48 205.92 141.2 210 144.24 212.08C147.28 214 150.08 215.04 152.64 215.2V220C149.44 219.68 145.52 219.52 140.88 219.52C136.24 219.36 131.6 219.28 126.96 219.28C120.72 219.28 114.88 219.36 109.44 219.52C104 219.52 99.6 219.68 96.24 220V215.2C104.4 214.88 109.6 213.52 111.84 211.12C114.08 208.56 113.6 203.2 110.4 195.04L65.76 75.76L69.6 72.64L27.84 181.12C25.28 187.52 23.76 192.96 23.28 197.44C22.8 201.76 23.2 205.2 24.48 207.76C25.92 210.32 28.24 212.16 31.44 213.28C34.8 214.4 38.96 215.04 43.92 215.2V220C39.44 219.68 34.72 219.52 29.76 219.52C24.96 219.36 20.48 219.28 16.32 219.28C12.32 219.28 8.88 219.36 6 219.52C3.28 219.52 0.72 219.68 -1.68 220V215.2C1.52 214.4 4.8 212.56 8.16 209.68C11.52 206.64 14.56 201.52 17.28 194.32L73.68 48.88C74.32 48.88 74.96 48.88 75.6 48.88C76.24 48.88 76.88 48.88 77.52 48.88ZM106.8 150.88V155.68H35.28L37.68 150.88H106.8ZM250.772 93.04C256.852 93.04 261.892 93.84 265.892 95.44C270.052 97.04 273.492 99.28 276.212 102.16C279.252 105.36 281.412 109.36 282.692 114.16C283.972 118.96 284.612 125.44 284.612 133.6V197.68C284.612 204.4 285.972 208.96 288.692 211.36C291.572 213.76 296.292 214.96 302.852 214.96V220C300.132 219.84 295.972 219.68 290.372 219.52C284.772 219.2 279.332 219.04 274.052 219.04C268.772 219.04 263.572 219.2 258.452 219.52C253.492 219.68 249.732 219.84 247.172 220V214.96C252.932 214.96 257.012 213.76 259.412 211.36C261.812 208.96 263.012 204.4 263.012 197.68V128.32C263.012 123.36 262.612 118.8 261.812 114.64C261.012 110.48 259.172 107.12 256.292 104.56C253.572 102 249.332 100.72 243.572 100.72C236.852 100.72 230.932 102.64 225.812 106.48C220.852 110.32 216.932 115.6 214.052 122.32C211.332 128.88 209.972 136.24 209.972 144.4V197.68C209.972 204.4 211.172 208.96 213.572 211.36C215.972 213.76 220.052 214.96 225.812 214.96V220C223.252 219.84 219.412 219.68 214.292 219.52C209.332 219.2 204.212 219.04 198.932 219.04C193.652 219.04 188.212 219.2 182.612 219.52C177.012 219.68 172.852 219.84 170.132 220V214.96C176.692 214.96 181.332 213.76 184.052 211.36C186.932 208.96 188.372 204.4 188.372 197.68V122.56C188.372 115.36 187.092 110.08 184.532 106.72C181.972 103.2 177.172 101.44 170.132 101.44V96.4C175.252 96.88 180.212 97.12 185.012 97.12C189.652 97.12 194.052 96.88 198.212 96.4C202.532 95.76 206.452 94.88 209.972 93.76V122.08C214.132 111.2 219.892 103.68 227.252 99.52C234.772 95.2 242.612 93.04 250.772 93.04ZM363.015 31.84V197.68C363.015 204.4 364.215 208.96 366.615 211.36C369.015 213.76 373.095 214.96 378.855 214.96V220C376.295 219.84 372.455 219.68 367.335 219.52C362.375 219.2 357.335 219.04 352.215 219.04C346.775 219.04 341.255 219.2 335.655 219.52C330.055 219.68 325.895 219.84 323.175 220V214.96C329.735 214.96 334.375 213.76 337.095 211.36C339.975 208.96 341.415 204.4 341.415 197.68V60.64C341.415 53.44 340.135 48.16 337.575 44.8C335.015 41.28 330.215 39.52 323.175 39.52V34.48C328.295 34.96 333.255 35.2 338.055 35.2C342.695 35.2 347.095 34.96 351.255 34.48C355.575 33.84 359.495 32.96 363.015 31.84ZM439.335 96.4V101.2C435.335 101.52 431.575 102.64 428.055 104.56C424.535 106.32 421.095 108.96 417.735 112.48L383.895 148L387.255 141.28L431.895 202.48C434.615 206.16 437.175 209.04 439.575 211.12C442.135 213.2 445.175 214.48 448.695 214.96V220C446.935 219.84 444.135 219.68 440.295 219.52C436.615 219.2 432.935 219.04 429.255 219.04C424.295 219.04 419.255 219.2 414.135 219.52C409.015 219.68 405.175 219.84 402.615 220V214.96C405.815 214.96 408.055 214.16 409.335 212.56C410.615 210.96 410.375 209.04 408.615 206.8L381.015 166.48C377.975 162.16 375.175 159.36 372.615 158.08C370.215 156.8 366.695 156.08 362.055 155.92V151.12C367.175 150.48 371.335 149.44 374.535 148C377.735 146.4 380.775 144.08 383.655 141.04L401.415 122.56C406.535 117.28 409.095 113.12 409.095 110.08C409.095 106.88 407.415 104.64 404.055 103.36C400.855 101.92 396.615 101.2 391.335 101.2V96.4C395.495 96.56 400.135 96.8 405.255 97.12C410.535 97.28 414.935 97.36 418.455 97.36C421.175 97.36 423.815 97.36 426.375 97.36C428.935 97.2 431.335 97.04 433.575 96.88C435.815 96.72 437.735 96.56 439.335 96.4ZM499.703 32.08V121.84C503.863 110.96 509.623 103.44 516.983 99.28C524.503 95.12 532.343 93.04 540.503 93.04C546.583 93.04 551.623 93.84 555.623 95.44C559.783 97.04 563.223 99.28 565.943 102.16C568.983 105.36 571.143 109.36 572.423 114.16C573.703 118.96 574.343 125.44 574.343 133.6V197.68C574.343 204.4 575.703 208.96 578.422 211.36C581.303 213.76 586.023 214.96 592.583 214.96V220C589.863 219.84 585.703 219.68 580.103 219.52C574.503 219.2 569.063 219.04 563.783 219.04C558.503 219.04 553.303 219.2 548.183 219.52C543.223 219.68 539.463 219.84 536.903 220V214.96C542.663 214.96 546.743 213.76 549.143 211.36C551.543 208.96 552.743 204.4 552.743 197.68V128.32C552.743 123.36 552.343 118.8 551.543 114.64C550.743 110.48 548.903 107.12 546.023 104.56C543.303 102 539.063 100.72 533.303 100.72C526.743 100.72 520.903 102.56 515.783 106.24C510.823 109.92 506.903 115.04 504.023 121.6C501.143 128.16 499.703 135.68 499.703 144.16V197.68C499.703 204.4 500.903 208.96 503.303 211.36C505.703 213.76 509.783 214.96 515.543 214.96V220C512.983 219.84 509.143 219.68 504.023 219.52C499.063 219.2 493.943 219.04 488.663 219.04C483.383 219.04 477.943 219.2 472.343 219.52C466.743 219.68 462.583 219.84 459.863 220V214.96C466.423 214.96 471.063 213.76 473.783 211.36C476.663 208.96 478.103 204.4 478.103 197.68V60.88C478.103 53.68 476.823 48.4 474.263 45.04C471.703 41.52 466.903 39.76 459.863 39.76V34.72C464.983 35.2 469.943 35.44 474.743 35.44C479.383 35.44 483.783 35.2 487.943 34.72C492.263 34.08 496.183 33.2 499.703 32.08ZM745.682 93.04C755.922 93.04 765.122 95.28 773.282 99.76C781.442 104.24 787.922 111.28 792.722 120.88C797.682 130.48 800.162 142.96 800.162 158.32C800.162 173.68 797.682 186.16 792.722 195.76C787.922 205.2 781.442 212.16 773.282 216.64C765.122 221.12 755.922 223.36 745.682 223.36C735.602 223.36 726.402 221.12 718.082 216.64C709.922 212.16 703.362 205.2 698.402 195.76C693.602 186.16 691.202 173.68 691.202 158.32C691.202 142.96 693.602 130.48 698.402 120.88C703.362 111.28 709.922 104.24 718.082 99.76C726.402 95.28 735.602 93.04 745.682 93.04ZM745.682 97.84C736.562 97.84 729.042 102.56 723.122 112C717.362 121.44 714.482 136.88 714.482 158.32C714.482 179.76 717.362 195.2 723.122 204.64C729.042 213.92 736.562 218.56 745.682 218.56C754.802 218.56 762.242 213.92 768.002 204.64C773.922 195.2 776.882 179.76 776.882 158.32C776.882 136.88 773.922 121.44 768.002 112C762.242 102.56 754.802 97.84 745.682 97.84ZM889.646 32.32C894.126 32.32 898.046 32.96 901.406 34.24C904.926 35.36 907.966 36.88 910.526 38.8C912.926 40.72 914.766 42.96 916.046 45.52C917.326 48.08 917.966 50.8 917.966 53.68C917.966 57.36 916.766 60.4 914.366 62.8C911.966 65.2 908.926 66.4 905.246 66.4C901.726 66.4 898.606 65.28 895.886 63.04C893.326 60.64 892.046 57.44 892.046 53.44C892.046 50.08 892.926 47.36 894.686 45.28C896.606 43.2 899.086 41.84 902.126 41.2C901.646 39.76 900.366 38.56 898.286 37.6C896.366 36.48 893.726 35.92 890.366 35.92C886.686 35.92 883.486 36.72 880.766 38.32C878.206 39.92 876.206 42.08 874.766 44.8C872.846 48.16 871.646 53.2 871.166 59.92C870.686 66.48 870.446 76.64 870.446 90.4V96.64H896.126V101.44H870.446V195.28C870.446 203.12 872.686 208.4 877.166 211.12C881.806 213.68 888.046 214.96 895.886 214.96V220C892.206 219.84 887.006 219.68 880.286 219.52C873.566 219.2 866.446 219.04 858.926 219.04C853.486 219.04 848.046 219.2 842.606 219.52C837.326 219.68 833.326 219.84 830.606 220V214.96C837.166 214.96 841.806 213.76 844.526 211.36C847.406 208.96 848.846 204.4 848.846 197.68V101.44H829.646V96.64H848.846C848.846 87.2 849.246 79.28 850.046 72.88C850.846 66.48 852.126 61.04 853.886 56.56C855.646 51.92 858.046 47.84 861.086 44.32C864.286 40.64 868.366 37.76 873.326 35.68C878.286 33.44 883.726 32.32 889.646 32.32ZM1116.7 50.08C1116.06 55.68 1115.58 61.12 1115.26 66.4C1115.1 71.68 1115.02 75.68 1115.02 78.4C1115.02 81.28 1115.1 84.08 1115.26 86.8C1115.42 89.36 1115.58 91.52 1115.74 93.28H1110.22C1109.26 83.84 1107.9 76.4 1106.14 70.96C1104.38 65.36 1101.34 61.44 1097.02 59.2C1092.86 56.8 1086.54 55.6 1078.06 55.6H1058.14C1052.7 55.6 1048.54 56.08 1045.66 57.04C1042.94 57.84 1041.1 59.68 1040.14 62.56C1039.18 65.28 1038.7 69.6 1038.7 75.52V194.56C1038.7 200.32 1039.18 204.64 1040.14 207.52C1041.1 210.4 1042.94 212.32 1045.66 213.28C1048.54 214.08 1052.7 214.48 1058.14 214.48H1075.66C1085.74 214.48 1093.34 213.12 1098.46 210.4C1103.74 207.68 1107.5 203.28 1109.74 197.2C1112.14 190.96 1113.9 182.56 1115.02 172H1120.54C1120.06 176.32 1119.82 182.08 1119.82 189.28C1119.82 192.32 1119.9 196.72 1120.06 202.48C1120.38 208.08 1120.86 213.92 1121.5 220C1113.34 219.68 1104.14 219.52 1093.9 219.52C1083.66 219.36 1074.54 219.28 1066.54 219.28C1063.02 219.28 1058.46 219.28 1052.86 219.28C1047.42 219.28 1041.5 219.36 1035.1 219.52C1028.7 219.52 1022.22 219.6 1015.66 219.76C1009.1 219.76 1002.86 219.84 996.939 220V215.2C1002.38 214.88 1006.46 214.24 1009.18 213.28C1012.06 212.32 1013.98 210.4 1014.94 207.52C1015.9 204.64 1016.38 200.32 1016.38 194.56V75.52C1016.38 69.6 1015.9 65.28 1014.94 62.56C1013.98 59.68 1012.06 57.76 1009.18 56.8C1006.46 55.68 1002.38 55.04 996.939 54.88V50.08C1002.86 50.24 1009.1 50.4 1015.66 50.56C1022.22 50.56 1028.7 50.64 1035.1 50.8C1041.5 50.8 1047.42 50.8 1052.86 50.8C1058.46 50.8 1063.02 50.8 1066.54 50.8C1073.9 50.8 1082.22 50.8 1091.5 50.8C1100.94 50.64 1109.34 50.4 1116.7 50.08ZM1075.42 132.16C1075.42 132.16 1075.42 132.96 1075.42 134.56C1075.42 136.16 1075.42 136.96 1075.42 136.96H1031.5C1031.5 136.96 1031.5 136.16 1031.5 134.56C1031.5 132.96 1031.5 132.16 1031.5 132.16H1075.42ZM1082.38 100.48C1081.74 109.6 1081.42 116.56 1081.42 121.36C1081.58 126.16 1081.66 130.56 1081.66 134.56C1081.66 138.56 1081.74 142.96 1081.9 147.76C1082.06 152.56 1082.46 159.52 1083.1 168.64H1077.58C1076.94 163.52 1076.14 158.56 1075.18 153.76C1074.38 148.8 1072.46 144.8 1069.42 141.76C1066.54 138.56 1061.58 136.96 1054.54 136.96V132.16C1059.82 132.16 1063.82 131.12 1066.54 129.04C1069.42 126.8 1071.5 124 1072.78 120.64C1074.06 117.28 1074.94 113.84 1075.42 110.32C1075.9 106.64 1076.38 103.36 1076.86 100.48H1082.38ZM1190.71 56.56V96.64H1226.23V101.44H1190.71V194.32C1190.71 201.84 1192.07 207.12 1194.79 210.16C1197.51 213.2 1201.27 214.72 1206.07 214.72C1210.87 214.72 1215.03 212.8 1218.55 208.96C1222.07 204.96 1225.11 198.32 1227.67 189.04L1232.47 190.24C1230.87 199.52 1227.67 207.36 1222.87 213.76C1218.23 220.16 1211.03 223.36 1201.27 223.36C1195.83 223.36 1191.35 222.64 1187.83 221.2C1184.31 219.92 1181.19 218 1178.47 215.44C1174.95 211.76 1172.47 207.36 1171.03 202.24C1169.75 197.12 1169.11 190.32 1169.11 181.84V101.44H1146.07V96.64H1169.11V59.92C1173.11 59.76 1176.95 59.44 1180.63 58.96C1184.31 58.48 1187.67 57.68 1190.71 56.56ZM1307.23 93.04C1321.31 93.04 1332.27 97.36 1340.11 106C1348.11 114.48 1352.11 127.76 1352.11 145.84H1267.39L1267.15 141.28H1329.07C1329.39 133.44 1328.75 126.24 1327.15 119.68C1325.55 112.96 1322.99 107.6 1319.47 103.6C1316.11 99.6 1311.71 97.6 1306.27 97.6C1298.91 97.6 1292.35 101.28 1286.59 108.64C1280.99 116 1277.63 127.68 1276.51 143.68L1277.23 144.64C1276.91 147.04 1276.67 149.68 1276.51 152.56C1276.35 155.44 1276.27 158.32 1276.27 161.2C1276.27 172.08 1278.03 181.44 1281.55 189.28C1285.07 197.12 1289.63 203.12 1295.23 207.28C1300.99 211.28 1306.91 213.28 1312.99 213.28C1317.79 213.28 1322.35 212.56 1326.67 211.12C1330.99 209.52 1334.99 206.96 1338.67 203.44C1342.35 199.92 1345.55 195.2 1348.27 189.28L1353.07 191.2C1351.31 196.48 1348.43 201.6 1344.43 206.56C1340.43 211.52 1335.39 215.6 1329.31 218.8C1323.23 221.84 1316.19 223.36 1308.19 223.36C1296.67 223.36 1286.75 220.72 1278.43 215.44C1270.27 210.16 1263.95 202.88 1259.47 193.6C1255.15 184.16 1252.99 173.36 1252.99 161.2C1252.99 147.12 1255.23 135.04 1259.71 124.96C1264.19 114.72 1270.51 106.88 1278.67 101.44C1286.83 95.84 1296.35 93.04 1307.23 93.04ZM1456.96 93.04C1461.28 93.04 1465.04 93.92 1468.24 95.68C1471.6 97.44 1474.16 99.76 1475.92 102.64C1477.84 105.36 1478.8 108.48 1478.8 112C1478.8 116 1477.52 119.52 1474.96 122.56C1472.56 125.6 1469.28 127.12 1465.12 127.12C1461.76 127.12 1458.8 126.08 1456.24 124C1453.68 121.76 1452.4 118.64 1452.4 114.64C1452.4 111.6 1453.2 109.04 1454.8 106.96C1456.56 104.72 1458.48 102.96 1460.56 101.68C1459.44 100.08 1457.76 99.28 1455.52 99.28C1450.56 99.28 1446 100.8 1441.84 103.84C1437.68 106.72 1434.16 110.48 1431.28 115.12C1428.4 119.76 1426.16 124.72 1424.56 130C1422.96 135.12 1422.16 139.92 1422.16 144.4V195.28C1422.16 203.12 1424.4 208.4 1428.88 211.12C1433.52 213.68 1439.76 214.96 1447.6 214.96V220C1443.92 219.84 1438.72 219.68 1432 219.52C1425.28 219.2 1418.16 219.04 1410.64 219.04C1405.2 219.04 1399.76 219.2 1394.32 219.52C1389.04 219.68 1385.04 219.84 1382.32 220V214.96C1388.88 214.96 1393.52 213.76 1396.24 211.36C1399.12 208.96 1400.56 204.4 1400.56 197.68V122.56C1400.56 115.36 1399.28 110.08 1396.72 106.72C1394.16 103.2 1389.36 101.44 1382.32 101.44V96.4C1387.44 96.88 1392.4 97.12 1397.2 97.12C1401.84 97.12 1406.24 96.88 1410.4 96.4C1414.72 95.76 1418.64 94.88 1422.16 93.76V123.76C1423.92 119.12 1426.4 114.48 1429.6 109.84C1432.96 105.04 1436.96 101.04 1441.6 97.84C1446.24 94.64 1451.36 93.04 1456.96 93.04ZM1581.83 93.04C1587.91 93.04 1592.95 93.84 1596.95 95.44C1601.11 97.04 1604.55 99.28 1607.27 102.16C1610.31 105.36 1612.47 109.36 1613.75 114.16C1615.03 118.96 1615.67 125.44 1615.67 133.6V197.68C1615.67 204.4 1617.03 208.96 1619.75 211.36C1622.63 213.76 1627.35 214.96 1633.91 214.96V220C1631.19 219.84 1627.03 219.68 1621.43 219.52C1615.83 219.2 1610.39 219.04 1605.11 219.04C1599.83 219.04 1594.63 219.2 1589.51 219.52C1584.55 219.68 1580.79 219.84 1578.23 220V214.96C1583.99 214.96 1588.07 213.76 1590.47 211.36C1592.87 208.96 1594.07 204.4 1594.07 197.68V128.32C1594.07 123.36 1593.67 118.8 1592.87 114.64C1592.07 110.48 1590.23 107.12 1587.35 104.56C1584.63 102 1580.39 100.72 1574.63 100.72C1567.91 100.72 1561.99 102.64 1556.87 106.48C1551.91 110.32 1547.99 115.6 1545.11 122.32C1542.39 128.88 1541.03 136.24 1541.03 144.4V197.68C1541.03 204.4 1542.23 208.96 1544.63 211.36C1547.03 213.76 1551.11 214.96 1556.87 214.96V220C1554.31 219.84 1550.47 219.68 1545.35 219.52C1540.39 219.2 1535.27 219.04 1529.99 219.04C1524.71 219.04 1519.27 219.2 1513.67 219.52C1508.07 219.68 1503.91 219.84 1501.19 220V214.96C1507.75 214.96 1512.39 213.76 1515.11 211.36C1517.99 208.96 1519.43 204.4 1519.43 197.68V122.56C1519.43 115.36 1518.15 110.08 1515.59 106.72C1513.03 103.2 1508.23 101.44 1501.19 101.44V96.4C1506.31 96.88 1511.27 97.12 1516.07 97.12C1520.71 97.12 1525.11 96.88 1529.27 96.4C1533.59 95.76 1537.51 94.88 1541.03 93.76V122.08C1545.19 111.2 1550.95 103.68 1558.31 99.52C1565.83 95.2 1573.67 93.04 1581.83 93.04ZM1683.76 36.4C1687.92 36.4 1691.52 37.92 1694.56 40.96C1697.6 44 1699.12 47.6 1699.12 51.76C1699.12 55.92 1697.6 59.52 1694.56 62.56C1691.52 65.6 1687.92 67.12 1683.76 67.12C1679.6 67.12 1676 65.6 1672.96 62.56C1669.92 59.52 1668.4 55.92 1668.4 51.76C1668.4 47.6 1669.92 44 1672.96 40.96C1676 37.92 1679.6 36.4 1683.76 36.4ZM1696.24 93.76V197.68C1696.24 204.4 1697.6 208.96 1700.32 211.36C1703.2 213.76 1707.92 214.96 1714.48 214.96V220C1711.76 219.84 1707.6 219.68 1702 219.52C1696.56 219.2 1691.04 219.04 1685.44 219.04C1680 219.04 1674.48 219.2 1668.88 219.52C1663.28 219.68 1659.12 219.84 1656.4 220V214.96C1662.96 214.96 1667.6 213.76 1670.32 211.36C1673.2 208.96 1674.64 204.4 1674.64 197.68V122.56C1674.64 115.36 1673.36 110.08 1670.8 106.72C1668.24 103.2 1663.44 101.44 1656.4 101.44V96.4C1661.52 96.88 1666.48 97.12 1671.28 97.12C1675.92 97.12 1680.32 96.88 1684.48 96.4C1688.8 95.76 1692.72 94.88 1696.24 93.76ZM1777.35 56.56V96.64H1812.87V101.44H1777.35V194.32C1777.35 201.84 1778.71 207.12 1781.43 210.16C1784.15 213.2 1787.91 214.72 1792.71 214.72C1797.51 214.72 1801.67 212.8 1805.19 208.96C1808.71 204.96 1811.75 198.32 1814.31 189.04L1819.11 190.24C1817.51 199.52 1814.31 207.36 1809.51 213.76C1804.87 220.16 1797.67 223.36 1787.91 223.36C1782.47 223.36 1777.99 222.64 1774.47 221.2C1770.95 219.92 1767.83 218 1765.11 215.44C1761.59 211.76 1759.11 207.36 1757.67 202.24C1756.39 197.12 1755.75 190.32 1755.75 181.84V101.44H1732.71V96.64H1755.75V59.92C1759.75 59.76 1763.59 59.44 1767.27 58.96C1770.95 58.48 1774.31 57.68 1777.35 56.56ZM1947.15 96.4V101.2C1944.11 101.52 1941.31 102.88 1938.75 105.28C1936.19 107.68 1933.79 111.92 1931.55 118L1892.19 221.2H1888.11L1843.95 114.88C1840.91 108.64 1837.87 104.88 1834.83 103.6C1831.95 102.16 1829.55 101.44 1827.63 101.44V96.4C1831.15 96.88 1834.83 97.28 1838.67 97.6C1842.51 97.76 1846.67 97.84 1851.15 97.84C1856.11 97.84 1861.31 97.68 1866.75 97.36C1872.35 97.04 1877.55 96.72 1882.35 96.4V101.44C1878.35 101.44 1874.75 101.76 1871.55 102.4C1868.51 102.88 1866.59 104.56 1865.79 107.44C1864.99 110.16 1865.95 114.88 1868.67 121.6L1898.19 194.8L1896.75 195.28L1924.11 123.76C1926.19 118.48 1926.99 114.32 1926.51 111.28C1926.19 108.08 1924.59 105.68 1921.71 104.08C1918.83 102.48 1914.51 101.52 1908.75 101.2V96.4C1911.63 96.56 1914.11 96.72 1916.19 96.88C1918.27 96.88 1920.27 96.96 1922.19 97.12C1924.27 97.12 1926.51 97.12 1928.91 97.12C1932.59 97.12 1935.87 97.04 1938.75 96.88C1941.79 96.72 1944.59 96.56 1947.15 96.4ZM1892.19 221.2L1884.03 242.08C1882.43 246.08 1880.75 249.44 1878.99 252.16C1877.39 254.88 1875.63 257.12 1873.71 258.88C1871.15 261.28 1868.11 262.88 1864.59 263.68C1861.07 264.64 1857.87 265.12 1854.99 265.12C1851.95 265.12 1849.15 264.56 1846.59 263.44C1844.19 262.32 1842.27 260.64 1840.83 258.4C1839.39 256.32 1838.67 253.76 1838.67 250.72C1838.67 246.88 1839.79 243.76 1842.03 241.36C1844.27 239.12 1847.39 238 1851.39 238C1854.75 238 1857.63 238.96 1860.03 240.88C1862.43 242.8 1863.63 245.6 1863.63 249.28C1863.63 252 1862.99 254.24 1861.71 256C1860.43 257.76 1858.91 259.12 1857.15 260.08C1857.47 260.24 1857.71 260.32 1857.87 260.32C1858.19 260.32 1858.43 260.32 1858.59 260.32C1862.91 260.32 1866.75 258.8 1870.11 255.76C1873.47 252.88 1876.43 248.16 1878.99 241.6L1887.63 219.28L1892.19 221.2Z" fill="#6E3F08"/>
</mask>
<g mask="url(#mask0_7063_714)">
<rect y="-14" width="1888" height="248" fill="url(#paint0_linear_7063_714)"/>
</g>
<defs>
<linearGradient id="paint0_linear_7063_714" x1="944" y1="157.14" x2="944" y2="234" gradientUnits="userSpaceOnUse">
<stop/>
<stop offset="1" stop-opacity="0"/>
</linearGradient>
</defs>
</svg>
