<svg width="1440" height="240" viewBox="0 0 1440 240" fill="none" xmlns="http://www.w3.org/2000/svg">
<mask id="mask0_16_4125" style="mask-type:alpha" maskUnits="userSpaceOnUse" x="-407" y="31" width="1950" height="235">
<path opacity="0.05" d="M-327.48 48.88L-268.92 199.84C-266.52 205.92 -263.8 210 -260.76 212.08C-257.72 214 -254.92 215.04 -252.36 215.2V220C-255.56 219.68 -259.48 219.52 -264.12 219.52C-268.76 219.36 -273.4 219.28 -278.04 219.28C-284.28 219.28 -290.12 219.36 -295.56 219.52C-301 219.52 -305.4 219.68 -308.76 220V215.2C-300.6 214.88 -295.4 213.52 -293.16 211.12C-290.92 208.56 -291.4 203.2 -294.6 195.04L-339.24 75.76L-335.4 72.64L-377.16 181.12C-379.72 187.52 -381.24 192.96 -381.72 197.44C-382.2 201.76 -381.8 205.2 -380.52 207.76C-379.08 210.32 -376.76 212.16 -373.56 213.28C-370.2 214.4 -366.04 215.04 -361.08 215.2V220C-365.56 219.68 -370.28 219.52 -375.24 219.52C-380.04 219.36 -384.52 219.28 -388.68 219.28C-392.68 219.28 -396.12 219.36 -399 219.52C-401.72 219.52 -404.28 219.68 -406.68 220V215.2C-403.48 214.4 -400.2 212.56 -396.84 209.68C-393.48 206.64 -390.44 201.52 -387.72 194.32L-331.32 48.88C-330.68 48.88 -330.04 48.88 -329.4 48.88C-328.76 48.88 -328.12 48.88 -327.48 48.88ZM-298.2 150.88V155.68H-369.72L-367.32 150.88H-298.2ZM-154.228 93.04C-148.148 93.04 -143.108 93.84 -139.108 95.44C-134.948 97.04 -131.508 99.28 -128.788 102.16C-125.748 105.36 -123.588 109.36 -122.308 114.16C-121.028 118.96 -120.388 125.44 -120.388 133.6V197.68C-120.388 204.4 -119.028 208.96 -116.308 211.36C-113.428 213.76 -108.708 214.96 -102.148 214.96V220C-104.868 219.84 -109.028 219.68 -114.628 219.52C-120.228 219.2 -125.668 219.04 -130.948 219.04C-136.228 219.04 -141.428 219.2 -146.548 219.52C-151.508 219.68 -155.268 219.84 -157.828 220V214.96C-152.068 214.96 -147.988 213.76 -145.588 211.36C-143.188 208.96 -141.988 204.4 -141.988 197.68V128.32C-141.988 123.36 -142.388 118.8 -143.188 114.64C-143.988 110.48 -145.828 107.12 -148.708 104.56C-151.428 102 -155.668 100.72 -161.428 100.72C-168.148 100.72 -174.068 102.64 -179.188 106.48C-184.148 110.32 -188.068 115.6 -190.948 122.32C-193.668 128.88 -195.028 136.24 -195.028 144.4V197.68C-195.028 204.4 -193.828 208.96 -191.428 211.36C-189.028 213.76 -184.948 214.96 -179.188 214.96V220C-181.748 219.84 -185.588 219.68 -190.708 219.52C-195.668 219.2 -200.788 219.04 -206.068 219.04C-211.348 219.04 -216.788 219.2 -222.388 219.52C-227.988 219.68 -232.148 219.84 -234.868 220V214.96C-228.308 214.96 -223.668 213.76 -220.948 211.36C-218.068 208.96 -216.628 204.4 -216.628 197.68V122.56C-216.628 115.36 -217.908 110.08 -220.468 106.72C-223.028 103.2 -227.828 101.44 -234.868 101.44V96.4C-229.748 96.88 -224.788 97.12 -219.988 97.12C-215.348 97.12 -210.948 96.88 -206.788 96.4C-202.468 95.76 -198.548 94.88 -195.028 93.76V122.08C-190.868 111.2 -185.108 103.68 -177.748 99.52C-170.228 95.2 -162.388 93.04 -154.228 93.04ZM-41.985 31.84V197.68C-41.985 204.4 -40.785 208.96 -38.385 211.36C-35.985 213.76 -31.905 214.96 -26.145 214.96V220C-28.705 219.84 -32.545 219.68 -37.665 219.52C-42.625 219.2 -47.665 219.04 -52.785 219.04C-58.225 219.04 -63.745 219.2 -69.345 219.52C-74.945 219.68 -79.105 219.84 -81.825 220V214.96C-75.265 214.96 -70.625 213.76 -67.905 211.36C-65.025 208.96 -63.585 204.4 -63.585 197.68V60.64C-63.585 53.44 -64.865 48.16 -67.425 44.8C-69.985 41.28 -74.785 39.52 -81.825 39.52V34.48C-76.705 34.96 -71.745 35.2 -66.945 35.2C-62.305 35.2 -57.905 34.96 -53.745 34.48C-49.425 33.84 -45.505 32.96 -41.985 31.84ZM34.335 96.4V101.2C30.335 101.52 26.575 102.64 23.055 104.56C19.535 106.32 16.095 108.96 12.735 112.48L-21.105 148L-17.745 141.28L26.895 202.48C29.615 206.16 32.175 209.04 34.575 211.12C37.135 213.2 40.175 214.48 43.695 214.96V220C41.935 219.84 39.135 219.68 35.295 219.52C31.615 219.2 27.935 219.04 24.255 219.04C19.295 219.04 14.255 219.2 9.135 219.52C4.015 219.68 0.175003 219.84 -2.385 220V214.96C0.815004 214.96 3.055 214.16 4.335 212.56C5.615 210.96 5.37501 209.04 3.615 206.8L-23.985 166.48C-27.025 162.16 -29.825 159.36 -32.385 158.08C-34.785 156.8 -38.305 156.08 -42.945 155.92V151.12C-37.825 150.48 -33.665 149.44 -30.465 148C-27.265 146.4 -24.225 144.08 -21.345 141.04L-3.585 122.56C1.535 117.28 4.09501 113.12 4.09501 110.08C4.09501 106.88 2.41501 104.64 -0.944994 103.36C-4.145 101.92 -8.385 101.2 -13.665 101.2V96.4C-9.505 96.56 -4.865 96.8 0.255004 97.12C5.535 97.28 9.935 97.36 13.455 97.36C16.175 97.36 18.815 97.36 21.375 97.36C23.935 97.2 26.335 97.04 28.575 96.88C30.815 96.72 32.735 96.56 34.335 96.4ZM94.7025 32.08V121.84C98.8625 110.96 104.623 103.44 111.983 99.28C119.503 95.12 127.343 93.04 135.503 93.04C141.583 93.04 146.623 93.84 150.623 95.44C154.783 97.04 158.223 99.28 160.943 102.16C163.983 105.36 166.143 109.36 167.423 114.16C168.703 118.96 169.343 125.44 169.343 133.6V197.68C169.343 204.4 170.703 208.96 173.422 211.36C176.303 213.76 181.023 214.96 187.583 214.96V220C184.863 219.84 180.703 219.68 175.103 219.52C169.503 219.2 164.063 219.04 158.783 219.04C153.503 219.04 148.303 219.2 143.183 219.52C138.223 219.68 134.463 219.84 131.903 220V214.96C137.663 214.96 141.743 213.76 144.143 211.36C146.543 208.96 147.743 204.4 147.743 197.68V128.32C147.743 123.36 147.343 118.8 146.543 114.64C145.743 110.48 143.903 107.12 141.023 104.56C138.303 102 134.063 100.72 128.303 100.72C121.743 100.72 115.903 102.56 110.783 106.24C105.823 109.92 101.903 115.04 99.0225 121.6C96.1425 128.16 94.7025 135.68 94.7025 144.16V197.68C94.7025 204.4 95.9025 208.96 98.3025 211.36C100.703 213.76 104.783 214.96 110.543 214.96V220C107.983 219.84 104.143 219.68 99.0225 219.52C94.0625 219.2 88.9425 219.04 83.6625 219.04C78.3825 219.04 72.9425 219.2 67.3425 219.52C61.7425 219.68 57.5825 219.84 54.8625 220V214.96C61.4225 214.96 66.0625 213.76 68.7825 211.36C71.6625 208.96 73.1025 204.4 73.1025 197.68V60.88C73.1025 53.68 71.8225 48.4 69.2625 45.04C66.7025 41.52 61.9025 39.76 54.8625 39.76V34.72C59.9825 35.2 64.9425 35.44 69.7425 35.44C74.3825 35.44 78.7825 35.2 82.9425 34.72C87.2625 34.08 91.1825 33.2 94.7025 32.08ZM340.682 93.04C350.922 93.04 360.122 95.28 368.282 99.76C376.442 104.24 382.922 111.28 387.722 120.88C392.682 130.48 395.162 142.96 395.162 158.32C395.162 173.68 392.682 186.16 387.722 195.76C382.922 205.2 376.442 212.16 368.282 216.64C360.122 221.12 350.922 223.36 340.682 223.36C330.602 223.36 321.402 221.12 313.082 216.64C304.922 212.16 298.362 205.2 293.402 195.76C288.602 186.16 286.202 173.68 286.202 158.32C286.202 142.96 288.602 130.48 293.402 120.88C298.362 111.28 304.922 104.24 313.082 99.76C321.402 95.28 330.602 93.04 340.682 93.04ZM340.682 97.84C331.562 97.84 324.042 102.56 318.122 112C312.362 121.44 309.482 136.88 309.482 158.32C309.482 179.76 312.362 195.2 318.122 204.64C324.042 213.92 331.562 218.56 340.682 218.56C349.802 218.56 357.242 213.92 363.002 204.64C368.922 195.2 371.882 179.76 371.882 158.32C371.882 136.88 368.922 121.44 363.002 112C357.242 102.56 349.802 97.84 340.682 97.84ZM484.646 32.32C489.126 32.32 493.046 32.96 496.406 34.24C499.926 35.36 502.966 36.88 505.526 38.8C507.926 40.72 509.766 42.96 511.046 45.52C512.326 48.08 512.966 50.8 512.966 53.68C512.966 57.36 511.766 60.4 509.366 62.8C506.966 65.2 503.926 66.4 500.246 66.4C496.726 66.4 493.606 65.28 490.886 63.04C488.326 60.64 487.046 57.44 487.046 53.44C487.046 50.08 487.926 47.36 489.686 45.28C491.606 43.2 494.086 41.84 497.126 41.2C496.646 39.76 495.366 38.56 493.286 37.6C491.366 36.48 488.726 35.92 485.366 35.92C481.686 35.92 478.486 36.72 475.766 38.32C473.206 39.92 471.206 42.08 469.766 44.8C467.846 48.16 466.646 53.2 466.166 59.92C465.686 66.48 465.446 76.64 465.446 90.4V96.64H491.126V101.44H465.446V195.28C465.446 203.12 467.686 208.4 472.166 211.12C476.806 213.68 483.046 214.96 490.886 214.96V220C487.206 219.84 482.006 219.68 475.286 219.52C468.566 219.2 461.446 219.04 453.926 219.04C448.486 219.04 443.046 219.2 437.606 219.52C432.326 219.68 428.326 219.84 425.606 220V214.96C432.166 214.96 436.806 213.76 439.526 211.36C442.406 208.96 443.846 204.4 443.846 197.68V101.44H424.646V96.64H443.846C443.846 87.2 444.246 79.28 445.046 72.88C445.846 66.48 447.126 61.04 448.886 56.56C450.646 51.92 453.046 47.84 456.086 44.32C459.286 40.64 463.366 37.76 468.326 35.68C473.286 33.44 478.726 32.32 484.646 32.32ZM711.699 50.08C711.059 55.68 710.579 61.12 710.259 66.4C710.099 71.68 710.019 75.68 710.019 78.4C710.019 81.28 710.099 84.08 710.259 86.8C710.419 89.36 710.579 91.52 710.739 93.28H705.219C704.259 83.84 702.899 76.4 701.139 70.96C699.379 65.36 696.339 61.44 692.019 59.2C687.859 56.8 681.539 55.6 673.059 55.6H653.139C647.699 55.6 643.539 56.08 640.659 57.04C637.939 57.84 636.099 59.68 635.139 62.56C634.179 65.28 633.699 69.6 633.699 75.52V194.56C633.699 200.32 634.179 204.64 635.139 207.52C636.099 210.4 637.939 212.32 640.659 213.28C643.539 214.08 647.699 214.48 653.139 214.48H670.659C680.739 214.48 688.339 213.12 693.459 210.4C698.739 207.68 702.499 203.28 704.739 197.2C707.139 190.96 708.899 182.56 710.019 172H715.539C715.059 176.32 714.819 182.08 714.819 189.28C714.819 192.32 714.899 196.72 715.059 202.48C715.379 208.08 715.859 213.92 716.499 220C708.339 219.68 699.139 219.52 688.899 219.52C678.659 219.36 669.539 219.28 661.539 219.28C658.019 219.28 653.459 219.28 647.859 219.28C642.419 219.28 636.499 219.36 630.099 219.52C623.699 219.52 617.219 219.6 610.659 219.76C604.099 219.76 597.859 219.84 591.939 220V215.2C597.379 214.88 601.459 214.24 604.179 213.28C607.059 212.32 608.979 210.4 609.939 207.52C610.899 204.64 611.379 200.32 611.379 194.56V75.52C611.379 69.6 610.899 65.28 609.939 62.56C608.979 59.68 607.059 57.76 604.179 56.8C601.459 55.68 597.379 55.04 591.939 54.88V50.08C597.859 50.24 604.099 50.4 610.659 50.56C617.219 50.56 623.699 50.64 630.099 50.8C636.499 50.8 642.419 50.8 647.859 50.8C653.459 50.8 658.019 50.8 661.539 50.8C668.899 50.8 677.219 50.8 686.499 50.8C695.939 50.64 704.339 50.4 711.699 50.08ZM670.419 132.16C670.419 132.16 670.419 132.96 670.419 134.56C670.419 136.16 670.419 136.96 670.419 136.96H626.499C626.499 136.96 626.499 136.16 626.499 134.56C626.499 132.96 626.499 132.16 626.499 132.16H670.419ZM677.379 100.48C676.739 109.6 676.419 116.56 676.419 121.36C676.579 126.16 676.659 130.56 676.659 134.56C676.659 138.56 676.739 142.96 676.899 147.76C677.059 152.56 677.459 159.52 678.099 168.64H672.579C671.939 163.52 671.139 158.56 670.179 153.76C669.379 148.8 667.459 144.8 664.419 141.76C661.539 138.56 656.579 136.96 649.539 136.96V132.16C654.819 132.16 658.819 131.12 661.539 129.04C664.419 126.8 666.499 124 667.779 120.64C669.059 117.28 669.939 113.84 670.419 110.32C670.899 106.64 671.379 103.36 671.859 100.48H677.379ZM785.709 56.56V96.64H821.229V101.44H785.709V194.32C785.709 201.84 787.069 207.12 789.789 210.16C792.509 213.2 796.269 214.72 801.069 214.72C805.869 214.72 810.029 212.8 813.549 208.96C817.069 204.96 820.109 198.32 822.669 189.04L827.469 190.24C825.869 199.52 822.669 207.36 817.869 213.76C813.229 220.16 806.029 223.36 796.269 223.36C790.829 223.36 786.349 222.64 782.829 221.2C779.309 219.92 776.189 218 773.469 215.44C769.949 211.76 767.469 207.36 766.029 202.24C764.749 197.12 764.109 190.32 764.109 181.84V101.44H741.069V96.64H764.109V59.92C768.109 59.76 771.949 59.44 775.629 58.96C779.309 58.48 782.669 57.68 785.709 56.56ZM902.233 93.04C916.313 93.04 927.273 97.36 935.113 106C943.113 114.48 947.113 127.76 947.113 145.84H862.393L862.153 141.28H924.073C924.393 133.44 923.753 126.24 922.153 119.68C920.553 112.96 917.993 107.6 914.473 103.6C911.113 99.6 906.713 97.6 901.273 97.6C893.913 97.6 887.353 101.28 881.593 108.64C875.993 116 872.633 127.68 871.513 143.68L872.233 144.64C871.913 147.04 871.673 149.68 871.513 152.56C871.353 155.44 871.273 158.32 871.273 161.2C871.273 172.08 873.033 181.44 876.553 189.28C880.073 197.12 884.633 203.12 890.233 207.28C895.993 211.28 901.913 213.28 907.993 213.28C912.793 213.28 917.353 212.56 921.673 211.12C925.993 209.52 929.993 206.96 933.673 203.44C937.353 199.92 940.553 195.2 943.273 189.28L948.073 191.2C946.313 196.48 943.433 201.6 939.433 206.56C935.433 211.52 930.393 215.6 924.313 218.8C918.233 221.84 911.193 223.36 903.193 223.36C891.673 223.36 881.753 220.72 873.433 215.44C865.273 210.16 858.953 202.88 854.473 193.6C850.153 184.16 847.993 173.36 847.993 161.2C847.993 147.12 850.233 135.04 854.713 124.96C859.193 114.72 865.513 106.88 873.673 101.44C881.833 95.84 891.353 93.04 902.233 93.04ZM1051.96 93.04C1056.28 93.04 1060.04 93.92 1063.24 95.68C1066.6 97.44 1069.16 99.76 1070.92 102.64C1072.84 105.36 1073.8 108.48 1073.8 112C1073.8 116 1072.52 119.52 1069.96 122.56C1067.56 125.6 1064.28 127.12 1060.12 127.12C1056.76 127.12 1053.8 126.08 1051.24 124C1048.68 121.76 1047.4 118.64 1047.4 114.64C1047.4 111.6 1048.2 109.04 1049.8 106.96C1051.56 104.72 1053.48 102.96 1055.56 101.68C1054.44 100.08 1052.76 99.28 1050.52 99.28C1045.56 99.28 1041 100.8 1036.84 103.84C1032.68 106.72 1029.16 110.48 1026.28 115.12C1023.4 119.76 1021.16 124.72 1019.56 130C1017.96 135.12 1017.16 139.92 1017.16 144.4V195.28C1017.16 203.12 1019.4 208.4 1023.88 211.12C1028.52 213.68 1034.76 214.96 1042.6 214.96V220C1038.92 219.84 1033.72 219.68 1027 219.52C1020.28 219.2 1013.16 219.04 1005.64 219.04C1000.2 219.04 994.759 219.2 989.319 219.52C984.039 219.68 980.039 219.84 977.319 220V214.96C983.879 214.96 988.519 213.76 991.239 211.36C994.119 208.96 995.559 204.4 995.559 197.68V122.56C995.559 115.36 994.279 110.08 991.719 106.72C989.159 103.2 984.359 101.44 977.319 101.44V96.4C982.439 96.88 987.399 97.12 992.199 97.12C996.839 97.12 1001.24 96.88 1005.4 96.4C1009.72 95.76 1013.64 94.88 1017.16 93.76V123.76C1018.92 119.12 1021.4 114.48 1024.6 109.84C1027.96 105.04 1031.96 101.04 1036.6 97.84C1041.24 94.64 1046.36 93.04 1051.96 93.04ZM1176.83 93.04C1182.91 93.04 1187.95 93.84 1191.95 95.44C1196.11 97.04 1199.55 99.28 1202.27 102.16C1205.31 105.36 1207.47 109.36 1208.75 114.16C1210.03 118.96 1210.67 125.44 1210.67 133.6V197.68C1210.67 204.4 1212.03 208.96 1214.75 211.36C1217.63 213.76 1222.35 214.96 1228.91 214.96V220C1226.19 219.84 1222.03 219.68 1216.43 219.52C1210.83 219.2 1205.39 219.04 1200.11 219.04C1194.83 219.04 1189.63 219.2 1184.51 219.52C1179.55 219.68 1175.79 219.84 1173.23 220V214.96C1178.99 214.96 1183.07 213.76 1185.47 211.36C1187.87 208.96 1189.07 204.4 1189.07 197.68V128.32C1189.07 123.36 1188.67 118.8 1187.87 114.64C1187.07 110.48 1185.23 107.12 1182.35 104.56C1179.63 102 1175.39 100.72 1169.63 100.72C1162.91 100.72 1156.99 102.64 1151.87 106.48C1146.91 110.32 1142.99 115.6 1140.11 122.32C1137.39 128.88 1136.03 136.24 1136.03 144.4V197.68C1136.03 204.4 1137.23 208.96 1139.63 211.36C1142.03 213.76 1146.11 214.96 1151.87 214.96V220C1149.31 219.84 1145.47 219.68 1140.35 219.52C1135.39 219.2 1130.27 219.04 1124.99 219.04C1119.71 219.04 1114.27 219.2 1108.67 219.52C1103.07 219.68 1098.91 219.84 1096.19 220V214.96C1102.75 214.96 1107.39 213.76 1110.11 211.36C1112.99 208.96 1114.43 204.4 1114.43 197.68V122.56C1114.43 115.36 1113.15 110.08 1110.59 106.72C1108.03 103.2 1103.23 101.44 1096.19 101.44V96.4C1101.31 96.88 1106.27 97.12 1111.07 97.12C1115.71 97.12 1120.11 96.88 1124.27 96.4C1128.59 95.76 1132.51 94.88 1136.03 93.76V122.08C1140.19 111.2 1145.95 103.68 1153.31 99.52C1160.83 95.2 1168.67 93.04 1176.83 93.04ZM1278.76 36.4C1282.92 36.4 1286.52 37.92 1289.56 40.96C1292.6 44 1294.12 47.6 1294.12 51.76C1294.12 55.92 1292.6 59.52 1289.56 62.56C1286.52 65.6 1282.92 67.12 1278.76 67.12C1274.6 67.12 1271 65.6 1267.96 62.56C1264.92 59.52 1263.4 55.92 1263.4 51.76C1263.4 47.6 1264.92 44 1267.96 40.96C1271 37.92 1274.6 36.4 1278.76 36.4ZM1291.24 93.76V197.68C1291.24 204.4 1292.6 208.96 1295.32 211.36C1298.2 213.76 1302.92 214.96 1309.48 214.96V220C1306.76 219.84 1302.6 219.68 1297 219.52C1291.56 219.2 1286.04 219.04 1280.44 219.04C1275 219.04 1269.48 219.2 1263.88 219.52C1258.28 219.68 1254.12 219.84 1251.4 220V214.96C1257.96 214.96 1262.6 213.76 1265.32 211.36C1268.2 208.96 1269.64 204.4 1269.64 197.68V122.56C1269.64 115.36 1268.36 110.08 1265.8 106.72C1263.24 103.2 1258.44 101.44 1251.4 101.44V96.4C1256.52 96.88 1261.48 97.12 1266.28 97.12C1270.92 97.12 1275.32 96.88 1279.48 96.4C1283.8 95.76 1287.72 94.88 1291.24 93.76ZM1372.35 56.56V96.64H1407.87V101.44H1372.35V194.32C1372.35 201.84 1373.71 207.12 1376.43 210.16C1379.15 213.2 1382.91 214.72 1387.71 214.72C1392.51 214.72 1396.67 212.8 1400.19 208.96C1403.71 204.96 1406.75 198.32 1409.31 189.04L1414.11 190.24C1412.51 199.52 1409.31 207.36 1404.51 213.76C1399.87 220.16 1392.67 223.36 1382.91 223.36C1377.47 223.36 1372.99 222.64 1369.47 221.2C1365.95 219.92 1362.83 218 1360.11 215.44C1356.59 211.76 1354.11 207.36 1352.67 202.24C1351.39 197.12 1350.75 190.32 1350.75 181.84V101.44H1327.71V96.64H1350.75V59.92C1354.75 59.76 1358.59 59.44 1362.27 58.96C1365.95 58.48 1369.31 57.68 1372.35 56.56ZM1542.15 96.4V101.2C1539.11 101.52 1536.31 102.88 1533.75 105.28C1531.19 107.68 1528.79 111.92 1526.55 118L1487.19 221.2H1483.11L1438.95 114.88C1435.91 108.64 1432.87 104.88 1429.83 103.6C1426.95 102.16 1424.55 101.44 1422.63 101.44V96.4C1426.15 96.88 1429.83 97.28 1433.67 97.6C1437.51 97.76 1441.67 97.84 1446.15 97.84C1451.11 97.84 1456.31 97.68 1461.75 97.36C1467.35 97.04 1472.55 96.72 1477.35 96.4V101.44C1473.35 101.44 1469.75 101.76 1466.55 102.4C1463.51 102.88 1461.59 104.56 1460.79 107.44C1459.99 110.16 1460.95 114.88 1463.67 121.6L1493.19 194.8L1491.75 195.28L1519.11 123.76C1521.19 118.48 1521.99 114.32 1521.51 111.28C1521.19 108.08 1519.59 105.68 1516.71 104.08C1513.83 102.48 1509.51 101.52 1503.75 101.2V96.4C1506.63 96.56 1509.11 96.72 1511.19 96.88C1513.27 96.88 1515.27 96.96 1517.19 97.12C1519.27 97.12 1521.51 97.12 1523.91 97.12C1527.59 97.12 1530.87 97.04 1533.75 96.88C1536.79 96.72 1539.59 96.56 1542.15 96.4ZM1487.19 221.2L1479.03 242.08C1477.43 246.08 1475.75 249.44 1473.99 252.16C1472.39 254.88 1470.63 257.12 1468.71 258.88C1466.15 261.28 1463.11 262.88 1459.59 263.68C1456.07 264.64 1452.87 265.12 1449.99 265.12C1446.95 265.12 1444.15 264.56 1441.59 263.44C1439.19 262.32 1437.27 260.64 1435.83 258.4C1434.39 256.32 1433.67 253.76 1433.67 250.72C1433.67 246.88 1434.79 243.76 1437.03 241.36C1439.27 239.12 1442.39 238 1446.39 238C1449.75 238 1452.63 238.96 1455.03 240.88C1457.43 242.8 1458.63 245.6 1458.63 249.28C1458.63 252 1457.99 254.24 1456.71 256C1455.43 257.76 1453.91 259.12 1452.15 260.08C1452.47 260.24 1452.71 260.32 1452.87 260.32C1453.19 260.32 1453.43 260.32 1453.59 260.32C1457.91 260.32 1461.75 258.8 1465.11 255.76C1468.47 252.88 1471.43 248.16 1473.99 241.6L1482.63 219.28L1487.19 221.2Z" fill="#6E3F08"/>
</mask>
<g mask="url(#mask0_16_4125)">
<rect x="-405" y="-14" width="1888" height="248" fill="url(#paint0_linear_16_4125)"/>
</g>
<defs>
<linearGradient id="paint0_linear_16_4125" x1="539" y1="157.14" x2="539" y2="234" gradientUnits="userSpaceOnUse">
<stop/>
<stop offset="1" stop-opacity="0"/>
</linearGradient>
</defs>
</svg>
