<svg width="1440" height="240" viewBox="0 0 1440 240" fill="none" xmlns="http://www.w3.org/2000/svg">
<mask id="mask0_16_4486" style="mask-type:alpha" maskUnits="userSpaceOnUse" x="-347" y="31" width="1950" height="235">
<path opacity="0.05" d="M-267.48 48.88L-208.92 199.84C-206.52 205.92 -203.8 210 -200.76 212.08C-197.72 214 -194.92 215.04 -192.36 215.2V220C-195.56 219.68 -199.48 219.52 -204.12 219.52C-208.76 219.36 -213.4 219.28 -218.04 219.28C-224.28 219.28 -230.12 219.36 -235.56 219.52C-241 219.52 -245.4 219.68 -248.76 220V215.2C-240.6 214.88 -235.4 213.52 -233.16 211.12C-230.92 208.56 -231.4 203.2 -234.6 195.04L-279.24 75.76L-275.4 72.64L-317.16 181.12C-319.72 187.52 -321.24 192.96 -321.72 197.44C-322.2 201.76 -321.8 205.2 -320.52 207.76C-319.08 210.32 -316.76 212.16 -313.56 213.28C-310.2 214.4 -306.04 215.04 -301.08 215.2V220C-305.56 219.68 -310.28 219.52 -315.24 219.52C-320.04 219.36 -324.52 219.28 -328.68 219.28C-332.68 219.28 -336.12 219.36 -339 219.52C-341.72 219.52 -344.28 219.68 -346.68 220V215.2C-343.48 214.4 -340.2 212.56 -336.84 209.68C-333.48 206.64 -330.44 201.52 -327.72 194.32L-271.32 48.88C-270.68 48.88 -270.04 48.88 -269.4 48.88C-268.76 48.88 -268.12 48.88 -267.48 48.88ZM-238.2 150.88V155.68H-309.72L-307.32 150.88H-238.2ZM-94.2281 93.04C-88.1481 93.04 -83.1081 93.84 -79.1081 95.44C-74.9481 97.04 -71.5081 99.28 -68.7881 102.16C-65.7481 105.36 -63.5881 109.36 -62.3081 114.16C-61.0281 118.96 -60.3881 125.44 -60.3881 133.6V197.68C-60.3881 204.4 -59.0281 208.96 -56.3081 211.36C-53.4281 213.76 -48.7081 214.96 -42.1481 214.96V220C-44.8681 219.84 -49.0281 219.68 -54.6281 219.52C-60.2281 219.2 -65.6681 219.04 -70.9481 219.04C-76.2281 219.04 -81.4281 219.2 -86.5481 219.52C-91.5081 219.68 -95.2681 219.84 -97.8281 220V214.96C-92.0681 214.96 -87.9881 213.76 -85.5881 211.36C-83.1881 208.96 -81.9881 204.4 -81.9881 197.68V128.32C-81.9881 123.36 -82.3881 118.8 -83.1881 114.64C-83.9881 110.48 -85.8281 107.12 -88.7081 104.56C-91.4281 102 -95.6681 100.72 -101.428 100.72C-108.148 100.72 -114.068 102.64 -119.188 106.48C-124.148 110.32 -128.068 115.6 -130.948 122.32C-133.668 128.88 -135.028 136.24 -135.028 144.4V197.68C-135.028 204.4 -133.828 208.96 -131.428 211.36C-129.028 213.76 -124.948 214.96 -119.188 214.96V220C-121.748 219.84 -125.588 219.68 -130.708 219.52C-135.668 219.2 -140.788 219.04 -146.068 219.04C-151.348 219.04 -156.788 219.2 -162.388 219.52C-167.988 219.68 -172.148 219.84 -174.868 220V214.96C-168.308 214.96 -163.668 213.76 -160.948 211.36C-158.068 208.96 -156.628 204.4 -156.628 197.68V122.56C-156.628 115.36 -157.908 110.08 -160.468 106.72C-163.028 103.2 -167.828 101.44 -174.868 101.44V96.4C-169.748 96.88 -164.788 97.12 -159.988 97.12C-155.348 97.12 -150.948 96.88 -146.788 96.4C-142.468 95.76 -138.548 94.88 -135.028 93.76V122.08C-130.868 111.2 -125.108 103.68 -117.748 99.52C-110.228 95.2 -102.388 93.04 -94.2281 93.04ZM18.015 31.84V197.68C18.015 204.4 19.215 208.96 21.615 211.36C24.015 213.76 28.095 214.96 33.855 214.96V220C31.295 219.84 27.455 219.68 22.335 219.52C17.375 219.2 12.335 219.04 7.215 219.04C1.775 219.04 -3.745 219.2 -9.345 219.52C-14.945 219.68 -19.105 219.84 -21.825 220V214.96C-15.265 214.96 -10.625 213.76 -7.905 211.36C-5.025 208.96 -3.585 204.4 -3.585 197.68V60.64C-3.585 53.44 -4.865 48.16 -7.425 44.8C-9.985 41.28 -14.785 39.52 -21.825 39.52V34.48C-16.705 34.96 -11.745 35.2 -6.945 35.2C-2.305 35.2 2.095 34.96 6.255 34.48C10.575 33.84 14.495 32.96 18.015 31.84ZM94.335 96.4V101.2C90.335 101.52 86.575 102.64 83.055 104.56C79.535 106.32 76.095 108.96 72.735 112.48L38.895 148L42.255 141.28L86.895 202.48C89.615 206.16 92.175 209.04 94.575 211.12C97.135 213.2 100.175 214.48 103.695 214.96V220C101.935 219.84 99.135 219.68 95.295 219.52C91.615 219.2 87.935 219.04 84.255 219.04C79.295 219.04 74.255 219.2 69.135 219.52C64.015 219.68 60.175 219.84 57.615 220V214.96C60.815 214.96 63.055 214.16 64.335 212.56C65.615 210.96 65.375 209.04 63.615 206.8L36.015 166.48C32.975 162.16 30.175 159.36 27.615 158.08C25.215 156.8 21.695 156.08 17.055 155.92V151.12C22.175 150.48 26.335 149.44 29.535 148C32.735 146.4 35.775 144.08 38.655 141.04L56.415 122.56C61.535 117.28 64.095 113.12 64.095 110.08C64.095 106.88 62.415 104.64 59.055 103.36C55.855 101.92 51.615 101.2 46.335 101.2V96.4C50.495 96.56 55.135 96.8 60.255 97.12C65.535 97.28 69.935 97.36 73.455 97.36C76.175 97.36 78.815 97.36 81.375 97.36C83.935 97.2 86.335 97.04 88.575 96.88C90.815 96.72 92.735 96.56 94.335 96.4ZM154.703 32.08V121.84C158.863 110.96 164.623 103.44 171.983 99.28C179.503 95.12 187.343 93.04 195.503 93.04C201.583 93.04 206.623 93.84 210.623 95.44C214.783 97.04 218.223 99.28 220.943 102.16C223.983 105.36 226.143 109.36 227.423 114.16C228.703 118.96 229.343 125.44 229.343 133.6V197.68C229.343 204.4 230.703 208.96 233.422 211.36C236.303 213.76 241.023 214.96 247.583 214.96V220C244.863 219.84 240.703 219.68 235.103 219.52C229.503 219.2 224.063 219.04 218.783 219.04C213.503 219.04 208.303 219.2 203.183 219.52C198.223 219.68 194.463 219.84 191.903 220V214.96C197.663 214.96 201.743 213.76 204.143 211.36C206.543 208.96 207.743 204.4 207.743 197.68V128.32C207.743 123.36 207.343 118.8 206.543 114.64C205.743 110.48 203.903 107.12 201.023 104.56C198.303 102 194.063 100.72 188.303 100.72C181.743 100.72 175.903 102.56 170.783 106.24C165.823 109.92 161.903 115.04 159.023 121.6C156.143 128.16 154.703 135.68 154.703 144.16V197.68C154.703 204.4 155.903 208.96 158.303 211.36C160.703 213.76 164.783 214.96 170.543 214.96V220C167.983 219.84 164.143 219.68 159.023 219.52C154.063 219.2 148.943 219.04 143.663 219.04C138.383 219.04 132.943 219.2 127.343 219.52C121.743 219.68 117.583 219.84 114.863 220V214.96C121.423 214.96 126.063 213.76 128.783 211.36C131.663 208.96 133.103 204.4 133.103 197.68V60.88C133.103 53.68 131.823 48.4 129.263 45.04C126.703 41.52 121.903 39.76 114.863 39.76V34.72C119.983 35.2 124.943 35.44 129.743 35.44C134.383 35.44 138.783 35.2 142.943 34.72C147.263 34.08 151.183 33.2 154.703 32.08ZM400.682 93.04C410.922 93.04 420.122 95.28 428.282 99.76C436.442 104.24 442.922 111.28 447.722 120.88C452.682 130.48 455.162 142.96 455.162 158.32C455.162 173.68 452.682 186.16 447.722 195.76C442.922 205.2 436.442 212.16 428.282 216.64C420.122 221.12 410.922 223.36 400.682 223.36C390.602 223.36 381.402 221.12 373.082 216.64C364.922 212.16 358.362 205.2 353.402 195.76C348.602 186.16 346.202 173.68 346.202 158.32C346.202 142.96 348.602 130.48 353.402 120.88C358.362 111.28 364.922 104.24 373.082 99.76C381.402 95.28 390.602 93.04 400.682 93.04ZM400.682 97.84C391.562 97.84 384.042 102.56 378.122 112C372.362 121.44 369.482 136.88 369.482 158.32C369.482 179.76 372.362 195.2 378.122 204.64C384.042 213.92 391.562 218.56 400.682 218.56C409.802 218.56 417.242 213.92 423.002 204.64C428.922 195.2 431.882 179.76 431.882 158.32C431.882 136.88 428.922 121.44 423.002 112C417.242 102.56 409.802 97.84 400.682 97.84ZM544.646 32.32C549.126 32.32 553.046 32.96 556.406 34.24C559.926 35.36 562.966 36.88 565.526 38.8C567.926 40.72 569.766 42.96 571.046 45.52C572.326 48.08 572.966 50.8 572.966 53.68C572.966 57.36 571.766 60.4 569.366 62.8C566.966 65.2 563.926 66.4 560.246 66.4C556.726 66.4 553.606 65.28 550.886 63.04C548.326 60.64 547.046 57.44 547.046 53.44C547.046 50.08 547.926 47.36 549.686 45.28C551.606 43.2 554.086 41.84 557.126 41.2C556.646 39.76 555.366 38.56 553.286 37.6C551.366 36.48 548.726 35.92 545.366 35.92C541.686 35.92 538.486 36.72 535.766 38.32C533.206 39.92 531.206 42.08 529.766 44.8C527.846 48.16 526.646 53.2 526.166 59.92C525.686 66.48 525.446 76.64 525.446 90.4V96.64H551.126V101.44H525.446V195.28C525.446 203.12 527.686 208.4 532.166 211.12C536.806 213.68 543.046 214.96 550.886 214.96V220C547.206 219.84 542.006 219.68 535.286 219.52C528.566 219.2 521.446 219.04 513.926 219.04C508.486 219.04 503.046 219.2 497.606 219.52C492.326 219.68 488.326 219.84 485.606 220V214.96C492.166 214.96 496.806 213.76 499.526 211.36C502.406 208.96 503.846 204.4 503.846 197.68V101.44H484.646V96.64H503.846C503.846 87.2 504.246 79.28 505.046 72.88C505.846 66.48 507.126 61.04 508.886 56.56C510.646 51.92 513.046 47.84 516.086 44.32C519.286 40.64 523.366 37.76 528.326 35.68C533.286 33.44 538.726 32.32 544.646 32.32ZM771.699 50.08C771.059 55.68 770.579 61.12 770.259 66.4C770.099 71.68 770.019 75.68 770.019 78.4C770.019 81.28 770.099 84.08 770.259 86.8C770.419 89.36 770.579 91.52 770.739 93.28H765.219C764.259 83.84 762.899 76.4 761.139 70.96C759.379 65.36 756.339 61.44 752.019 59.2C747.859 56.8 741.539 55.6 733.059 55.6H713.139C707.699 55.6 703.539 56.08 700.659 57.04C697.939 57.84 696.099 59.68 695.139 62.56C694.179 65.28 693.699 69.6 693.699 75.52V194.56C693.699 200.32 694.179 204.64 695.139 207.52C696.099 210.4 697.939 212.32 700.659 213.28C703.539 214.08 707.699 214.48 713.139 214.48H730.659C740.739 214.48 748.339 213.12 753.459 210.4C758.739 207.68 762.499 203.28 764.739 197.2C767.139 190.96 768.899 182.56 770.019 172H775.539C775.059 176.32 774.819 182.08 774.819 189.28C774.819 192.32 774.899 196.72 775.059 202.48C775.379 208.08 775.859 213.92 776.499 220C768.339 219.68 759.139 219.52 748.899 219.52C738.659 219.36 729.539 219.28 721.539 219.28C718.019 219.28 713.459 219.28 707.859 219.28C702.419 219.28 696.499 219.36 690.099 219.52C683.699 219.52 677.219 219.6 670.659 219.76C664.099 219.76 657.859 219.84 651.939 220V215.2C657.379 214.88 661.459 214.24 664.179 213.28C667.059 212.32 668.979 210.4 669.939 207.52C670.899 204.64 671.379 200.32 671.379 194.56V75.52C671.379 69.6 670.899 65.28 669.939 62.56C668.979 59.68 667.059 57.76 664.179 56.8C661.459 55.68 657.379 55.04 651.939 54.88V50.08C657.859 50.24 664.099 50.4 670.659 50.56C677.219 50.56 683.699 50.64 690.099 50.8C696.499 50.8 702.419 50.8 707.859 50.8C713.459 50.8 718.019 50.8 721.539 50.8C728.899 50.8 737.219 50.8 746.499 50.8C755.939 50.64 764.339 50.4 771.699 50.08ZM730.419 132.16C730.419 132.16 730.419 132.96 730.419 134.56C730.419 136.16 730.419 136.96 730.419 136.96H686.499C686.499 136.96 686.499 136.16 686.499 134.56C686.499 132.96 686.499 132.16 686.499 132.16H730.419ZM737.379 100.48C736.739 109.6 736.419 116.56 736.419 121.36C736.579 126.16 736.659 130.56 736.659 134.56C736.659 138.56 736.739 142.96 736.899 147.76C737.059 152.56 737.459 159.52 738.099 168.64H732.579C731.939 163.52 731.139 158.56 730.179 153.76C729.379 148.8 727.459 144.8 724.419 141.76C721.539 138.56 716.579 136.96 709.539 136.96V132.16C714.819 132.16 718.819 131.12 721.539 129.04C724.419 126.8 726.499 124 727.779 120.64C729.059 117.28 729.939 113.84 730.419 110.32C730.899 106.64 731.379 103.36 731.859 100.48H737.379ZM845.709 56.56V96.64H881.229V101.44H845.709V194.32C845.709 201.84 847.069 207.12 849.789 210.16C852.509 213.2 856.269 214.72 861.069 214.72C865.869 214.72 870.029 212.8 873.549 208.96C877.069 204.96 880.109 198.32 882.669 189.04L887.469 190.24C885.869 199.52 882.669 207.36 877.869 213.76C873.229 220.16 866.029 223.36 856.269 223.36C850.829 223.36 846.349 222.64 842.829 221.2C839.309 219.92 836.189 218 833.469 215.44C829.949 211.76 827.469 207.36 826.029 202.24C824.749 197.12 824.109 190.32 824.109 181.84V101.44H801.069V96.64H824.109V59.92C828.109 59.76 831.949 59.44 835.629 58.96C839.309 58.48 842.669 57.68 845.709 56.56ZM962.233 93.04C976.313 93.04 987.273 97.36 995.113 106C1003.11 114.48 1007.11 127.76 1007.11 145.84H922.393L922.153 141.28H984.073C984.393 133.44 983.753 126.24 982.153 119.68C980.553 112.96 977.993 107.6 974.473 103.6C971.113 99.6 966.713 97.6 961.273 97.6C953.913 97.6 947.353 101.28 941.593 108.64C935.993 116 932.633 127.68 931.513 143.68L932.233 144.64C931.913 147.04 931.673 149.68 931.513 152.56C931.353 155.44 931.273 158.32 931.273 161.2C931.273 172.08 933.033 181.44 936.553 189.28C940.073 197.12 944.633 203.12 950.233 207.28C955.993 211.28 961.913 213.28 967.993 213.28C972.793 213.28 977.353 212.56 981.673 211.12C985.993 209.52 989.993 206.96 993.673 203.44C997.353 199.92 1000.55 195.2 1003.27 189.28L1008.07 191.2C1006.31 196.48 1003.43 201.6 999.433 206.56C995.433 211.52 990.393 215.6 984.313 218.8C978.233 221.84 971.193 223.36 963.193 223.36C951.673 223.36 941.753 220.72 933.433 215.44C925.273 210.16 918.953 202.88 914.473 193.6C910.153 184.16 907.993 173.36 907.993 161.2C907.993 147.12 910.233 135.04 914.713 124.96C919.193 114.72 925.513 106.88 933.673 101.44C941.833 95.84 951.353 93.04 962.233 93.04ZM1111.96 93.04C1116.28 93.04 1120.04 93.92 1123.24 95.68C1126.6 97.44 1129.16 99.76 1130.92 102.64C1132.84 105.36 1133.8 108.48 1133.8 112C1133.8 116 1132.52 119.52 1129.96 122.56C1127.56 125.6 1124.28 127.12 1120.12 127.12C1116.76 127.12 1113.8 126.08 1111.24 124C1108.68 121.76 1107.4 118.64 1107.4 114.64C1107.4 111.6 1108.2 109.04 1109.8 106.96C1111.56 104.72 1113.48 102.96 1115.56 101.68C1114.44 100.08 1112.76 99.28 1110.52 99.28C1105.56 99.28 1101 100.8 1096.84 103.84C1092.68 106.72 1089.16 110.48 1086.28 115.12C1083.4 119.76 1081.16 124.72 1079.56 130C1077.96 135.12 1077.16 139.92 1077.16 144.4V195.28C1077.16 203.12 1079.4 208.4 1083.88 211.12C1088.52 213.68 1094.76 214.96 1102.6 214.96V220C1098.92 219.84 1093.72 219.68 1087 219.52C1080.28 219.2 1073.16 219.04 1065.64 219.04C1060.2 219.04 1054.76 219.2 1049.32 219.52C1044.04 219.68 1040.04 219.84 1037.32 220V214.96C1043.88 214.96 1048.52 213.76 1051.24 211.36C1054.12 208.96 1055.56 204.4 1055.56 197.68V122.56C1055.56 115.36 1054.28 110.08 1051.72 106.72C1049.16 103.2 1044.36 101.44 1037.32 101.44V96.4C1042.44 96.88 1047.4 97.12 1052.2 97.12C1056.84 97.12 1061.24 96.88 1065.4 96.4C1069.72 95.76 1073.64 94.88 1077.16 93.76V123.76C1078.92 119.12 1081.4 114.48 1084.6 109.84C1087.96 105.04 1091.96 101.04 1096.6 97.84C1101.24 94.64 1106.36 93.04 1111.96 93.04ZM1236.83 93.04C1242.91 93.04 1247.95 93.84 1251.95 95.44C1256.11 97.04 1259.55 99.28 1262.27 102.16C1265.31 105.36 1267.47 109.36 1268.75 114.16C1270.03 118.96 1270.67 125.44 1270.67 133.6V197.68C1270.67 204.4 1272.03 208.96 1274.75 211.36C1277.63 213.76 1282.35 214.96 1288.91 214.96V220C1286.19 219.84 1282.03 219.68 1276.43 219.52C1270.83 219.2 1265.39 219.04 1260.11 219.04C1254.83 219.04 1249.63 219.2 1244.51 219.52C1239.55 219.68 1235.79 219.84 1233.23 220V214.96C1238.99 214.96 1243.07 213.76 1245.47 211.36C1247.87 208.96 1249.07 204.4 1249.07 197.68V128.32C1249.07 123.36 1248.67 118.8 1247.87 114.64C1247.07 110.48 1245.23 107.12 1242.35 104.56C1239.63 102 1235.39 100.72 1229.63 100.72C1222.91 100.72 1216.99 102.64 1211.87 106.48C1206.91 110.32 1202.99 115.6 1200.11 122.32C1197.39 128.88 1196.03 136.24 1196.03 144.4V197.68C1196.03 204.4 1197.23 208.96 1199.63 211.36C1202.03 213.76 1206.11 214.96 1211.87 214.96V220C1209.31 219.84 1205.47 219.68 1200.35 219.52C1195.39 219.2 1190.27 219.04 1184.99 219.04C1179.71 219.04 1174.27 219.2 1168.67 219.52C1163.07 219.68 1158.91 219.84 1156.19 220V214.96C1162.75 214.96 1167.39 213.76 1170.11 211.36C1172.99 208.96 1174.43 204.4 1174.43 197.68V122.56C1174.43 115.36 1173.15 110.08 1170.59 106.72C1168.03 103.2 1163.23 101.44 1156.19 101.44V96.4C1161.31 96.88 1166.27 97.12 1171.07 97.12C1175.71 97.12 1180.11 96.88 1184.27 96.4C1188.59 95.76 1192.51 94.88 1196.03 93.76V122.08C1200.19 111.2 1205.95 103.68 1213.31 99.52C1220.83 95.2 1228.67 93.04 1236.83 93.04ZM1338.76 36.4C1342.92 36.4 1346.52 37.92 1349.56 40.96C1352.6 44 1354.12 47.6 1354.12 51.76C1354.12 55.92 1352.6 59.52 1349.56 62.56C1346.52 65.6 1342.92 67.12 1338.76 67.12C1334.6 67.12 1331 65.6 1327.96 62.56C1324.92 59.52 1323.4 55.92 1323.4 51.76C1323.4 47.6 1324.92 44 1327.96 40.96C1331 37.92 1334.6 36.4 1338.76 36.4ZM1351.24 93.76V197.68C1351.24 204.4 1352.6 208.96 1355.32 211.36C1358.2 213.76 1362.92 214.96 1369.48 214.96V220C1366.76 219.84 1362.6 219.68 1357 219.52C1351.56 219.2 1346.04 219.04 1340.44 219.04C1335 219.04 1329.48 219.2 1323.88 219.52C1318.28 219.68 1314.12 219.84 1311.4 220V214.96C1317.96 214.96 1322.6 213.76 1325.32 211.36C1328.2 208.96 1329.64 204.4 1329.64 197.68V122.56C1329.64 115.36 1328.36 110.08 1325.8 106.72C1323.24 103.2 1318.44 101.44 1311.4 101.44V96.4C1316.52 96.88 1321.48 97.12 1326.28 97.12C1330.92 97.12 1335.32 96.88 1339.48 96.4C1343.8 95.76 1347.72 94.88 1351.24 93.76ZM1432.35 56.56V96.64H1467.87V101.44H1432.35V194.32C1432.35 201.84 1433.71 207.12 1436.43 210.16C1439.15 213.2 1442.91 214.72 1447.71 214.72C1452.51 214.72 1456.67 212.8 1460.19 208.96C1463.71 204.96 1466.75 198.32 1469.31 189.04L1474.11 190.24C1472.51 199.52 1469.31 207.36 1464.51 213.76C1459.87 220.16 1452.67 223.36 1442.91 223.36C1437.47 223.36 1432.99 222.64 1429.47 221.2C1425.95 219.92 1422.83 218 1420.11 215.44C1416.59 211.76 1414.11 207.36 1412.67 202.24C1411.39 197.12 1410.75 190.32 1410.75 181.84V101.44H1387.71V96.64H1410.75V59.92C1414.75 59.76 1418.59 59.44 1422.27 58.96C1425.95 58.48 1429.31 57.68 1432.35 56.56ZM1602.15 96.4V101.2C1599.11 101.52 1596.31 102.88 1593.75 105.28C1591.19 107.68 1588.79 111.92 1586.55 118L1547.19 221.2H1543.11L1498.95 114.88C1495.91 108.64 1492.87 104.88 1489.83 103.6C1486.95 102.16 1484.55 101.44 1482.63 101.44V96.4C1486.15 96.88 1489.83 97.28 1493.67 97.6C1497.51 97.76 1501.67 97.84 1506.15 97.84C1511.11 97.84 1516.31 97.68 1521.75 97.36C1527.35 97.04 1532.55 96.72 1537.35 96.4V101.44C1533.35 101.44 1529.75 101.76 1526.55 102.4C1523.51 102.88 1521.59 104.56 1520.79 107.44C1519.99 110.16 1520.95 114.88 1523.67 121.6L1553.19 194.8L1551.75 195.28L1579.11 123.76C1581.19 118.48 1581.99 114.32 1581.51 111.28C1581.19 108.08 1579.59 105.68 1576.71 104.08C1573.83 102.48 1569.51 101.52 1563.75 101.2V96.4C1566.63 96.56 1569.11 96.72 1571.19 96.88C1573.27 96.88 1575.27 96.96 1577.19 97.12C1579.27 97.12 1581.51 97.12 1583.91 97.12C1587.59 97.12 1590.87 97.04 1593.75 96.88C1596.79 96.72 1599.59 96.56 1602.15 96.4ZM1547.19 221.2L1539.03 242.08C1537.43 246.08 1535.75 249.44 1533.99 252.16C1532.39 254.88 1530.63 257.12 1528.71 258.88C1526.15 261.28 1523.11 262.88 1519.59 263.68C1516.07 264.64 1512.87 265.12 1509.99 265.12C1506.95 265.12 1504.15 264.56 1501.59 263.44C1499.19 262.32 1497.27 260.64 1495.83 258.4C1494.39 256.32 1493.67 253.76 1493.67 250.72C1493.67 246.88 1494.79 243.76 1497.03 241.36C1499.27 239.12 1502.39 238 1506.39 238C1509.75 238 1512.63 238.96 1515.03 240.88C1517.43 242.8 1518.63 245.6 1518.63 249.28C1518.63 252 1517.99 254.24 1516.71 256C1515.43 257.76 1513.91 259.12 1512.15 260.08C1512.47 260.24 1512.71 260.32 1512.87 260.32C1513.19 260.32 1513.43 260.32 1513.59 260.32C1517.91 260.32 1521.75 258.8 1525.11 255.76C1528.47 252.88 1531.43 248.16 1533.99 241.6L1542.63 219.28L1547.19 221.2Z" fill="#6E3F08"/>
</mask>
<g mask="url(#mask0_16_4486)">
<rect x="-345" y="-14" width="1888" height="248" fill="url(#paint0_linear_16_4486)"/>
</g>
<defs>
<linearGradient id="paint0_linear_16_4486" x1="599" y1="157.14" x2="599" y2="234" gradientUnits="userSpaceOnUse">
<stop/>
<stop offset="1" stop-opacity="0"/>
</linearGradient>
</defs>
</svg>
