<svg width="144" height="144" viewBox="0 0 144 144" fill="none" xmlns="http://www.w3.org/2000/svg">
<rect width="144" height="144" fill="#141B24"/>
<path fill-rule="evenodd" clip-rule="evenodd" d="M64.3773 75.5502C64.3773 79.3471 64.3773 82.6194 64.1733 84.353C64.0046 85.5536 63.7999 86.4604 62.9724 86.6295C62.599 86.7095 62.1009 86.7894 61.4875 86.7894C60.9894 86.7894 60.8302 86.9141 60.8302 87.1185C60.8302 87.4119 61.1141 87.5275 61.657 87.5275C62.4845 87.5275 63.56 87.4472 64.5108 87.4472C65.4983 87.4028 66.4139 87.4028 66.8679 87.4028C67.4901 87.4028 68.7256 87.4472 69.9624 87.5275C71.1626 87.5719 72.3629 87.6518 72.8522 87.6518C80.4541 87.6518 83.8779 83.0637 83.8779 78.6446C83.8779 73.8163 79.7432 70.8821 76.3553 69.7262C78.6229 67.912 80.57 65.885 80.57 62.4971C80.57 60.3097 79.2451 56.2997 71.7671 56.2997C70.3622 56.2997 68.7533 56.4244 66.7256 56.4244C65.8981 56.4244 63.3018 56.2997 61.1053 56.2997C60.4832 56.2997 60.1985 56.3797 60.1985 56.6731C60.1985 56.9666 60.4479 57.0465 60.9013 57.0465C61.4787 57.0465 62.1815 57.0909 62.5109 57.1709C63.8711 57.4643 64.2004 58.1224 64.2892 59.5276C64.3692 60.8522 64.3692 62.0081 64.3692 68.2858V75.5502H64.3773ZM69.3308 58.7801C69.3308 58.3267 69.41 58.1576 69.7035 58.0777C70.1216 57.9977 70.4863 57.9977 71.0644 57.9977C74.6122 57.9977 76.2306 61.6343 76.2306 64.3997C76.2306 66.4271 75.6078 67.912 74.5322 68.7744C73.8301 69.3969 72.9226 69.5572 71.5537 69.5572C70.6021 69.5572 69.9881 69.5124 69.6147 69.4325C69.446 69.3881 69.3213 69.3081 69.3213 68.9791V58.7801H69.3308ZM78.791 80.5117C78.791 84.8064 75.6518 85.8023 73.7935 85.8023C72.842 85.8023 71.8912 85.7579 70.7797 85.3046C69.4636 84.7709 69.3389 84.0684 69.3389 81.3386V71.5486C69.3389 71.344 69.4189 71.264 69.5883 71.264C70.2104 71.264 70.6198 71.264 71.3666 71.3084C72.9762 71.3883 73.9277 71.6818 74.7986 72.3043C77.9201 74.4743 78.791 77.951 78.791 80.5117Z" fill="#CCAF6B"/>
<path fill-rule="evenodd" clip-rule="evenodd" d="M70.0681 14.9702C69.4636 14.8367 68.832 15.0149 68.7696 15.7885L68.7432 16.4198C67.0448 15.2284 68.3433 13.6636 70.1833 14.4727L70.2545 14.2413C70.3257 14.0102 70.2992 14.0726 70.3433 13.9302C70.388 13.8055 70.4415 13.6456 70.6191 13.4857C71.002 13.1299 71.2419 13.139 71.6594 13.1834L71.3212 13.7879C71.0278 14.5171 71.4635 15.184 71.7577 16.1267C72.0511 15.184 72.4862 14.5171 72.1934 13.7879L71.8553 13.1834C72.2727 13.139 72.5126 13.139 72.8956 13.4857C73.0643 13.6459 73.1178 13.8059 73.1626 13.9302C73.2154 14.0726 73.189 14.0194 73.2514 14.2413L73.3225 14.4727C75.1625 13.6636 76.4522 15.2196 74.7627 16.4198L74.7362 15.7885C74.6739 15.0058 74.0429 14.837 73.4384 14.9702C72.087 15.2724 72.0687 16.6865 71.98 17.7712V17.8159L71.9535 17.8423C71.8912 17.967 71.82 18.0114 71.7401 17.9935C71.6689 18.0114 71.5977 17.967 71.5354 17.8512L71.509 17.8159V17.7448C71.4283 16.6689 71.4012 15.2728 70.0681 14.9702Z" fill="#CCAF6B"/>
<path fill-rule="evenodd" clip-rule="evenodd" d="M70.0681 129.096C69.4636 129.229 68.832 129.051 68.7696 128.278L68.7432 127.647C67.0448 128.847 68.3433 130.403 70.1833 129.594L70.2545 129.825C70.3257 130.048 70.2992 129.994 70.3433 130.136C70.388 130.261 70.4415 130.421 70.6191 130.581C71.002 130.937 71.2419 130.928 71.6594 130.883L71.3212 130.278C71.0278 129.55 71.4635 128.883 71.7577 127.94C72.0511 128.883 72.4862 129.55 72.1934 130.278L71.8553 130.883C72.2727 130.928 72.5126 130.928 72.8956 130.581C73.0643 130.421 73.1178 130.261 73.1626 130.136C73.2154 129.994 73.189 130.047 73.2514 129.825L73.3225 129.594C75.1625 130.403 76.4522 128.838 74.7627 127.647L74.7362 128.278C74.6739 129.061 74.0429 129.229 73.4384 129.096C72.087 128.794 72.0687 127.38 71.98 126.295V126.25L71.9535 126.224C71.8912 126.1 71.82 126.055 71.7401 126.073C71.6689 126.064 71.5977 126.099 71.5354 126.215L71.509 126.25V126.322C71.4283 127.398 71.4012 128.803 70.0681 129.096Z" fill="#CCAF6B"/>
<path fill-rule="evenodd" clip-rule="evenodd" d="M120.529 102.021C120.342 102.616 119.88 103.07 119.168 102.732L118.608 102.439C118.795 104.502 120.795 104.164 121.009 102.163L121.249 102.217C121.481 102.27 121.418 102.27 121.569 102.288C121.703 102.314 121.863 102.35 122.085 102.279C122.583 102.119 122.698 101.914 122.867 101.523L122.183 101.514C121.4 101.399 121.045 100.696 120.377 99.9669C121.347 100.18 122.129 100.136 122.619 100.758L122.974 101.354C123.223 101.016 123.347 100.811 123.232 100.296C123.178 100.065 123.072 99.9398 122.982 99.8334C122.885 99.7179 122.92 99.7711 122.76 99.602L122.6 99.4244C124.227 98.233 123.516 96.33 121.63 97.2015L122.164 97.5482C122.813 97.9927 122.644 98.624 122.227 99.0778C121.293 100.1 120.057 99.4065 119.07 98.9443L119.034 98.9263L118.999 98.9351C118.857 98.9263 118.785 98.9707 118.759 99.0418C118.705 99.1039 118.705 99.1838 118.785 99.2997L118.803 99.3441L118.857 99.3797C119.746 99.9849 120.947 100.705 120.529 102.021Z" fill="#CCAF6B"/>
<path fill-rule="evenodd" clip-rule="evenodd" d="M24.0444 41.7255C24.2308 41.1298 24.6937 40.6761 25.4053 41.0143L25.9651 41.3077C25.7787 39.2448 23.7781 39.5826 23.5639 41.5744L23.324 41.53C23.0929 41.4765 23.1553 41.4765 23.0041 41.4589C22.8706 41.4321 22.7107 41.3965 22.4884 41.4677C21.9903 41.6279 21.8751 41.8323 21.6975 42.2233L22.3908 42.2325C23.1736 42.348 23.5287 43.0505 24.1956 43.7797C23.2359 43.5665 22.4437 43.6106 21.955 42.9885L21.5992 42.3927C21.3505 42.7306 21.2258 42.9353 21.3417 43.4507C21.3946 43.6821 21.5017 43.7976 21.5911 43.9044C21.6887 44.0199 21.6535 43.9664 21.8134 44.1443L21.9733 44.3222C20.3461 45.5136 21.0571 47.4163 22.9425 46.536L22.4091 46.1985C21.7599 45.7539 21.9286 45.1222 22.3468 44.66C23.28 43.6374 24.5168 44.3398 25.5036 44.7936L25.5388 44.8115L25.5747 44.8024C25.717 44.8115 25.7882 44.7759 25.8146 44.696C25.8682 44.6336 25.8682 44.5536 25.7882 44.4381L25.7706 44.3934L25.7076 44.3581C24.836 43.7617 23.6358 43.0325 24.0444 41.7255Z" fill="#CCAF6B"/>
<path fill-rule="evenodd" clip-rule="evenodd" d="M21.8124 99.5309C21.3943 99.0687 21.2343 98.4462 21.8748 97.9928L22.4081 97.655C20.5234 96.7834 19.8206 98.6865 21.439 99.8688L21.279 100.047C21.1191 100.224 21.155 100.171 21.0568 100.287C20.9673 100.393 20.8609 100.518 20.8074 100.749C20.6915 101.265 20.8162 101.47 21.0649 101.807L21.4207 101.212C21.9093 100.598 22.7009 100.634 23.6612 100.42C22.9943 101.149 22.6392 101.861 21.8565 101.968L21.1632 101.976C21.3319 102.359 21.4471 102.572 21.9452 102.724C22.1682 102.795 22.3282 102.759 22.4705 102.742C22.6121 102.715 22.5593 102.715 22.7815 102.67L23.0208 102.617C23.2437 104.618 25.2355 104.955 25.4219 102.893L24.8621 103.186C24.1505 103.524 23.6883 103.061 23.5013 102.475C23.0919 101.159 24.3105 100.43 25.1996 99.8074L25.2355 99.7806L25.2444 99.7451C25.3148 99.6295 25.3237 99.5495 25.2708 99.4875C25.2444 99.4164 25.1732 99.3716 25.0397 99.3808L24.995 99.3716L24.9326 99.3984C23.9642 99.8688 22.7456 100.545 21.8124 99.5309Z" fill="#CCAF6B"/>
<path fill-rule="evenodd" clip-rule="evenodd" d="M122.334 44.6424C122.752 45.0958 122.912 45.7274 122.271 46.1808L121.738 46.5187C123.623 47.3899 124.325 45.4872 122.707 44.3046L122.867 44.1267C123.028 43.9491 122.992 44.0023 123.09 43.8868C123.179 43.78 123.285 43.6553 123.339 43.4334C123.454 42.9173 123.33 42.713 123.081 42.3751L122.725 42.9708C122.237 43.5845 121.445 43.5489 120.485 43.7621C121.152 43.0329 121.507 42.3304 122.289 42.2149L122.983 42.206C122.815 41.8235 122.699 41.6103 122.201 41.4589C121.978 41.3877 121.81 41.4233 121.676 41.45C121.524 41.4765 121.587 41.4765 121.356 41.53L121.116 41.5836C120.893 39.5826 118.902 39.2448 118.715 41.3077L119.275 41.0231C119.987 40.6852 120.449 41.1474 120.636 41.7344C121.053 43.0505 119.835 43.7794 118.946 44.4018L118.91 44.4283L118.892 44.4638C118.821 44.5794 118.813 44.6594 118.866 44.7217C118.892 44.7929 118.963 44.8373 119.097 44.8281L119.141 44.8373L119.204 44.8017C120.182 44.3046 121.409 43.6289 122.334 44.6424Z" fill="#CCAF6B"/>
<path fill-rule="evenodd" clip-rule="evenodd" d="M75.918 18.2517C74.896 18.9007 73.6775 19.781 72.6724 20.8033C73.5264 21.8704 74.1397 23.0618 74.2732 24.3424C74.4331 25.8628 73.5087 28.1305 71.748 27.7391C69.9873 28.1305 69.0629 25.872 69.2229 24.3424C69.3564 23.0618 69.9697 21.8704 70.823 20.8033C69.8186 19.781 68.6 18.9007 67.5781 18.2517C63.8784 22.0839 62.8476 28.1305 66.653 32.292C67.9691 33.7321 69.7738 34.9151 71.748 35.6707C73.7134 34.9235 75.527 33.7325 76.8431 32.292C80.658 28.1305 79.6265 22.0839 75.918 18.2517ZM116.358 41.4144C116.305 42.6238 116.154 44.1174 115.772 45.5047C114.42 45.3 113.078 45.3624 111.904 45.887C110.498 46.5094 109.005 48.4389 110.223 49.773C110.757 51.4889 113.184 51.1599 114.42 50.2619C115.46 49.506 116.18 48.3765 116.687 47.1051C118.075 47.4694 119.444 48.0743 120.52 48.6436C119.053 53.7651 114.332 57.6863 108.827 56.4593C106.924 56.0415 104.995 55.072 103.359 53.7383C103.021 51.6577 103.154 49.4971 103.742 47.6385C105.439 42.2591 111.183 40.1254 116.358 41.4144ZM115.318 46.8297C114.918 47.7812 114.367 48.5992 113.62 49.1417C113.282 49.3907 112.082 49.8709 111.655 49.5151L111.468 49.0438L111.148 48.6436C111.059 48.0919 112.073 47.3007 112.454 47.1316C113.308 46.7676 114.296 46.7053 115.318 46.8297ZM117.114 45.7894C117.558 44.1266 117.718 42.3571 117.745 40.9078L117.753 40.3832L117.255 40.2409C111.253 38.4626 104.416 40.9345 102.423 47.221C101.935 48.7859 101.73 50.529 101.819 52.2714C100.681 51.0088 99.8183 49.5507 99.4009 47.9858C98.5829 44.9446 100.672 41.7881 101.819 39.0674C102.699 36.9777 103.366 34.4702 103.42 32.2117C103.491 29.4019 102.272 26.8675 99.7472 25.5162C99.3202 25.2851 98.8668 25.1075 98.4046 24.9649C98.2711 24.8673 98.1288 24.7693 97.9865 24.6894C95.5501 23.1774 92.7491 23.3912 90.3486 24.8585C88.4192 26.0407 86.5778 27.8726 85.2088 29.6777C83.4217 32.025 81.7321 35.4125 78.6912 36.2309C77.1264 36.6487 75.428 36.6311 73.7649 36.2844C75.321 35.4932 76.7265 34.4437 77.838 33.2347C82.2926 28.3707 81.0117 21.213 76.4683 16.9004L76.0949 16.5358L75.6503 16.8024C74.4054 17.5584 72.9476 18.572 71.7379 19.7902C70.5288 18.572 69.0711 17.5584 67.8261 16.8024L67.3815 16.5358L66.9986 16.9004C62.4552 21.2127 61.1838 28.3619 65.6384 33.2347C66.7499 34.4437 68.1548 35.4932 69.7108 36.2844C68.0477 36.6311 66.3494 36.6487 64.794 36.2309C61.7531 35.4125 60.0635 32.025 58.2764 29.6777C56.9067 27.8726 55.0661 26.0407 53.1366 24.8585C50.7355 23.3912 47.9351 23.1869 45.4988 24.6894C45.3036 24.8049 45.1158 24.9384 44.9383 25.0716C44.8319 25.1251 44.7255 25.1783 44.6279 25.2315C42.102 26.5832 40.8842 29.1176 40.9553 31.927C41.0082 34.1855 41.6839 36.6931 42.5554 38.7828C43.7028 41.5035 45.7922 44.6603 44.9735 47.7012C44.5561 49.266 43.6933 50.7241 42.5554 51.9867C42.6442 50.244 42.4402 48.5012 41.9509 46.9364C39.9679 40.6499 33.1304 38.1779 27.1286 39.9563L26.6305 40.1074L26.6386 40.6319C26.6657 42.0812 26.8168 43.8508 27.2702 45.5135C25.6071 45.9581 23.9982 46.7053 22.7262 47.4077L22.264 47.6656L22.3887 48.1722C23.8552 54.2632 29.4125 58.9492 35.8501 57.5176C37.4597 57.1618 39.0605 56.4681 40.5277 55.5169C40.0025 57.1262 39.1669 58.6111 38.0202 59.7581C35.7973 61.981 32.0183 61.7499 29.0838 62.1233C26.8345 62.408 24.3269 63.0836 22.3439 64.1687C19.8716 65.5112 18.2892 67.8317 18.3779 70.6951C18.3867 70.8997 18.3962 71.0953 18.4227 71.2996C18.2092 71.9577 18.0845 72.6425 18.0675 73.3361C17.9781 76.1991 19.5612 78.52 22.0329 79.8625C24.0158 80.9475 26.5234 81.6232 28.7727 81.9079C31.6978 82.2813 35.4774 82.0502 37.7091 84.2731C38.8565 85.4201 39.6826 86.8962 40.2166 88.5058C38.7494 87.5543 37.1398 86.8606 35.539 86.5048C29.1014 85.0823 23.5442 89.7684 22.0776 95.8502L21.9529 96.3571L22.4158 96.6146C23.6872 97.3174 25.2961 98.0731 26.9592 98.5089C26.5146 100.172 26.3635 101.941 26.3282 103.39L26.3194 103.915L26.8175 104.066C32.8194 105.845 39.6568 103.373 41.6398 97.0772C42.138 95.5123 42.3338 93.7692 42.2444 92.0268C43.3829 93.2894 44.245 94.7475 44.6631 96.3124C45.4805 99.3536 43.3911 102.51 42.2444 105.231C41.364 107.32 40.6971 109.828 40.6348 112.095C40.5636 114.905 41.791 117.439 44.3073 118.791C44.6807 118.986 45.0718 119.155 45.4723 119.289L45.4988 119.307C47.9351 120.809 50.7355 120.605 53.1366 119.137C55.0661 117.964 56.9067 116.123 58.2764 114.318C60.0635 111.962 61.7531 108.574 64.794 107.765C66.3588 107.347 68.0572 107.365 69.7108 107.712C68.1548 108.503 66.7499 109.552 65.6384 110.761C61.1838 115.625 62.464 122.783 66.9986 127.095L67.3815 127.46L67.8261 127.184C69.0711 126.438 70.5288 125.415 71.7379 124.197C72.9564 125.415 74.4148 126.428 75.6503 127.184L76.0949 127.46L76.4683 127.095C81.0117 122.783 82.2926 115.625 77.838 110.761C76.7265 109.552 75.321 108.503 73.7649 107.711C75.428 107.365 77.1264 107.347 78.6912 107.765C81.7321 108.583 83.4217 111.971 85.2088 114.318C86.5778 116.123 88.4192 117.955 90.3486 119.137C92.7491 120.604 95.5501 120.809 97.9865 119.306C98.244 119.146 98.5022 118.96 98.7421 118.773C99.0532 118.657 99.3473 118.524 99.6408 118.364C102.166 117.012 103.384 114.478 103.313 111.668C103.251 109.41 102.584 106.902 101.704 104.813C100.556 102.092 98.467 98.9355 99.285 95.8946C99.7031 94.3297 100.565 92.8716 101.704 91.6087C101.614 93.3518 101.81 95.0945 102.308 96.6594C104.291 102.946 111.129 105.417 117.131 103.64L117.629 103.488L117.62 102.964C117.593 101.515 117.442 99.745 116.989 98.0819C118.652 97.6376 120.261 96.8905 121.532 96.188L121.995 95.939L121.871 95.432C120.404 89.3411 114.846 84.655 108.408 86.0867C106.808 86.4425 105.199 87.1361 103.731 88.0873C104.265 86.4781 105.092 84.9932 106.239 83.8461C108.462 81.6232 112.241 81.8543 115.175 81.4809C117.425 81.1963 119.932 80.5206 121.915 79.4359C124.387 78.093 125.97 75.7725 125.881 72.9092C125.872 72.696 125.854 72.4822 125.837 72.2691C125.925 71.8421 125.978 71.4155 125.996 70.9885C126.085 68.1255 124.502 65.8047 122.03 64.4618C120.047 63.3771 117.541 62.7014 115.291 62.4168C112.356 62.0522 108.577 62.2745 106.354 60.0515C105.216 58.9045 104.381 57.4284 103.856 55.8189C105.323 56.7704 106.932 57.464 108.533 57.8195C114.971 59.2424 120.528 54.5563 121.995 48.4745L122.119 47.9675L121.657 47.7185C120.386 46.9808 118.777 46.2339 117.114 45.7894ZM102.096 54.459C102.585 56.9395 103.687 59.2871 105.395 61.0031C107.973 63.5818 111.77 63.3327 115.122 63.7597C117.203 64.0175 119.55 64.6488 121.382 65.6447C122.546 66.276 123.48 67.1652 124.041 68.259C123.605 67.7877 123.107 67.3787 122.537 67.0584C121.791 66.6406 120.964 66.3916 120.11 66.356C114.481 66.0981 112.508 73.4425 116.98 76.5814C117.869 77.2038 118.963 77.5508 120.217 77.4973C121.08 77.4529 121.898 77.2127 122.644 76.7948C123.009 76.5902 123.338 76.3503 123.649 76.0836C123.08 76.9548 122.262 77.6749 121.275 78.2089C119.443 79.2045 117.096 79.8361 115.015 80.094C111.663 80.5206 107.857 80.2715 105.287 82.8502C103.58 84.5574 102.478 86.905 101.989 89.3946C100.086 91.0574 98.6012 93.1824 97.9695 95.5208C97.0268 99.0422 99.1433 102.216 100.451 105.329C101.26 107.258 101.891 109.597 101.944 111.686C101.971 112.904 101.722 114.051 101.171 115.03C101.295 114.523 101.366 113.998 101.357 113.473C101.349 112.611 101.145 111.784 100.753 111.019C97.321 104.386 87.0603 110.308 91.0968 116.604C91.559 117.324 92.1818 117.92 92.9199 118.355C93.3556 118.613 93.8267 118.808 94.3072 118.951C93.2038 118.933 92.0924 118.577 91.0704 117.946C89.2914 116.861 87.5754 115.136 86.3135 113.473C84.2682 110.779 82.5874 107.365 79.0667 106.422C76.7279 105.791 74.1492 106.022 71.7575 106.84C69.3652 106.022 66.7777 105.8 64.4477 106.422C60.927 107.365 59.2374 110.779 57.1927 113.473C55.9295 115.136 54.2135 116.861 52.4358 117.946C52.1865 118.106 51.9201 118.239 51.6619 118.364C52.1336 117.99 52.5423 117.537 52.8716 117.021C56.8993 110.744 46.247 104.243 42.7526 111.01C42.3609 111.775 42.1569 112.611 42.1481 113.464V113.651C42.0587 113.153 42.0146 112.637 42.0234 112.113C42.077 110.023 42.7086 107.676 43.5178 105.755C44.8244 102.634 46.9409 99.4685 45.9982 95.9474C45.3673 93.609 43.8824 91.4928 41.9794 89.8212C41.4901 87.3404 40.3969 84.9928 38.6891 83.2769C36.111 80.6982 32.3138 80.9472 28.953 80.5206C26.8812 80.2627 24.5336 79.6311 22.6936 78.6352C20.9688 77.6928 19.7591 76.2076 19.5009 74.3317C20.0614 75.2209 20.817 75.9857 21.7509 76.5102C22.4978 76.928 23.3246 77.1771 24.1785 77.2127C31.5229 77.5593 31.567 66.4356 23.8674 66.7914C23.0047 66.8358 22.1867 67.0673 21.431 67.4939C20.9505 67.7697 20.506 68.1076 20.1149 68.4989C20.6307 67.1652 21.6621 66.0981 23.0047 65.3601C24.8366 64.3642 27.1835 63.7417 29.2648 63.475C32.6167 63.0481 36.4221 63.2971 38.992 60.7184C40.6992 59.0113 41.8018 56.664 42.2904 54.1741C44.1935 52.5113 45.6783 50.3863 46.31 48.0478C47.2527 44.5268 45.1362 41.3524 43.8295 38.2403C43.0203 36.3105 42.3887 33.9632 42.3352 31.8826C42.4328 32.2469 42.5751 32.6027 42.7533 32.9497C46.1853 39.5828 57.247 33.3055 53.1827 26.9655C52.9516 26.6009 52.6758 26.2627 52.3647 25.9696L52.4277 26.014C54.206 27.099 55.922 28.8238 57.1846 30.4865C59.2293 33.1808 60.9188 36.5951 64.4396 37.5378C66.7783 38.1603 69.3571 37.938 71.7487 37.1197C74.141 37.938 76.7286 38.1603 79.0586 37.5378C82.5793 36.5951 84.2688 33.1808 86.3054 30.4865C87.5679 28.8238 89.2839 27.0986 91.0622 26.014C92.005 25.4359 93.0181 25.0892 94.032 25.0272C93.685 25.1516 93.338 25.3118 93.0181 25.507C92.2801 25.9428 91.6573 26.5385 91.1951 27.2586C87.1227 33.6162 97.2945 39.6272 100.745 32.9582C101.136 32.1937 101.34 31.3577 101.349 30.5042C101.357 29.7841 101.233 29.0813 101.002 28.4056C101.74 29.4639 102.078 30.78 102.043 32.1761C101.99 34.2655 101.357 36.6128 100.549 38.5334C99.2416 41.6458 97.1251 44.8199 98.0678 48.3413C98.7082 50.6709 100.184 52.7963 102.096 54.459ZM124.45 72.1803C124.094 73.5852 123.231 74.8834 121.969 75.5946C121.409 75.906 120.795 76.0927 120.146 76.1192C114.757 76.3686 114.464 67.4678 120.039 67.7253C120.679 67.7521 121.292 67.9388 121.862 68.2499C123.276 69.0503 124.192 70.5887 124.45 72.1803ZM97.792 26.2098C96.4318 25.854 94.9381 25.9696 93.7291 26.6896C93.1774 27.0187 92.7064 27.4544 92.3594 27.997C89.496 32.4692 96.9387 37.342 99.5269 32.3181C99.8204 31.7491 99.9708 31.1266 99.9803 30.4774C100.007 28.815 99.0905 27.2233 97.792 26.2098ZM124.912 57.6331C124.041 59.3227 122.476 60.6388 120.484 61.1366C118.492 61.6347 116.491 61.2077 114.927 60.1319C115.798 58.4423 117.363 57.1262 119.355 56.6284C121.347 56.1306 123.347 56.5572 124.912 57.6331ZM123.418 58.0157C122.627 59.0468 121.515 59.7852 120.226 60.1051C118.937 60.4253 117.604 60.3006 116.429 59.7581C117.221 58.7266 118.342 57.9886 119.622 57.6687C120.902 57.34 122.236 57.4732 123.418 58.0157ZM110.819 33.2252C108.916 33.1364 106.995 33.8389 105.572 35.3061C104.15 36.7818 103.518 38.7296 103.67 40.6231C105.564 40.7123 107.493 40.0098 108.916 38.5425C110.339 37.0665 110.969 35.1194 110.819 33.2252ZM109.752 34.3366C108.463 34.5057 107.262 35.1014 106.346 36.053C105.43 37.0041 104.87 38.2223 104.746 39.5117C106.036 39.3426 107.236 38.7472 108.152 37.7957C109.067 36.8442 109.627 35.6263 109.752 34.3366ZM27.7162 102.866C27.769 101.648 27.9208 100.163 28.3031 98.7755C29.6633 98.9802 30.997 98.9179 32.1708 98.3933C33.5757 97.7708 35.0694 95.8414 33.842 94.5164C33.2999 92.8005 30.8811 93.1203 29.6456 94.0275C28.6053 94.7831 27.8849 95.9125 27.378 97.1843C25.9907 96.8196 24.6217 96.2148 23.5455 95.6458C25.0121 90.5243 29.7337 86.6119 35.2381 87.8301C37.1412 88.2479 39.0794 89.217 40.7066 90.5508C41.0448 92.6317 40.9201 94.7923 40.3332 96.6506C38.6348 102.021 32.8912 104.155 27.7162 102.866ZM28.7565 97.4506C29.1563 96.4991 29.708 95.6811 30.4548 95.1386C30.793 94.8895 31.9837 94.4094 32.4195 94.7563L32.6066 95.2277L32.9265 95.6279C33.0247 96.1792 32.002 96.9704 31.6198 97.1395C30.7659 97.513 29.7791 97.5753 28.7565 97.4506ZM19.8384 71.4243C20.2742 70.2864 21.0475 69.2814 22.1054 68.6856C22.6658 68.3654 23.2792 68.1875 23.9284 68.1519C29.0059 67.9208 29.8503 76.0924 24.2395 75.8257C23.5991 75.7989 22.9857 75.6126 22.4164 75.3012C21.0115 74.5187 20.1048 72.9983 19.8384 71.4243ZM46.0687 118.008C47.4824 118.426 49.0737 118.346 50.3458 117.591C50.8968 117.262 51.3678 116.817 51.7148 116.274C54.6316 111.722 46.5573 106.644 43.9705 111.633C43.6771 112.202 43.5259 112.825 43.5164 113.473C43.49 115.297 44.5838 117.022 46.0687 118.008ZM19.162 86.6383C20.0336 84.9488 21.5984 83.633 23.5902 83.1349C25.5814 82.6371 27.582 83.0637 29.1475 84.1399C28.276 85.8291 26.7111 87.1453 24.7193 87.6434C22.7275 88.1408 20.7269 87.723 19.162 86.6383ZM20.6557 86.2649C21.4473 85.2334 22.5588 84.4954 23.8485 84.1752C25.1287 83.8549 26.4624 83.9797 27.645 84.5222C26.8534 85.5536 25.742 86.2917 24.453 86.6116C23.1728 86.9318 21.8383 86.8071 20.6557 86.2649ZM33.2558 111.055C35.1494 111.144 37.0788 110.441 38.502 108.974C39.9245 107.498 40.565 105.551 40.4139 103.657C38.5115 103.568 36.5909 104.27 35.1677 105.738C33.7356 107.214 33.104 109.161 33.2558 111.055ZM34.3225 109.944C35.6122 109.775 36.803 109.179 37.7281 108.228C38.6443 107.276 39.2041 106.058 39.3288 104.769C38.0391 104.938 36.8477 105.533 35.9233 106.485C35.0077 107.427 34.4466 108.654 34.3225 109.944ZM23.8573 48.3504C24.9328 47.7903 26.3025 47.1766 27.6897 46.812C28.1879 48.0838 28.9164 49.2128 29.9567 49.9688C31.2017 50.8756 33.6204 51.1958 34.1538 49.4799C35.3723 48.1549 33.878 46.2255 32.4731 45.5938C31.2993 45.0781 29.9567 45.0161 28.6053 45.2116C28.2224 43.8243 28.0713 42.3306 28.0184 41.1216C33.1847 39.8322 38.9378 41.9572 40.6361 47.3369C41.2224 49.1952 41.3559 51.3558 41.0096 53.4367C39.3729 54.7704 37.4434 55.7396 35.5411 56.1574C30.0455 57.3844 25.3238 53.4719 23.8573 48.3504ZM29.0675 46.5454C30.0902 46.4207 31.077 46.4833 31.9214 46.8564C32.3043 47.0255 33.327 47.8167 33.2287 48.3684L32.9176 48.7686L32.7306 49.2399C32.3043 49.5957 31.1122 49.1064 30.7747 48.8574C30.0279 48.3145 29.4769 47.4877 29.0675 46.5454ZM45.66 26.2451C47.2249 25.5426 49.1632 25.5162 50.648 26.3962C51.199 26.7252 51.67 27.1701 52.017 27.7123C55.0491 32.434 46.5133 37.2532 43.961 32.3184C43.6676 31.7495 43.5164 31.127 43.5076 30.4777C43.49 28.8329 44.388 27.2589 45.66 26.2451ZM33.6292 32.8253C35.5228 32.7362 37.4522 33.439 38.8754 34.9059C40.298 36.382 40.9296 38.3206 40.7785 40.2233C38.8842 40.3124 36.9548 39.6096 35.5316 38.1339C34.1091 36.6663 33.4781 34.7192 33.6292 32.8253ZM34.7055 33.9368C35.9945 34.1059 37.1954 34.7016 38.111 35.6528C39.0266 36.6043 39.587 37.8225 39.7111 39.1206C38.4214 38.9515 37.2211 38.3562 36.3055 37.4047C35.3811 36.444 34.8295 35.2261 34.7055 33.9368ZM19.5355 57.2333C20.407 58.9228 21.9719 60.2386 23.963 60.7367C25.9548 61.2345 27.9554 60.8079 29.5209 59.732C28.6494 58.0425 27.0845 56.7263 25.0927 56.2374C23.1009 55.7304 21.1003 56.1574 19.5355 57.2333ZM21.0292 57.6067C21.8207 58.6382 22.9322 59.3762 24.2219 59.6961C25.5109 60.016 26.8446 59.8916 28.0184 59.3491C27.2269 58.3179 26.1066 57.5796 24.8264 57.2597C23.5462 56.9395 22.2118 57.073 21.0292 57.6067ZM120.413 95.2101C119.337 95.779 117.968 96.3835 116.58 96.7481C116.082 95.4768 115.353 94.3477 114.313 93.5917C113.077 92.6849 110.65 92.3555 110.116 94.0807C108.898 95.4053 110.392 97.3439 111.797 97.9663C112.971 98.4909 114.304 98.5532 115.665 98.3489C116.048 99.7359 116.198 101.23 116.252 102.439C111.085 103.728 105.332 101.603 103.634 96.2144C103.047 94.3562 102.922 92.1956 103.26 90.1147C104.896 88.7809 106.826 87.8118 108.729 87.394C114.233 86.1761 118.946 90.097 120.413 95.2101ZM115.202 97.0152C114.18 97.1395 113.192 97.0772 112.348 96.7038C111.966 96.5347 110.943 95.7434 111.041 95.1921L111.352 94.8007L111.539 94.3294C111.966 93.9736 113.157 94.4629 113.495 94.712C114.251 95.2457 114.803 96.0725 115.202 97.0152ZM98.059 117.537C96.6094 118.017 94.9381 117.946 93.622 117.164C93.0703 116.835 92.5993 116.399 92.253 115.857C89.2914 111.251 97.0099 106.769 99.5262 111.642C99.8197 112.211 99.9708 112.833 99.9796 113.483C100.007 115.03 99.2152 116.515 98.059 117.537ZM110.65 110.735C108.747 110.824 106.826 110.122 105.403 108.654C103.98 107.187 103.349 105.231 103.5 103.337C105.395 103.248 107.324 103.951 108.747 105.427C110.17 106.894 110.801 108.841 110.65 110.735ZM109.574 109.624C108.284 109.455 107.084 108.859 106.169 107.907C105.243 106.956 104.692 105.738 104.568 104.449C105.857 104.618 107.058 105.213 107.973 106.165C108.898 107.116 109.449 108.334 109.574 109.624ZM124.743 86.3273C123.872 84.6377 122.307 83.3216 120.315 82.8326C118.323 82.3348 116.323 82.7615 114.758 83.8373C115.629 85.5269 117.203 86.843 119.186 87.3411C121.178 87.8298 123.178 87.4031 124.743 86.3273ZM123.24 85.9535C122.449 84.922 121.328 84.184 120.048 83.8641C118.768 83.5439 117.434 83.6686 116.252 84.2107C117.042 85.2422 118.163 85.9803 119.444 86.3001C120.733 86.6204 122.066 86.4869 123.24 85.9535ZM85.7795 125.007C86.8015 123.406 87.1579 121.388 86.5968 119.422C86.0275 117.449 84.668 115.928 82.9425 115.119C81.9199 116.719 81.5641 118.738 82.1245 120.703C82.6938 122.668 84.0635 124.188 85.7795 125.007ZM85.3525 123.53C85.8506 122.33 85.9306 120.996 85.566 119.716C85.2014 118.444 84.4281 117.351 83.3695 116.595C82.8714 117.795 82.7914 119.129 83.156 120.4C83.5213 121.681 84.2946 122.774 85.3525 123.53ZM85.7795 18.9542C86.8015 20.5546 87.1579 22.5644 86.5968 24.5382C86.0275 26.5121 84.668 28.0325 82.9425 28.8505C81.9199 27.2501 81.5641 25.2315 82.1245 23.2665C82.6938 21.2838 84.0635 19.7719 85.7795 18.9542ZM85.3525 20.4299C85.8506 21.6305 85.9306 22.9642 85.566 24.236C85.2014 25.5074 84.4281 26.6009 83.3695 27.3569C82.8714 26.1566 82.7914 24.8229 83.156 23.5423C83.5213 22.2797 84.2946 21.1859 85.3525 20.4299ZM57.5926 125.007C56.5699 123.406 56.2141 121.388 56.7746 119.422C57.3344 117.449 58.704 115.928 60.42 115.119C61.4427 116.719 61.7985 118.738 61.238 120.703C60.6775 122.668 59.3086 124.188 57.5926 125.007ZM58.0189 123.53C57.5207 122.33 57.4408 120.996 57.8054 119.716C58.1707 118.444 58.944 117.351 60.0019 116.595C60.5 117.795 60.58 119.129 60.2153 120.4C59.8514 121.681 59.0775 122.774 58.0189 123.53ZM57.5926 18.9542C56.5699 20.5546 56.2141 22.5644 56.7746 24.5382C57.3344 26.5121 58.704 28.0325 60.42 28.8505C61.4427 27.2501 61.7985 25.2315 61.238 23.2665C60.6775 21.2838 59.3086 19.7719 57.5926 18.9542ZM58.0189 20.4299C57.5207 21.6305 57.4408 22.9642 57.8054 24.236C58.1707 25.5074 58.944 26.6009 60.0019 27.3569C60.5 26.1566 60.58 24.8229 60.2153 23.5423C59.8514 22.2797 59.0775 21.1859 58.0189 20.4299ZM67.5781 125.709C68.6095 125.06 69.8186 124.179 70.823 123.157C69.9697 122.09 69.3564 120.889 69.2229 119.618C69.0629 118.088 69.9873 115.83 71.748 116.221C73.5087 115.83 74.4331 118.088 74.2732 119.618C74.1397 120.889 73.5169 122.081 72.6724 123.157C73.6863 124.179 74.896 125.06 75.918 125.709C79.617 121.876 80.6485 115.83 76.8431 111.668C75.527 110.228 73.7215 109.045 71.748 108.29C69.7738 109.037 67.9691 110.228 66.653 111.668C62.8476 115.83 63.8784 121.877 67.5781 125.709ZM71.748 122.099C72.3702 121.281 72.806 120.382 72.9042 119.467C72.9483 119.049 72.7707 117.777 72.255 117.582L71.748 117.653L71.2499 117.582C70.7247 117.769 70.5559 119.049 70.6007 119.467C70.6901 120.382 71.1347 121.281 71.748 122.099ZM71.748 21.8616C71.1252 22.6884 70.6894 23.5688 70.5919 24.4935C70.5478 24.9117 70.7254 26.183 71.2411 26.3786L71.7392 26.3077L72.2462 26.3786C72.7619 26.183 72.9395 24.9117 72.8954 24.4935C72.806 23.5688 72.3702 22.6884 71.748 21.8616Z" fill="#CCAF6B"/>
<path fill-rule="evenodd" clip-rule="evenodd" d="M56.33 41.7525C56.6682 39.8854 56.2236 37.8848 54.9516 36.2844C53.6802 34.6748 51.8307 33.7944 49.9365 33.6968C49.6078 35.5639 50.0435 37.5649 51.3149 39.1653C52.587 40.7742 54.4365 41.6546 56.33 41.7525ZM54.1166 36.9421C54.9434 37.9824 55.3792 39.245 55.3704 40.5431C54.1071 40.2497 52.9692 39.5384 52.1424 38.4981C51.3156 37.4666 50.8893 36.1949 50.8893 34.8967C52.16 35.1905 53.2891 35.9018 54.1166 36.9421Z" fill="#CCAF6B"/>
<path fill-rule="evenodd" clip-rule="evenodd" d="M94.1744 110.006C94.5031 108.139 94.0673 106.138 92.7959 104.537C91.5238 102.928 89.6744 102.048 87.7801 101.95C87.442 103.817 87.8872 105.818 89.1586 107.418C90.4307 109.019 92.2802 109.908 94.1744 110.006ZM91.9596 105.195C92.7776 106.227 93.2134 107.498 93.2134 108.796C91.9508 108.503 90.8122 107.791 89.9949 106.751C89.1674 105.711 88.7317 104.448 88.7411 103.15C90.0037 103.443 91.1328 104.155 91.9596 105.195Z" fill="#CCAF6B"/>
<path fill-rule="evenodd" clip-rule="evenodd" d="M115.941 71.8778C114.918 70.2774 113.237 69.1124 111.21 68.8013C109.182 68.4899 107.227 69.0944 105.769 70.3129C106.791 71.9134 108.472 73.0872 110.499 73.3982C112.526 73.7005 114.482 73.096 115.941 71.8778ZM111.05 69.8504C112.357 70.0551 113.54 70.6864 114.421 71.6467C113.291 72.2956 111.975 72.5447 110.668 72.3403C109.361 72.1357 108.178 71.5044 107.298 70.544C108.418 69.8948 109.734 69.6549 111.05 69.8504Z" fill="#CCAF6B"/>
<path fill-rule="evenodd" clip-rule="evenodd" d="M38.3154 72.6604C37.2216 71.1043 35.488 70.0105 33.4515 69.797C31.4149 69.5751 29.4861 70.2684 28.0806 71.5489C29.1744 73.1046 30.908 74.1896 32.9445 74.4207C34.9811 74.6342 36.9105 73.9409 38.3154 72.6604ZM33.3356 70.8553C34.6517 70.9973 35.8607 71.5753 36.7858 72.5001C35.6832 73.1937 34.3847 73.5051 33.0686 73.354C31.7524 73.2117 30.5434 72.6248 29.619 71.718C30.7128 71.0152 32.0201 70.7129 33.3356 70.8553Z" fill="#CCAF6B"/>
<path fill-rule="evenodd" clip-rule="evenodd" d="M55.5655 101.754C53.6808 102.012 51.9106 103.043 50.7727 104.742C49.6348 106.44 49.359 108.476 49.8483 110.308C51.733 110.059 53.5025 109.027 54.6404 107.32C55.7702 105.613 56.046 103.586 55.5655 101.754ZM51.6625 105.328C52.3911 104.226 53.4673 103.426 54.7034 103.026C54.8098 104.324 54.4805 105.613 53.7431 106.716C53.0051 107.818 51.9377 108.618 50.7022 109.019C50.5951 107.729 50.9245 106.431 51.6625 105.328Z" fill="#CCAF6B"/>
<path fill-rule="evenodd" clip-rule="evenodd" d="M94.0936 33.8387C92.2089 34.0877 90.4387 35.1192 89.3008 36.8264C88.1629 38.5332 87.8871 40.5521 88.3764 42.3925C90.2523 42.1434 92.0307 41.1119 93.1685 39.4051C94.3078 37.7064 94.5829 35.6794 94.0936 33.8387ZM90.1907 37.4221C90.9287 36.3198 92.0042 35.5194 93.2404 35.128C93.3475 36.4262 93.0181 37.7156 92.2807 38.8182C91.5427 39.9208 90.4753 40.7209 89.2398 41.1214C89.1233 39.8229 89.4526 38.5247 90.1907 37.4221Z" fill="#CCAF6B"/>
<path fill-rule="evenodd" clip-rule="evenodd" d="M72.0335 41.3969C55.1394 41.3969 41.4543 55.0904 41.4543 71.9757C41.4543 88.8702 55.1475 102.555 72.0335 102.555C88.9187 102.555 102.613 88.8613 102.613 71.9757C102.621 55.0904 88.9275 41.3969 72.0335 41.3969ZM72.0335 43.1311C87.9679 43.1311 100.887 56.0508 100.887 71.9849C100.887 87.9186 87.9679 100.839 72.0335 100.839C56.0997 100.839 43.1797 87.9186 43.1797 71.9849C43.1885 56.0419 56.099 43.1311 72.0335 43.1311Z" fill="#CCAF6B"/>
<path fill-rule="evenodd" clip-rule="evenodd" d="M72.0331 37.5734C53.0314 37.5734 37.631 52.9741 37.631 71.9756C37.631 90.9774 53.0314 106.378 72.0331 106.378C91.0356 106.378 106.436 90.9774 106.436 71.9756C106.435 52.9829 91.0349 37.5734 72.0331 37.5734ZM72.0331 38.6848C90.4216 38.6848 105.333 53.5874 105.333 71.9756C105.333 90.3637 90.4216 105.266 72.0331 105.266C53.6454 105.266 38.7424 90.3637 38.7424 71.9756C38.7424 53.5966 53.6454 38.6848 72.0331 38.6848Z" fill="#CCAF6B"/>
<path fill-rule="evenodd" clip-rule="evenodd" d="M71.7485 29.3306C72.984 29.3306 73.9802 30.3265 73.9802 31.5627C73.9802 32.7985 72.984 33.7944 71.7485 33.7944C70.5211 33.7944 69.5168 32.7985 69.5168 31.5627C69.5168 30.3357 70.5211 29.3306 71.7485 29.3306Z" fill="#CCAF6B"/>
<path fill-rule="evenodd" clip-rule="evenodd" d="M48.0339 27.81C49.1901 27.81 50.1233 28.7436 50.1233 29.8994C50.1233 31.0549 49.1901 31.9888 48.0339 31.9888C46.8784 31.9888 45.9445 31.0549 45.9445 29.8994C45.9445 28.7436 46.8784 27.81 48.0339 27.81Z" fill="#CCAF6B"/>
<path fill-rule="evenodd" clip-rule="evenodd" d="M24.1065 69.9838C25.2626 69.9838 26.1959 70.9177 26.1959 72.0735C26.1959 73.2293 25.2626 74.1629 24.1065 74.1629C22.9503 74.1629 22.0171 73.229 22.0171 72.0735C22.0171 70.9177 22.9503 69.9838 24.1065 69.9838Z" fill="#CCAF6B"/>
<path fill-rule="evenodd" clip-rule="evenodd" d="M95.8812 28.2282C97.0374 28.2282 97.9706 29.1618 97.9706 30.3176C97.9706 31.4735 97.0374 32.407 95.8812 32.407C94.7251 32.407 93.7919 31.4731 93.7919 30.3176C93.7912 29.1614 94.7251 28.2282 95.8812 28.2282Z" fill="#CCAF6B"/>
<path fill-rule="evenodd" clip-rule="evenodd" d="M120.058 69.8239C121.214 69.8239 122.147 70.7574 122.147 71.9132C122.147 73.0691 121.214 74.0026 120.058 74.0026C118.902 74.0026 117.969 73.0691 117.969 71.9132C117.968 70.7574 118.902 69.8239 120.058 69.8239Z" fill="#CCAF6B"/>
<path fill-rule="evenodd" clip-rule="evenodd" d="M95.7928 111.686C96.9483 111.686 97.8822 112.62 97.8822 113.776C97.8822 114.932 96.9483 115.865 95.7928 115.865C94.6367 115.865 93.7028 114.932 93.7028 113.776C93.7116 112.62 94.6455 111.686 95.7928 111.686Z" fill="#CCAF6B"/>
<path fill-rule="evenodd" clip-rule="evenodd" d="M47.8028 111.855C48.959 111.855 49.8922 112.789 49.8922 113.945C49.8922 115.101 48.959 116.034 47.8028 116.034C46.6473 116.034 45.7134 115.101 45.7134 113.945C45.7134 112.789 46.6473 111.855 47.8028 111.855Z" fill="#CCAF6B"/>
<path fill-rule="evenodd" clip-rule="evenodd" d="M107.298 49.2572C108.535 49.2572 109.53 50.2531 109.53 51.4893C109.53 52.7251 108.535 53.721 107.298 53.721C106.063 53.721 105.067 52.7251 105.067 51.4893C105.067 50.2531 106.062 49.2572 107.298 49.2572Z" fill="#CCAF6B"/>
<path fill-rule="evenodd" clip-rule="evenodd" d="M107.067 90.1416C108.294 90.1416 109.299 91.1372 109.299 92.3733C109.299 93.6003 108.302 94.6054 107.067 94.6054C105.831 94.6054 104.835 93.6095 104.835 92.3733C104.835 91.1372 105.84 90.1416 107.067 90.1416Z" fill="#CCAF6B"/>
<path fill-rule="evenodd" clip-rule="evenodd" d="M71.6062 110.504C72.8417 110.504 73.8379 111.5 73.8379 112.736C73.8379 113.963 72.8417 114.967 71.6062 114.967C70.3707 114.967 69.3745 113.972 69.3745 112.736C69.3745 111.5 70.3788 110.504 71.6062 110.504Z" fill="#CCAF6B"/>
<path fill-rule="evenodd" clip-rule="evenodd" d="M37.0173 90.248C38.2446 90.248 39.249 91.244 39.249 92.4801C39.249 93.7159 38.2534 94.7118 37.0173 94.7118C35.7818 94.7118 34.7856 93.7159 34.7856 92.4801C34.7944 91.244 35.7906 90.248 37.0173 90.248Z" fill="#CCAF6B"/>
<path fill-rule="evenodd" clip-rule="evenodd" d="M37.5238 48.9459C38.76 48.9459 39.7556 49.9415 39.7556 51.1776C39.7556 52.4138 38.76 53.4097 37.5238 53.4097C36.2884 53.4097 35.2921 52.4138 35.2921 51.1776C35.2921 49.9415 36.2884 48.9459 37.5238 48.9459Z" fill="#CCAF6B"/>
<path fill-rule="evenodd" clip-rule="evenodd" d="M69.1969 40.7654C67.8896 40.8809 67.4362 39.0403 66.0848 39.2182C64.7951 39.5204 64.9375 41.4143 63.6573 41.7701C62.394 42.1167 61.6207 40.3828 60.3229 40.8006C59.1044 41.3252 59.5849 43.1747 58.3934 43.7439C57.2108 44.3129 56.1441 42.748 54.9344 43.3969C53.8317 44.1262 54.6321 45.8601 53.5559 46.6425C52.4892 47.4161 51.1642 46.0644 50.0975 46.918C49.1372 47.834 50.2398 49.3988 49.3242 50.3591C48.4175 51.3106 46.8614 50.2168 45.9635 51.2395C45.1895 52.3153 46.5497 53.6491 45.8116 54.7605C45.0912 55.854 43.3665 55.0628 42.6637 56.2278C42.0944 57.4284 43.6687 58.4951 43.1442 59.7224C42.6284 60.9315 40.7877 60.4513 40.3079 61.7319C39.9616 63.0124 41.704 63.7857 41.4106 65.0754C41.1171 66.3559 39.2236 66.2133 38.983 67.565C38.8678 68.8899 40.7261 69.3345 40.6644 70.6594C40.6014 71.9664 38.7166 72.1711 38.7166 73.5312C38.8413 74.8562 40.7444 74.9629 40.9219 76.2787C41.1002 77.5769 39.2771 78.1106 39.517 79.4531C39.8721 80.7337 41.7664 80.5026 42.1757 81.7651C42.585 83.0186 40.886 83.8633 41.3577 85.1439C41.9358 86.3357 43.7588 85.7755 44.3898 86.9402C45.0126 88.096 43.4918 89.2342 44.1946 90.408C44.9767 91.4751 46.6662 90.5948 47.4931 91.6351C48.3111 92.6665 47.022 94.0538 47.9193 95.085C48.8797 96.0009 50.3917 94.8274 51.3872 95.6986C52.3746 96.561 51.352 98.1618 52.4194 99.015C53.5308 99.7443 54.8022 98.3214 55.9401 99.0062C57.0699 99.6819 56.3494 101.442 57.5497 102.083C58.7682 102.599 59.7733 100.98 61.0182 101.443C62.2449 101.905 61.8539 103.763 63.1517 104.182C64.4414 104.475 65.1435 102.697 66.442 102.928C67.731 103.159 67.6775 105.062 69.0295 105.24C70.3544 105.302 70.7191 103.426 72.0528 103.426C73.3689 103.426 73.6447 105.302 75.0137 105.24C76.3299 105.062 76.3563 103.15 77.6636 102.91C78.9526 102.679 79.566 104.466 80.9004 104.173C82.163 103.755 81.8431 101.879 83.0874 101.407C84.3228 100.945 85.2391 102.599 86.5017 102.065C87.666 101.434 87.0262 99.6379 88.1641 98.9534C89.2939 98.2777 90.4941 99.7446 91.6408 98.9978C92.673 98.1709 91.7208 96.517 92.7163 95.6454C93.7038 94.783 95.1527 96.01 96.1402 95.0673C97.0117 94.0626 95.7756 92.6133 96.6024 91.573C97.4204 90.5416 99.0652 91.4927 99.8656 90.3904C100.541 89.2522 99.0652 88.0428 99.6968 86.8694C100.32 85.7132 102.107 86.3533 102.702 85.1263C103.165 83.8813 101.502 82.9569 101.912 81.6943C102.32 80.4405 104.187 80.752 104.552 79.4358C104.783 78.1285 102.978 77.5152 103.157 76.1991C103.334 74.9009 105.228 74.8653 105.352 73.5048C105.352 72.1799 103.459 71.8952 103.405 70.5706C103.343 69.2633 105.211 68.8899 105.086 67.5294C104.846 66.2224 102.943 66.2844 102.641 64.9954C102.347 63.7149 104.117 63.0216 103.752 61.7054C103.281 60.4605 101.413 60.8607 100.898 59.6425C100.383 58.4334 101.992 57.4375 101.405 56.2014C100.72 55.0635 98.9595 55.7924 98.2309 54.6809C97.5105 53.5874 98.9154 52.316 98.115 51.2046C97.2347 50.2087 95.6346 51.2398 94.7183 50.2795C93.8115 49.3283 94.967 47.8255 93.9803 46.8831C92.94 46.0563 91.5439 47.3633 90.4677 46.5809C89.401 45.8072 90.2806 44.1265 89.1427 43.3709C87.9689 42.7484 86.8311 44.2692 85.6301 43.6999C84.4482 43.1309 85.008 41.3167 83.7542 40.7742C82.4916 40.3655 81.6384 42.0815 80.3575 41.7257C79.0861 41.379 79.3172 39.4936 77.9828 39.1914C76.6674 39.0138 76.1333 40.8545 74.8091 40.7298C73.5018 40.6142 73.3865 38.72 72.0257 38.658C70.717 38.7471 70.5123 40.6498 69.1969 40.7654ZM69.2674 41.5302C70.921 41.379 71.3039 39.4848 72.0602 39.4493C72.8064 39.4848 73.1087 41.3699 74.7542 41.521C76.3902 41.6634 77.1282 39.8762 77.875 39.9738C78.6043 40.1429 78.5602 42.0547 80.1603 42.4902C81.7611 42.9347 82.7831 41.2987 83.5035 41.5298C84.1886 41.823 83.8057 43.6992 85.3001 44.4196C86.7938 45.14 88.0923 43.7084 88.7585 44.073C89.3813 44.4908 88.6697 46.2603 90.0123 47.2382C91.3548 48.2162 92.902 47.0515 93.4801 47.5141C94.0054 48.021 92.9996 49.6479 94.147 50.8484C95.2944 52.049 97.0103 51.1687 97.5085 51.7376C97.9531 52.3513 96.6545 53.7474 97.5708 55.1431C98.4864 56.5304 100.336 55.9699 100.727 56.6192C101.048 57.2861 99.5355 58.4687 100.185 59.98C100.834 61.5004 102.755 61.2873 103.021 61.9897C103.216 62.719 101.519 63.5814 101.883 65.1997C102.257 66.8181 104.186 66.9425 104.32 67.6893C104.382 68.4362 102.559 68.9875 102.63 70.6415C102.709 72.2954 104.577 72.7668 104.577 73.5224C104.506 74.2693 102.612 74.4827 102.381 76.1276C102.167 77.728 103.919 78.5728 103.785 79.3108C103.581 80.0312 101.678 79.9065 101.163 81.4805C100.647 83.0633 102.238 84.1568 101.981 84.8684C101.652 85.5441 99.8025 85.0727 99.011 86.54C98.2194 87.9981 99.5891 89.3674 99.2062 90.0163C98.7616 90.6212 97.028 89.8296 95.9877 91.1278C94.9562 92.4259 96.05 94.0088 95.5607 94.5868C95.0185 95.1026 93.4449 94.0088 92.1999 95.1026C90.9462 96.1964 91.7553 97.9483 91.1596 98.4281C90.5287 98.8371 89.1854 97.4858 87.7541 98.3394C86.3316 99.1838 86.8026 101.06 86.1357 101.425C85.4424 101.718 84.3574 100.144 82.8014 100.731C81.2453 101.318 81.3788 103.239 80.6672 103.478C79.9475 103.638 79.1112 101.904 77.5111 102.198C75.8744 102.491 75.6704 104.412 74.9148 104.518C74.1679 104.545 73.7057 102.696 72.0426 102.696C70.3795 102.696 69.8285 104.546 69.0729 104.518C68.326 104.412 68.2013 102.509 66.5741 102.216C64.9558 101.922 64.0578 103.638 63.3286 103.469C62.6176 103.238 62.8304 101.335 61.2744 100.757C59.7184 100.17 58.5534 101.709 57.8608 101.415C57.2027 101.051 57.7537 99.2278 56.3223 98.3743C54.8998 97.5207 53.4773 98.8276 52.8457 98.4098C52.2594 97.9385 53.1303 96.2401 51.8765 95.1463C50.6228 94.0528 48.9956 95.0843 48.4446 94.5594C47.9553 93.9905 49.1114 92.4788 48.08 91.1806C47.0478 89.8825 45.2519 90.6026 44.808 89.9889C44.425 89.34 45.8394 88.0594 45.0479 86.5925C44.2563 85.1253 42.3709 85.5254 42.0334 84.841C41.7759 84.1385 43.3942 83.125 42.8778 81.5422C42.3621 79.9682 40.4326 80.0126 40.2279 79.2833C40.0951 78.5633 41.8646 77.7897 41.6505 76.1892C41.4282 74.5444 39.517 74.2422 39.4547 73.4862C39.4628 72.7393 41.3306 72.3568 41.4018 70.7031C41.4729 69.0404 39.6499 68.4091 39.7122 67.6534C39.8545 66.9154 41.7569 66.8798 42.1303 65.2529C42.4949 63.6346 40.8142 62.683 41.0188 61.9538C41.2859 61.2514 43.1706 61.5536 43.8198 60.0244C44.4691 58.4951 42.9842 57.2678 43.3129 56.5833C43.7046 55.9432 45.4999 56.5744 46.4162 55.1872C47.3324 53.7999 46.0875 52.3242 46.5321 51.7105C47.0302 51.1415 48.6838 52.0927 49.84 50.8925C50.9867 49.6919 50.0352 48.0115 50.578 47.487C51.1642 47.0244 52.6322 48.2514 53.9747 47.2735C55.3173 46.2955 54.6768 44.4725 55.3085 44.0547C55.9753 43.6989 57.1932 45.1753 58.6876 44.4461C60.1819 43.726 59.879 41.823 60.5723 41.5207C61.2927 41.2893 62.2259 42.9524 63.8267 42.5074C65.4274 42.0629 65.4634 40.1334 66.2102 39.9643C66.9733 39.8766 67.6226 41.6725 69.2674 41.5302Z" fill="#CCAF6B"/>
</svg>
