<svg width="200" height="200" viewBox="0 0 200 200" fill="none" xmlns="http://www.w3.org/2000/svg">
<path fill-rule="evenodd" clip-rule="evenodd" d="M92.6452 86.5997C92.6452 90.2472 92.6452 93.3907 92.4492 95.0561C92.2871 96.2094 92.0905 97.0805 91.2956 97.2429C90.9368 97.3197 90.4583 97.3966 89.8691 97.3966C89.3906 97.3966 89.2376 97.5164 89.2376 97.7127C89.2376 97.9946 89.5104 98.1056 90.0319 98.1056C90.8268 98.1056 91.86 98.0284 92.7734 98.0284C93.722 97.9858 94.6016 97.9858 95.0378 97.9858C95.6354 97.9858 96.8223 98.0284 98.0104 98.1056C99.1634 98.1482 100.316 98.225 100.786 98.225C108.089 98.225 111.378 93.8175 111.378 89.5724C111.378 84.934 107.406 82.1153 104.152 81.005C106.33 79.2621 108.201 77.3149 108.201 74.0603C108.201 71.9591 106.928 68.1069 99.7441 68.1069C98.3945 68.1069 96.849 68.2266 94.901 68.2266C94.1061 68.2266 91.612 68.1069 89.502 68.1069C88.9043 68.1069 88.6309 68.1837 88.6309 68.4656C88.6309 68.7475 88.8704 68.8243 89.306 68.8243C89.8607 68.8243 90.5358 68.8669 90.8522 68.9438C92.1589 69.2257 92.4753 69.8578 92.5605 71.2078C92.6374 72.4802 92.6374 73.5906 92.6374 79.6212V86.5997H92.6452ZM97.4036 70.4897C97.4036 70.0541 97.4798 69.8917 97.7617 69.8149C98.1634 69.738 98.5137 69.738 99.069 69.738C102.477 69.738 104.032 73.2315 104.032 75.8881C104.032 77.8357 103.434 79.2621 102.4 80.0906C101.726 80.6886 100.854 80.8425 99.5391 80.8425C98.625 80.8425 98.0352 80.7996 97.6764 80.7227C97.5143 80.6801 97.3945 80.6033 97.3945 80.2872V70.4897H97.4036ZM106.492 91.366C106.492 95.4916 103.476 96.4483 101.691 96.4483C100.777 96.4483 99.8633 96.4057 98.7956 95.9701C97.5312 95.4574 97.4115 94.7826 97.4115 92.1602V82.7556C97.4115 82.559 97.4883 82.4822 97.651 82.4822C98.2487 82.4822 98.6419 82.4822 99.3594 82.5248C100.906 82.6016 101.82 82.8836 102.656 83.4815C105.655 85.5662 106.492 88.906 106.492 91.366Z" fill="#CCAF6B"/>
<path fill-rule="evenodd" clip-rule="evenodd" d="M98.1123 28.4041C97.5316 28.2758 96.9248 28.447 96.8649 29.1902L96.8395 29.7966C95.208 28.6521 96.4554 27.1488 98.223 27.9262L98.2914 27.7039C98.3597 27.4819 98.3343 27.5418 98.3767 27.405C98.4196 27.2852 98.4711 27.1316 98.6416 26.9779C99.0095 26.6362 99.2399 26.6449 99.641 26.6876L99.3161 27.2683C99.0342 27.9688 99.4528 28.6095 99.7354 29.5151C100.017 28.6095 100.435 27.9688 100.154 27.2683L99.8291 26.6876C100.23 26.6449 100.461 26.6449 100.828 26.9779C100.991 27.1319 101.042 27.2856 101.085 27.405C101.136 27.5418 101.11 27.4906 101.17 27.7039L101.239 27.9262C103.006 27.1488 104.245 28.6436 102.622 29.7966L102.597 29.1902C102.537 28.4382 101.931 28.2761 101.35 28.4041C100.052 28.6944 100.034 30.0528 99.9489 31.0948V31.1378L99.9235 31.1632C99.8636 31.283 99.7953 31.3256 99.7185 31.3084C99.6501 31.3256 99.5817 31.283 99.5218 31.1716L99.4965 31.1378V31.0694C99.419 30.0359 99.3929 28.6947 98.1123 28.4041Z" fill="#CCAF6B"/>
<path fill-rule="evenodd" clip-rule="evenodd" d="M98.1123 138.038C97.5316 138.166 96.9248 137.995 96.8649 137.252L96.8395 136.646C95.208 137.799 96.4554 139.294 98.223 138.517L98.2914 138.739C98.3597 138.953 98.3343 138.901 98.3767 139.038C98.4196 139.157 98.4711 139.311 98.6416 139.464C99.0095 139.806 99.2399 139.798 99.641 139.755L99.3161 139.174C99.0342 138.474 99.4528 137.833 99.7354 136.928C100.017 137.833 100.435 138.474 100.154 139.174L99.8291 139.755C100.23 139.798 100.461 139.798 100.828 139.464C100.991 139.311 101.042 139.157 101.085 139.038C101.136 138.901 101.11 138.952 101.17 138.739L101.239 138.517C103.006 139.294 104.245 137.79 102.622 136.646L102.597 137.252C102.537 138.004 101.931 138.166 101.35 138.038C100.052 137.748 100.034 136.389 99.9489 135.347V135.304L99.9235 135.279C99.8636 135.16 99.7953 135.117 99.7185 135.134C99.6501 135.125 99.5817 135.159 99.5218 135.27L99.4965 135.304V135.373C99.419 136.407 99.3929 137.757 98.1123 138.038Z" fill="#CCAF6B"/>
<path fill-rule="evenodd" clip-rule="evenodd" d="M146.587 112.029C146.408 112.601 145.964 113.037 145.28 112.712L144.742 112.43C144.921 114.412 146.843 114.087 147.048 112.165L147.279 112.217C147.501 112.268 147.441 112.268 147.587 112.285C147.715 112.31 147.868 112.344 148.082 112.276C148.561 112.122 148.671 111.926 148.833 111.55L148.176 111.542C147.424 111.431 147.083 110.756 146.441 110.055C147.373 110.26 148.124 110.218 148.594 110.816L148.936 111.388C149.175 111.063 149.294 110.867 149.184 110.371C149.132 110.149 149.03 110.029 148.944 109.927C148.85 109.816 148.884 109.867 148.73 109.705L148.577 109.534C150.139 108.39 149.456 106.562 147.645 107.399L148.158 107.732C148.781 108.159 148.619 108.765 148.218 109.201C147.321 110.183 146.133 109.517 145.186 109.073L145.151 109.056L145.117 109.064C144.98 109.056 144.912 109.098 144.887 109.167C144.835 109.226 144.835 109.303 144.912 109.414L144.929 109.457L144.98 109.491C145.835 110.073 146.988 110.764 146.587 112.029Z" fill="#CCAF6B"/>
<path fill-rule="evenodd" clip-rule="evenodd" d="M53.9001 54.1064C54.0791 53.5341 54.5238 53.0983 55.2074 53.4231L55.7451 53.705C55.5661 51.7233 53.6442 52.0478 53.4385 53.9612L53.208 53.9186C52.986 53.8671 53.0459 53.8671 52.9007 53.8502C52.7725 53.8245 52.6188 53.7903 52.4053 53.8587C51.9268 54.0126 51.8161 54.2089 51.6455 54.5846L52.3115 54.5934C53.0635 54.7044 53.4046 55.3792 54.0453 56.0797C53.1234 55.875 52.3623 55.9173 51.8929 55.3196L51.5511 54.7473C51.3122 55.0719 51.1924 55.2685 51.3037 55.7636C51.3545 55.986 51.4574 56.097 51.5433 56.1995C51.6371 56.3105 51.6032 56.2591 51.7568 56.43L51.9105 56.6009C50.3473 57.7454 51.0303 59.5732 52.8415 58.7275L52.3291 58.4033C51.7054 57.9762 51.8675 57.3694 52.2692 56.9254C53.1657 55.943 54.3538 56.6178 55.3018 57.0537L55.3356 57.0709L55.3701 57.0621C55.5068 57.0709 55.5752 57.0367 55.6006 56.9599C55.652 56.9 55.652 56.8232 55.5752 56.7122L55.5583 56.6692L55.4977 56.6354C54.6605 56.0625 53.5075 55.3619 53.9001 54.1064Z" fill="#CCAF6B"/>
<path fill-rule="evenodd" clip-rule="evenodd" d="M51.7556 109.637C51.3539 109.193 51.2002 108.595 51.8155 108.159L52.3278 107.835C50.5173 106.997 49.8422 108.825 51.3968 109.961L51.2432 110.132C51.0896 110.303 51.1241 110.252 51.0297 110.363C50.9437 110.465 50.8415 110.585 50.7901 110.807C50.6787 111.303 50.7985 111.499 51.0375 111.823L51.3793 111.251C51.8487 110.662 52.6091 110.696 53.5316 110.491C52.891 111.191 52.5498 111.875 51.7979 111.977L51.1319 111.986C51.294 112.353 51.4047 112.558 51.8832 112.704C52.0974 112.772 52.251 112.738 52.3877 112.721C52.5238 112.695 52.473 112.695 52.6866 112.653L52.9164 112.601C53.1306 114.523 55.044 114.848 55.223 112.866L54.6853 113.148C54.0017 113.472 53.5577 113.028 53.378 112.464C52.9847 111.2 54.1553 110.5 55.0095 109.902L55.044 109.877L55.0524 109.842C55.1202 109.731 55.1286 109.654 55.0778 109.595C55.0524 109.527 54.9841 109.484 54.8558 109.492L54.8129 109.484L54.753 109.509C53.8226 109.961 52.6521 110.611 51.7556 109.637Z" fill="#CCAF6B"/>
<path fill-rule="evenodd" clip-rule="evenodd" d="M148.321 56.9084C148.722 57.344 148.876 57.9507 148.261 58.3863L147.748 58.7108C149.559 59.5477 150.234 57.7199 148.679 56.5839L148.833 56.413C148.987 56.2424 148.953 56.2935 149.047 56.1825C149.132 56.08 149.235 55.9602 149.286 55.747C149.397 55.2512 149.278 55.0549 149.039 54.7304L148.697 55.3026C148.228 55.8921 147.467 55.858 146.545 56.0627C147.185 55.3622 147.527 54.6874 148.278 54.5764L148.945 54.5679C148.783 54.2004 148.672 53.9957 148.193 53.8502C147.979 53.7818 147.817 53.816 147.689 53.8417C147.543 53.8671 147.603 53.8671 147.381 53.9185L147.151 53.9699C146.937 52.0477 145.024 51.7232 144.845 53.705L145.382 53.4315C146.066 53.107 146.51 53.551 146.69 54.1148C147.091 55.3791 145.92 56.0793 145.067 56.6773L145.032 56.7027L145.015 56.7369C144.946 56.8479 144.938 56.9247 144.989 56.9846C145.015 57.0529 145.083 57.0956 145.211 57.0868L145.254 57.0956L145.314 57.0614C146.254 56.5839 147.433 55.9348 148.321 56.9084Z" fill="#CCAF6B"/>
<path fill-rule="evenodd" clip-rule="evenodd" d="M103.732 31.5564C102.75 32.1798 101.579 33.0255 100.614 34.0076C101.434 35.0326 102.023 36.1772 102.152 37.4073C102.305 38.8679 101.417 41.0463 99.726 40.6703C98.0346 41.0463 97.1465 38.8767 97.3002 37.4073C97.4284 36.1772 98.0176 35.0326 98.8373 34.0076C97.8724 33.0255 96.7019 32.1798 95.7201 31.5564C92.1661 35.2377 91.1758 41.0463 94.8314 45.044C96.0957 46.4275 97.8295 47.5639 99.726 48.2898C101.614 47.572 103.356 46.4278 104.62 45.044C108.285 41.0463 107.294 35.2377 103.732 31.5564ZM142.58 53.8074C142.529 54.9692 142.384 56.4041 142.017 57.7367C140.719 57.5401 139.429 57.6 138.301 58.1039C136.951 58.7019 135.517 60.5554 136.686 61.837C137.199 63.4854 139.531 63.1694 140.718 62.3067C141.717 61.5805 142.41 60.4955 142.897 59.2742C144.229 59.6241 145.544 60.2052 146.578 60.752C145.169 65.672 140.634 69.4389 135.346 68.2602C133.518 67.8588 131.664 66.9275 130.092 65.6462C129.768 63.6475 129.896 61.572 130.46 59.7865C132.091 54.6189 137.609 52.5691 142.58 53.8074ZM141.581 59.0095C141.197 59.9236 140.667 60.7094 139.95 61.2306C139.625 61.4698 138.472 61.9311 138.062 61.5893L137.883 61.1365L137.575 60.752C137.49 60.2221 138.464 59.462 138.83 59.2996C139.65 58.95 140.599 58.8901 141.581 59.0095ZM143.306 58.0102C143.733 56.4128 143.887 54.713 143.913 53.3207L143.921 52.8168L143.442 52.6801C137.676 50.9718 131.108 53.3464 129.194 59.3855C128.725 60.8888 128.528 62.5632 128.613 64.2371C127.52 63.0242 126.691 61.6235 126.29 60.1202C125.505 57.1987 127.512 54.1664 128.613 51.5528C129.459 49.5453 130.1 47.1365 130.151 44.9669C130.219 42.2677 129.049 39.8331 126.623 38.5349C126.213 38.3129 125.777 38.1423 125.333 38.0053C125.205 37.9115 125.068 37.8175 124.932 37.7406C122.591 36.2882 119.9 36.4936 117.594 37.9031C115.741 39.0388 113.972 40.7986 112.657 42.5326C110.94 44.7875 109.317 48.0417 106.396 48.8279C104.893 49.2292 103.261 49.2123 101.663 48.8793C103.158 48.1192 104.509 47.1111 105.576 45.9496C109.856 41.2771 108.625 34.4011 104.26 30.2582L103.902 29.908L103.475 30.1641C102.279 30.8904 100.878 31.864 99.7162 33.0343C98.5547 31.864 97.1543 30.8904 95.9584 30.1641L95.5313 29.908L95.1635 30.2582C90.7989 34.4008 89.5775 41.2686 93.8568 45.9496C94.9245 47.1111 96.2741 48.1192 97.7689 48.8793C96.1713 49.2123 94.5398 49.2292 93.0456 48.8279C90.1244 48.0417 88.5013 44.7875 86.7845 42.5326C85.4688 40.7986 83.7006 39.0388 81.847 37.9031C79.5404 36.4936 76.8503 36.2973 74.5098 37.7406C74.3223 37.8516 74.142 37.9799 73.9714 38.1078C73.8692 38.1593 73.767 38.2104 73.6732 38.2615C71.2468 39.56 70.0769 41.9945 70.1452 44.6934C70.196 46.863 70.8451 49.2719 71.6823 51.2794C72.7845 53.893 74.7917 56.9255 74.0053 59.8468C73.6042 61.35 72.7754 62.7507 71.6823 63.9636C71.7676 62.2895 71.5717 60.6153 71.1016 59.1121C69.1967 53.073 62.6283 50.6983 56.8627 52.4067L56.3842 52.5518L56.392 53.0557C56.418 54.448 56.5632 56.1479 56.9987 57.7452C55.4011 58.1723 53.8555 58.8901 52.6335 59.5649L52.1895 59.8126L52.3093 60.2992C53.7181 66.1505 59.0567 70.6521 65.2409 69.2768C66.7872 68.935 68.3249 68.2686 69.7344 67.3549C69.2299 68.9008 68.4271 70.3272 67.3256 71.4291C65.1901 73.5645 61.5599 73.3425 58.7409 73.7013C56.5801 73.9747 54.1713 74.6238 52.2663 75.6661C49.8913 76.9558 48.3711 79.185 48.4564 81.9356C48.4649 82.1322 48.474 82.3201 48.4994 82.5164C48.2943 83.1485 48.1745 83.8064 48.1582 84.4727C48.0723 87.2231 49.5931 89.4526 51.9675 90.7423C53.8724 91.7846 56.2813 92.4337 58.4421 92.7071C61.252 93.0658 64.8829 92.8438 67.0267 94.9792C68.129 96.0811 68.9226 97.4991 69.4356 99.0453C68.0261 98.1313 66.4799 97.4649 64.9421 97.1231C58.7579 95.7566 53.4193 100.258 52.0105 106.101L51.8907 106.588L52.3353 106.835C53.5567 107.51 55.1023 108.236 56.6999 108.655C56.2728 110.252 56.1276 111.952 56.0938 113.344L56.0853 113.848L56.5638 113.993C62.3295 115.702 68.8978 113.327 70.8028 107.279C71.2813 105.776 71.4694 104.102 71.3835 102.428C72.4773 103.641 73.3054 105.041 73.7071 106.545C74.4922 109.466 72.4851 112.498 71.3835 115.112C70.5378 117.119 69.8972 119.528 69.8373 121.706C69.7689 124.406 70.948 126.84 73.3653 128.138C73.724 128.326 74.0997 128.488 74.4844 128.617L74.5098 128.634C76.8503 130.077 79.5404 129.881 81.847 128.471C83.7006 127.344 85.4688 125.576 86.7845 123.842C88.5013 121.578 90.1244 118.324 93.0456 117.547C94.5489 117.145 96.1804 117.162 97.7689 117.495C96.2741 118.255 94.9245 119.263 93.8568 120.425C89.5775 125.097 90.8073 131.973 95.1635 136.116L95.5313 136.467L95.9584 136.202C97.1543 135.484 98.5547 134.502 99.7162 133.331C100.887 134.502 102.288 135.475 103.475 136.202L103.902 136.467L104.26 136.116C108.625 131.973 109.856 125.097 105.576 120.425C104.509 119.263 103.158 118.255 101.663 117.495C103.261 117.162 104.893 117.145 106.396 117.546C109.317 118.332 110.94 121.587 112.657 123.842C113.972 125.576 115.741 127.335 117.594 128.471C119.9 129.881 122.591 130.077 124.932 128.634C125.179 128.48 125.427 128.301 125.658 128.121C125.956 128.01 126.239 127.882 126.521 127.728C128.947 126.43 130.117 123.996 130.049 121.296C129.989 119.127 129.348 116.718 128.503 114.711C127.4 112.097 125.393 109.065 126.179 106.143C126.581 104.64 127.409 103.239 128.503 102.026C128.417 103.701 128.605 105.375 129.083 106.878C130.988 112.917 137.557 115.291 143.322 113.583L143.801 113.438L143.792 112.934C143.767 111.542 143.622 109.842 143.186 108.245C144.784 107.818 146.329 107.1 147.551 106.425L147.995 106.186L147.876 105.699C146.467 99.8477 141.128 95.3461 134.943 96.7214C133.406 97.0632 131.86 97.7296 130.451 98.6433C130.963 97.0974 131.758 95.671 132.859 94.5691C134.995 92.4337 138.625 92.6557 141.444 92.297C143.605 92.0235 146.014 91.3744 147.919 90.3324C150.293 89.0424 151.814 86.8132 151.728 84.0626C151.719 83.8578 151.703 83.6524 151.686 83.4477C151.771 83.0375 151.822 82.6277 151.839 82.2175C151.925 79.4672 150.404 77.2377 148.029 75.9477C146.124 74.9057 143.716 74.2566 141.555 73.9832C138.736 73.6329 135.106 73.8464 132.97 71.711C131.877 70.6091 131.074 69.1912 130.57 67.6449C131.979 68.559 133.525 69.2253 135.063 69.5668C141.247 70.9337 146.586 66.432 147.995 60.5896L148.115 60.1026L147.671 59.8634C146.45 59.1547 144.904 58.4373 143.306 58.0102ZM128.88 66.3386C129.349 68.7214 130.408 70.9766 132.048 72.6251C134.525 75.1023 138.173 74.863 141.393 75.2732C143.392 75.5209 145.647 76.1274 147.406 77.0841C148.525 77.6905 149.422 78.5447 149.96 79.5955C149.542 79.1427 149.063 78.7498 148.516 78.4421C147.799 78.0408 147.005 77.8015 146.184 77.7673C140.777 77.5196 138.882 84.575 143.178 87.5903C144.032 88.1882 145.083 88.5216 146.287 88.4701C147.116 88.4275 147.902 88.1967 148.619 87.7953C148.969 87.5987 149.286 87.3682 149.584 87.1121C149.037 87.949 148.252 88.6407 147.303 89.1537C145.544 90.1101 143.289 90.7169 141.29 90.9646C138.07 91.3744 134.414 91.1352 131.945 93.6124C130.305 95.2524 129.246 97.5076 128.777 99.8992C126.949 101.497 125.522 103.538 124.915 105.784C124.01 109.167 126.043 112.216 127.299 115.206C128.076 117.06 128.682 119.306 128.734 121.313C128.759 122.483 128.52 123.585 127.991 124.525C128.11 124.038 128.178 123.534 128.17 123.03C128.162 122.202 127.966 121.408 127.589 120.673C124.292 114.301 114.436 119.99 118.313 126.037C118.757 126.729 119.356 127.302 120.064 127.72C120.483 127.968 120.936 128.155 121.397 128.292C120.337 128.275 119.27 127.933 118.288 127.327C116.579 126.285 114.93 124.627 113.718 123.03C111.753 120.442 110.139 117.162 106.757 116.257C104.51 115.65 102.033 115.872 99.7351 116.658C97.4369 115.872 94.9512 115.659 92.7129 116.257C89.3308 117.162 87.7077 120.442 85.7435 123.03C84.53 124.628 82.8816 126.285 81.1739 127.327C80.9343 127.481 80.6784 127.608 80.4304 127.728C80.8835 127.37 81.2761 126.934 81.5925 126.438C85.4616 120.408 75.2286 114.163 71.8718 120.664C71.4955 121.399 71.2995 122.202 71.2911 123.022V123.201C71.2051 122.723 71.1628 122.227 71.1713 121.723C71.2227 119.716 71.8295 117.461 72.6068 115.616C73.862 112.618 75.8952 109.577 74.9896 106.194C74.3835 103.948 72.9571 101.915 71.129 100.309C70.6589 97.9259 69.6088 95.6707 67.9681 94.0222C65.4916 91.545 61.8438 91.7843 58.6153 91.3744C56.625 91.1267 54.3698 90.5199 52.6023 89.5632C50.9454 88.658 49.7832 87.2312 49.5352 85.4291C50.0736 86.2833 50.7995 87.018 51.6967 87.5219C52.4141 87.9233 53.2084 88.1625 54.0287 88.1967C61.084 88.5297 61.1263 77.8438 53.7299 78.1856C52.9011 78.2283 52.1153 78.4506 51.3894 78.8604C50.9278 79.1254 50.5007 79.45 50.125 79.8259C50.6205 78.5447 51.6114 77.5196 52.9011 76.8106C54.6609 75.8539 56.9154 75.2559 58.9148 74.9998C62.1348 74.5896 65.7904 74.8289 68.2592 72.3516C69.8991 70.7117 70.9584 68.4568 71.4278 66.0649C73.2559 64.4675 74.6823 62.4262 75.2891 60.1798C76.1947 56.7973 74.1615 53.7478 72.9063 50.7582C72.129 48.9044 71.5222 46.6495 71.4707 44.6508C71.5645 45.0007 71.7012 45.3425 71.8724 45.6759C75.1693 52.0479 85.7956 46.0177 81.8913 39.9272C81.6693 39.5769 81.4043 39.252 81.1055 38.9705L81.1661 39.0131C82.8744 40.0554 84.5228 41.7123 85.7357 43.3097C87.6999 45.8979 89.323 49.1778 92.7051 50.0834C94.9519 50.6814 97.4291 50.4679 99.7266 49.6817C102.025 50.4679 104.51 50.6814 106.749 50.0834C110.131 49.1778 111.754 45.8979 113.71 43.3097C114.923 41.7123 116.572 40.0551 118.28 39.0131C119.186 38.4578 120.159 38.1248 121.133 38.0652C120.8 38.1847 120.466 38.3386 120.159 38.5261C119.45 38.9447 118.852 39.517 118.408 40.2087C114.495 46.3162 124.267 52.0906 127.581 45.684C127.957 44.9496 128.154 44.1466 128.162 43.3266C128.17 42.6348 128.051 41.9597 127.829 41.3106C128.538 42.3272 128.862 43.5916 128.828 44.9327C128.777 46.9399 128.17 49.1947 127.393 51.0398C126.137 54.0297 124.104 57.0789 125.01 60.4617C125.625 62.6996 127.042 64.7413 128.88 66.3386ZM150.354 83.3624C150.012 84.712 149.183 85.9591 147.97 86.6423C147.432 86.9415 146.842 87.1208 146.219 87.1462C141.042 87.3858 140.761 78.8354 146.116 79.0828C146.731 79.1085 147.32 79.2878 147.867 79.5867C149.226 80.3556 150.106 81.8334 150.354 83.3624ZM124.745 39.2013C123.438 38.8595 122.003 38.9705 120.842 39.6622C120.312 39.9783 119.859 40.3969 119.526 40.9181C116.775 45.2143 123.925 49.8953 126.412 45.0691C126.693 44.5225 126.838 43.9246 126.847 43.3009C126.872 41.7039 125.992 40.1749 124.745 39.2013ZM150.798 69.3878C149.96 71.0108 148.457 72.2751 146.544 72.7533C144.63 73.2319 142.708 72.8217 141.205 71.7882C142.042 70.1651 143.546 68.9008 145.459 68.4226C147.372 67.9444 149.294 68.3542 150.798 69.3878ZM149.363 69.7553C148.602 70.7458 147.535 71.4552 146.296 71.7625C145.057 72.0701 143.777 71.9503 142.648 71.4291C143.409 70.4382 144.486 69.7292 145.716 69.422C146.945 69.1062 148.227 69.2341 149.363 69.7553ZM137.259 45.9405C135.431 45.8552 133.586 46.53 132.219 47.9395C130.853 49.3572 130.245 51.2283 130.391 53.0473C132.211 53.1329 134.064 52.4581 135.431 51.0486C136.798 49.6306 137.404 47.7602 137.259 45.9405ZM136.234 47.0082C134.995 47.1707 133.842 47.7429 132.962 48.657C132.083 49.5707 131.544 50.741 131.425 51.9796C132.664 51.8171 133.817 51.2452 134.697 50.3311C135.576 49.4171 136.114 48.2472 136.234 47.0082ZM57.4271 112.84C57.4779 111.67 57.6237 110.244 57.9909 108.911C59.2976 109.108 60.5788 109.048 61.7064 108.544C63.056 107.946 64.4909 106.092 63.3119 104.819C62.7911 103.171 60.4675 103.478 59.2806 104.35C58.2813 105.076 57.5892 106.161 57.1023 107.382C55.7696 107.032 54.4545 106.451 53.4206 105.904C54.8295 100.984 59.3653 97.226 64.653 98.3962C66.4812 98.7976 68.3431 99.7286 69.9063 101.01C70.2312 103.009 70.1114 105.084 69.5476 106.87C67.9161 112.029 62.3985 114.079 57.4271 112.84ZM58.4265 107.638C58.8106 106.724 59.3405 105.938 60.058 105.417C60.3829 105.178 61.5267 104.717 61.9454 105.05L62.125 105.503L62.4323 105.887C62.5267 106.417 61.5443 107.177 61.1771 107.339C60.3568 107.698 59.4089 107.758 58.4265 107.638ZM49.8594 82.6362C50.278 81.5431 51.0209 80.5776 52.0372 80.0053C52.5756 79.6977 53.1648 79.5268 53.7885 79.4926C58.6661 79.2706 59.4773 87.1205 54.0873 86.8643C53.472 86.8386 52.8829 86.6596 52.336 86.3604C50.9864 85.6088 50.1153 84.1482 49.8594 82.6362ZM75.0573 127.387C76.4154 127.788 77.9441 127.711 79.1661 126.985C79.6954 126.669 80.1478 126.242 80.4812 125.721C83.2832 121.348 75.5267 116.47 73.0417 121.262C72.7598 121.809 72.6146 122.407 72.6055 123.03C72.5801 124.782 73.6309 126.439 75.0573 127.387ZM49.2097 97.2514C50.0469 95.6283 51.5502 94.3643 53.4636 93.8858C55.3763 93.4076 57.2982 93.8175 58.8021 94.8513C57.9649 96.474 56.4616 97.7384 54.5482 98.2169C52.6348 98.6947 50.7129 98.2934 49.2097 97.2514ZM50.6446 96.8927C51.405 95.9018 52.4727 95.1928 53.7116 94.8852C54.9415 94.5776 56.2227 94.6973 57.3588 95.2185C56.5984 96.2094 55.5306 96.9184 54.2924 97.2257C53.0625 97.5333 51.7806 97.4135 50.6446 96.8927ZM62.7487 120.707C64.5678 120.792 66.4213 120.118 67.7885 118.708C69.155 117.29 69.7702 115.419 69.625 113.6C67.7976 113.515 65.9525 114.19 64.5853 115.599C63.2097 117.017 62.6029 118.888 62.7487 120.707ZM63.7735 119.639C65.0124 119.477 66.1563 118.905 67.045 117.991C67.9252 117.077 68.4629 115.907 68.5827 114.668C67.3438 114.83 66.1993 115.402 65.3112 116.316C64.4317 117.222 63.8926 118.401 63.7735 119.639ZM53.7201 60.4705C54.7533 59.9324 56.0691 59.3429 57.4017 58.9926C57.8803 60.2143 58.5801 61.2989 59.5795 62.0251C60.7754 62.8962 63.099 63.2039 63.6114 61.5554C64.7819 60.2826 63.3464 58.4291 61.9968 57.8223C60.8692 57.3269 59.5795 57.2673 58.2813 57.4552C57.9135 56.1225 57.7683 54.6876 57.7175 53.5261C62.6804 52.2875 68.2071 54.3289 69.8386 59.4968C70.4017 61.282 70.53 63.3575 70.1973 65.3565C68.625 66.6378 66.7715 67.5688 64.9441 67.9701C59.6648 69.1488 55.129 65.3904 53.7201 60.4705ZM58.7253 58.7364C59.7077 58.6166 60.6556 58.6768 61.4668 59.0352C61.8347 59.1977 62.8171 59.9578 62.7227 60.4877L62.4239 60.8722L62.2442 61.325C61.8347 61.6667 60.6895 61.1967 60.3653 60.9574C59.6478 60.436 59.1185 59.6417 58.7253 58.7364ZM74.6648 39.2351C76.168 38.5603 78.03 38.5349 79.4564 39.3803C79.9857 39.6964 80.4382 40.1238 80.7715 40.6446C83.6843 45.1804 75.4844 49.81 73.0326 45.0694C72.7507 44.5229 72.6055 43.9249 72.597 43.3012C72.5801 41.7211 73.4428 40.2091 74.6648 39.2351ZM63.1075 45.5564C64.9265 45.4708 66.78 46.1459 68.1472 47.5551C69.5137 48.9731 70.1205 50.8354 69.9753 52.6632C68.1556 52.7488 66.3021 52.0737 64.9349 50.656C63.5684 49.2462 62.9623 47.3757 63.1075 45.5564ZM64.1413 46.6241C65.3796 46.7865 66.5332 47.3588 67.4128 48.2725C68.2924 49.1866 68.8308 50.3569 68.9499 51.6039C67.711 51.4415 66.558 50.8695 65.6784 49.9555C64.7904 49.0326 64.2605 47.8627 64.1413 46.6241ZM49.5684 69.0037C50.4056 70.6267 51.9089 71.8907 53.8217 72.3692C55.7351 72.8474 57.6569 72.4376 59.1609 71.4041C58.3236 69.781 56.8204 68.5167 54.9069 68.047C52.9935 67.56 51.0717 67.9701 49.5684 69.0037ZM51.0033 69.3624C51.7637 70.3533 52.8314 71.0623 54.0704 71.3695C55.3086 71.6768 56.5899 71.5574 57.7175 71.0362C56.9571 70.0457 55.8809 69.3363 54.6511 69.0291C53.4213 68.7214 52.1394 68.8497 51.0033 69.3624ZM146.475 105.486C145.442 106.032 144.126 106.613 142.794 106.963C142.315 105.742 141.615 104.657 140.615 103.931C139.428 103.06 137.096 102.744 136.584 104.401C135.413 105.673 136.849 107.536 138.199 108.134C139.326 108.637 140.607 108.697 141.914 108.501C142.282 109.833 142.426 111.269 142.478 112.43C137.515 113.669 131.988 111.627 130.357 106.451C129.793 104.665 129.673 102.59 129.998 100.591C131.57 99.3097 133.423 98.3787 135.251 97.9773C140.539 96.8074 145.066 100.574 146.475 105.486ZM141.47 107.22C140.488 107.339 139.539 107.279 138.728 106.921C138.361 106.758 137.378 105.998 137.473 105.469L137.772 105.093L137.951 104.64C138.361 104.298 139.505 104.768 139.829 105.007C140.556 105.52 141.086 106.314 141.47 107.22ZM125.001 126.934C123.609 127.395 122.003 127.327 120.739 126.575C120.209 126.26 119.757 125.841 119.424 125.32C116.579 120.895 123.994 116.59 126.411 121.271C126.693 121.817 126.838 122.415 126.846 123.039C126.872 124.525 126.112 125.952 125.001 126.934ZM137.096 120.4C135.268 120.485 133.423 119.81 132.057 118.401C130.689 116.991 130.083 115.112 130.229 113.293C132.048 113.207 133.902 113.882 135.268 115.3C136.635 116.71 137.242 118.58 137.096 120.4ZM136.063 119.332C134.824 119.17 133.671 118.597 132.792 117.683C131.903 116.77 131.374 115.599 131.254 114.361C132.493 114.523 133.646 115.095 134.525 116.009C135.414 116.923 135.943 118.093 136.063 119.332ZM150.635 96.9526C149.798 95.3295 148.295 94.0652 146.382 93.5955C144.468 93.1173 142.546 93.5271 141.043 94.5606C141.88 96.1837 143.392 97.448 145.297 97.9265C147.21 98.3959 149.132 97.9861 150.635 96.9526ZM149.191 96.5935C148.432 95.6026 147.355 94.8936 146.125 94.5863C144.895 94.2787 143.614 94.3985 142.478 94.9194C143.238 95.9102 144.314 96.6192 145.544 96.9265C146.783 97.2341 148.064 97.1059 149.191 96.5935ZM113.205 134.109C114.187 132.572 114.529 130.633 113.99 128.745C113.443 126.849 112.137 125.388 110.48 124.611C109.497 126.149 109.156 128.088 109.694 129.975C110.241 131.863 111.557 133.323 113.205 134.109ZM112.795 132.691C113.273 131.538 113.35 130.257 113 129.027C112.65 127.805 111.907 126.755 110.89 126.029C110.412 127.182 110.335 128.463 110.685 129.685C111.036 130.914 111.779 131.965 112.795 132.691ZM113.205 32.2312C114.187 33.7686 114.529 35.6993 113.99 37.5955C113.443 39.4916 112.137 40.9522 110.48 41.738C109.497 40.2006 109.156 38.2615 109.694 36.3738C110.241 34.4692 111.557 33.0167 113.205 32.2312ZM112.795 33.6488C113.273 34.8022 113.35 36.0834 113 37.3051C112.65 38.5264 111.907 39.5769 110.89 40.3031C110.412 39.1501 110.335 37.8689 110.685 36.6388C111.036 35.4259 111.779 34.3751 112.795 33.6488ZM86.1276 134.109C85.1452 132.572 84.8034 130.633 85.3418 128.745C85.8796 126.849 87.1954 125.388 88.8438 124.611C89.8262 126.149 90.168 128.088 89.6296 129.975C89.0912 131.863 87.7761 133.323 86.1276 134.109ZM86.5372 132.691C86.0586 131.538 85.9818 130.257 86.3321 129.027C86.683 127.805 87.4258 126.755 88.4421 126.029C88.9206 127.182 88.9974 128.463 88.6472 129.685C88.2976 130.914 87.5541 131.965 86.5372 132.691ZM86.1276 32.2312C85.1452 33.7686 84.8034 35.6993 85.3418 37.5955C85.8796 39.4916 87.1954 40.9522 88.8438 41.738C89.8262 40.2006 90.168 38.2615 89.6296 36.3738C89.0912 34.4692 87.7761 33.0167 86.1276 32.2312ZM86.5372 33.6488C86.0586 34.8022 85.9818 36.0834 86.3321 37.3051C86.683 38.5264 87.4258 39.5769 88.4421 40.3031C88.9206 39.1501 88.9974 37.8689 88.6472 36.6388C88.2976 35.4259 87.5541 34.3751 86.5372 33.6488ZM95.7201 134.784C96.711 134.161 97.8724 133.315 98.8373 132.333C98.0176 131.308 97.4284 130.154 97.3002 128.933C97.1465 127.464 98.0346 125.294 99.726 125.67C101.417 125.294 102.305 127.464 102.152 128.933C102.023 130.154 101.425 131.299 100.614 132.333C101.588 133.315 102.75 134.161 103.732 134.784C107.285 131.102 108.276 125.294 104.62 121.296C103.356 119.913 101.622 118.776 99.726 118.051C97.8295 118.768 96.0957 119.913 94.8314 121.296C91.1758 125.294 92.1661 131.103 95.7201 134.784ZM99.726 131.316C100.324 130.53 100.742 129.667 100.837 128.788C100.879 128.386 100.708 127.165 100.213 126.977L99.726 127.045L99.2474 126.977C98.7429 127.156 98.5808 128.386 98.6237 128.788C98.7097 129.667 99.1368 130.53 99.726 131.316ZM99.726 35.0242C99.1277 35.8184 98.709 36.6641 98.6153 37.5525C98.573 37.9542 98.7435 39.1755 99.239 39.3634L99.7175 39.2953L100.204 39.3634C100.7 39.1755 100.87 37.9542 100.828 37.5525C100.742 36.6641 100.324 35.8184 99.726 35.0242Z" fill="#CCAF6B"/>
<path fill-rule="evenodd" clip-rule="evenodd" d="M84.915 54.1323C85.2398 52.3386 84.8127 50.4168 83.5907 48.8793C82.3694 47.3331 80.5927 46.4874 78.773 46.3936C78.4573 48.1873 78.8759 50.1095 80.0972 51.6469C81.3193 53.1925 83.0959 54.0382 84.915 54.1323ZM82.7887 49.5112C83.5829 50.5105 84.0015 51.7234 83.9931 52.9705C82.7795 52.6886 81.6864 52.0053 80.8922 51.006C80.0979 50.0151 79.6884 48.7934 79.6884 47.5463C80.9091 47.8285 81.9937 48.5118 82.7887 49.5112Z" fill="#CCAF6B"/>
<path fill-rule="evenodd" clip-rule="evenodd" d="M121.27 119.699C121.586 117.906 121.167 115.983 119.946 114.446C118.724 112.9 116.947 112.054 115.127 111.961C114.802 113.754 115.23 115.676 116.451 117.213C117.673 118.751 119.45 119.605 121.27 119.699ZM119.142 115.078C119.928 116.069 120.347 117.29 120.347 118.537C119.134 118.255 118.04 117.572 117.255 116.573C116.46 115.573 116.041 114.36 116.05 113.113C117.263 113.395 118.348 114.078 119.142 115.078Z" fill="#CCAF6B"/>
<path fill-rule="evenodd" clip-rule="evenodd" d="M142.179 83.0718C141.197 81.5344 139.582 80.4153 137.635 80.1164C135.687 79.8173 133.808 80.398 132.408 81.5686C133.389 83.106 135.004 84.2336 136.951 84.5325C138.899 84.8228 140.778 84.2421 142.179 83.0718ZM137.481 81.1242C138.736 81.3209 139.873 81.9273 140.719 82.8498C139.634 83.4732 138.369 83.7125 137.114 83.5162C135.859 83.3196 134.722 82.7131 133.876 81.7906C134.953 81.1669 136.217 80.9364 137.481 81.1242Z" fill="#CCAF6B"/>
<path fill-rule="evenodd" clip-rule="evenodd" d="M67.6094 83.8236C66.5586 82.3288 64.8932 81.2781 62.9368 81.073C60.9805 80.8598 59.1276 81.5258 57.7773 82.7559C58.8281 84.2504 60.4935 85.2927 62.4499 85.5147C64.4062 85.7198 66.2598 85.0538 67.6094 83.8236ZM62.8255 82.0896C64.0898 82.226 65.2513 82.7813 66.14 83.6697C65.0807 84.336 63.8333 84.6351 62.569 84.49C61.3047 84.3532 60.1432 83.7894 59.2552 82.9184C60.306 82.2432 61.5618 81.9529 62.8255 82.0896Z" fill="#CCAF6B"/>
<path fill-rule="evenodd" clip-rule="evenodd" d="M84.1805 111.772C82.37 112.02 80.6694 113.011 79.5763 114.642C78.4832 116.274 78.2183 118.23 78.6883 119.99C80.4989 119.75 82.1987 118.759 83.2918 117.119C84.3771 115.479 84.6421 113.532 84.1805 111.772ZM80.4312 115.206C81.131 114.147 82.1649 113.378 83.3524 112.994C83.4546 114.241 83.1382 115.479 82.4299 116.539C81.7209 117.598 80.6955 118.366 79.5086 118.751C79.4058 117.512 79.7222 116.265 80.4312 115.206Z" fill="#CCAF6B"/>
<path fill-rule="evenodd" clip-rule="evenodd" d="M121.192 46.5299C119.382 46.7691 117.681 47.76 116.588 49.4C115.495 51.0396 115.23 52.9791 115.7 54.747C117.502 54.5077 119.21 53.5169 120.304 51.8772C121.398 50.2454 121.662 48.2981 121.192 46.5299ZM117.443 49.9723C118.152 48.9133 119.185 48.1445 120.373 47.7685C120.475 49.0156 120.159 50.2542 119.451 51.3134C118.742 52.3726 117.716 53.1412 116.529 53.526C116.417 52.2786 116.734 51.0315 117.443 49.9723Z" fill="#CCAF6B"/>
<path fill-rule="evenodd" clip-rule="evenodd" d="M100 53.7906C83.771 53.7906 70.6245 66.9452 70.6245 83.1659C70.6245 99.3954 83.7788 112.541 100 112.541C116.221 112.541 129.376 99.387 129.376 83.1659C129.384 66.9452 116.229 53.7906 100 53.7906ZM100 55.4566C115.307 55.4566 127.718 67.8678 127.718 83.1747C127.718 98.4814 115.307 110.893 100 110.893C84.6935 110.893 72.2821 98.4814 72.2821 83.1747C72.2905 67.8593 84.6929 55.4566 100 55.4566Z" fill="#CCAF6B"/>
<path fill-rule="evenodd" clip-rule="evenodd" d="M99.9998 50.1176C81.7459 50.1176 66.9517 64.9122 66.9517 83.1658C66.9517 101.42 81.7459 116.214 99.9998 116.214C118.254 116.214 133.049 101.42 133.049 83.1658C133.048 64.9207 118.254 50.1176 99.9998 50.1176ZM99.9998 51.1853C117.665 51.1853 131.989 65.5014 131.989 83.1658C131.989 100.83 117.665 115.146 99.9998 115.146C82.3358 115.146 68.0194 100.83 68.0194 83.1658C68.0194 65.5102 82.3358 51.1853 99.9998 51.1853Z" fill="#CCAF6B"/>
<path fill-rule="evenodd" clip-rule="evenodd" d="M99.7264 42.1993C100.913 42.1993 101.87 43.156 101.87 44.3435C101.87 45.5307 100.913 46.4874 99.7264 46.4874C98.5474 46.4874 97.5825 45.5307 97.5825 44.3435C97.5825 43.1648 98.5474 42.1993 99.7264 42.1993Z" fill="#CCAF6B"/>
<path fill-rule="evenodd" clip-rule="evenodd" d="M76.9451 40.7385C78.0558 40.7385 78.9523 41.6353 78.9523 42.7457C78.9523 43.8557 78.0558 44.7528 76.9451 44.7528C75.8351 44.7528 74.938 43.8557 74.938 42.7457C74.938 41.6353 75.8351 40.7385 76.9451 40.7385Z" fill="#CCAF6B"/>
<path fill-rule="evenodd" clip-rule="evenodd" d="M53.9593 81.2524C55.07 81.2524 55.9665 82.1495 55.9665 83.2599C55.9665 84.3702 55.07 85.267 53.9593 85.267C52.8486 85.267 51.9521 84.3699 51.9521 83.2599C51.9521 82.1495 52.8486 81.2524 53.9593 81.2524Z" fill="#CCAF6B"/>
<path fill-rule="evenodd" clip-rule="evenodd" d="M122.91 41.1402C124.02 41.1402 124.917 42.037 124.917 43.1474C124.917 44.2577 124.02 45.1546 122.91 45.1546C121.799 45.1546 120.902 44.2574 120.902 43.1474C120.902 42.0367 121.799 41.1402 122.91 41.1402Z" fill="#CCAF6B"/>
<path fill-rule="evenodd" clip-rule="evenodd" d="M146.135 81.0987C147.245 81.0987 148.142 81.9955 148.142 83.1059C148.142 84.2162 147.245 85.113 146.135 85.113C145.024 85.113 144.127 84.2162 144.127 83.1059C144.127 81.9955 145.024 81.0987 146.135 81.0987Z" fill="#CCAF6B"/>
<path fill-rule="evenodd" clip-rule="evenodd" d="M122.824 121.314C123.934 121.314 124.831 122.211 124.831 123.321C124.831 124.431 123.934 125.328 122.824 125.328C121.714 125.328 120.816 124.431 120.816 123.321C120.825 122.211 121.722 121.314 122.824 121.314Z" fill="#CCAF6B"/>
<path fill-rule="evenodd" clip-rule="evenodd" d="M76.723 121.476C77.8337 121.476 78.7301 122.373 78.7301 123.483C78.7301 124.594 77.8337 125.49 76.723 125.49C75.613 125.49 74.7158 124.594 74.7158 123.483C74.7158 122.373 75.613 121.476 76.723 121.476Z" fill="#CCAF6B"/>
<path fill-rule="evenodd" clip-rule="evenodd" d="M133.877 61.3416C135.065 61.3416 136.021 62.2983 136.021 63.4858C136.021 64.6729 135.065 65.6296 133.877 65.6296C132.69 65.6296 131.733 64.6729 131.733 63.4858C131.733 62.2983 132.69 61.3416 133.877 61.3416Z" fill="#CCAF6B"/>
<path fill-rule="evenodd" clip-rule="evenodd" d="M133.655 100.617C134.834 100.617 135.799 101.573 135.799 102.761C135.799 103.939 134.841 104.905 133.655 104.905C132.468 104.905 131.511 103.948 131.511 102.761C131.51 101.573 132.476 100.617 133.655 100.617Z" fill="#CCAF6B"/>
<path fill-rule="evenodd" clip-rule="evenodd" d="M99.5897 120.177C100.777 120.177 101.734 121.134 101.734 122.322C101.734 123.5 100.777 124.466 99.5897 124.466C98.4028 124.466 97.4458 123.509 97.4458 122.322C97.4458 121.134 98.4106 120.177 99.5897 120.177Z" fill="#CCAF6B"/>
<path fill-rule="evenodd" clip-rule="evenodd" d="M66.3621 100.719C67.5412 100.719 68.506 101.676 68.506 102.863C68.506 104.051 67.5496 105.007 66.3621 105.007C65.1753 105.007 64.2183 104.051 64.2183 102.863C64.2267 101.676 65.1838 100.719 66.3621 100.719Z" fill="#CCAF6B"/>
<path fill-rule="evenodd" clip-rule="evenodd" d="M66.849 61.0426C68.0365 61.0426 68.9928 61.999 68.9928 63.1865C68.9928 64.374 68.0365 65.3307 66.849 65.3307C65.6621 65.3307 64.7051 64.374 64.7051 63.1865C64.7051 61.999 65.6621 61.0426 66.849 61.0426Z" fill="#CCAF6B"/>
<path fill-rule="evenodd" clip-rule="evenodd" d="M97.2752 53.184C96.0194 53.295 95.5838 51.5268 94.2856 51.6977C93.0467 51.988 93.1834 53.8074 91.9536 54.1492C90.7401 54.4822 89.9972 52.8165 88.7505 53.2179C87.5799 53.7218 88.0415 55.4985 86.897 56.0453C85.7609 56.5919 84.7362 55.0886 83.5741 55.712C82.5148 56.4125 83.2837 58.0782 82.2498 58.8298C81.2251 59.573 79.9523 58.2745 78.9276 59.0945C78.005 59.9744 79.0643 61.4776 78.1847 62.4002C77.3136 63.3142 75.8188 62.2634 74.9562 63.2459C74.2127 64.2794 75.5194 65.5606 74.8104 66.6283C74.1183 67.6788 72.4614 66.9187 71.7863 68.0378C71.2394 69.1912 72.7518 70.2159 72.2479 71.3949C71.7524 72.5564 69.9842 72.0951 69.5233 73.3253C69.1906 74.5554 70.8644 75.2983 70.5825 76.5372C70.3006 77.7673 68.4816 77.6303 68.2505 78.9288C68.1398 80.2016 69.925 80.6287 69.8657 81.9015C69.8052 83.157 67.9946 83.3536 67.9946 84.6602C68.1144 85.933 69.9425 86.0356 70.1131 87.2996C70.2843 88.5466 68.533 89.0593 68.7635 90.349C69.1047 91.5792 70.9243 91.3572 71.3175 92.5701C71.7108 93.7742 70.0786 94.5857 70.5317 95.8158C71.0871 96.9607 72.8384 96.4226 73.4445 97.5414C74.0428 98.6518 72.5819 99.7452 73.257 100.873C74.0083 101.898 75.6313 101.052 76.4256 102.052C77.2114 103.042 75.9731 104.375 76.8351 105.366C77.7576 106.246 79.2101 105.118 80.1665 105.955C81.1151 106.784 80.1326 108.321 81.158 109.141C82.2257 109.842 83.4471 108.475 84.5402 109.133C85.6255 109.782 84.9334 111.473 86.0864 112.088C87.257 112.584 88.2225 111.029 89.4185 111.473C90.5968 111.917 90.2212 113.703 91.4679 114.104C92.7069 114.386 93.3813 112.678 94.6287 112.9C95.867 113.122 95.8156 114.95 97.1144 115.121C98.3872 115.18 98.7375 113.378 100.019 113.378C101.283 113.378 101.548 115.18 102.863 115.121C104.127 114.95 104.153 113.114 105.409 112.883C106.647 112.661 107.236 114.378 108.518 114.096C109.731 113.694 109.424 111.892 110.619 111.439C111.806 110.995 112.686 112.584 113.899 112.071C115.017 111.465 114.403 109.739 115.496 109.082C116.581 108.433 117.734 109.842 118.836 109.124C119.827 108.33 118.913 106.741 119.869 105.904C120.818 105.076 122.209 106.254 123.158 105.349C123.995 104.384 122.808 102.991 123.602 101.992C124.388 101.001 125.968 101.915 126.737 100.856C127.386 99.7625 125.968 98.6007 126.575 97.4734C127.173 96.3627 128.89 96.9776 129.462 95.7989C129.906 94.603 128.309 93.7149 128.702 92.502C129.095 91.2976 130.889 91.5968 131.239 90.3324C131.461 89.0766 129.727 88.4874 129.898 87.2231C130.069 85.976 131.888 85.9418 132.008 84.6349C132.008 83.3621 130.189 83.0886 130.137 81.8162C130.077 80.5603 131.872 80.2016 131.752 78.8946C131.521 77.6391 129.693 77.6987 129.403 76.4604C129.121 75.2302 130.821 74.5642 130.471 73.2999C130.018 72.1039 128.224 72.4884 127.728 71.3181C127.234 70.1567 128.779 69.2 128.215 68.0125C127.558 66.9194 125.866 67.6196 125.167 66.5518C124.474 65.5014 125.824 64.28 125.055 63.2123C124.209 62.2556 122.672 63.2462 121.792 62.3237C120.921 61.4099 122.031 59.9662 121.083 59.061C120.084 58.2667 118.743 59.5222 117.709 58.7706C116.684 58.0274 117.529 56.4128 116.436 55.6869C115.308 55.089 114.215 56.5499 113.062 56.003C111.926 55.4565 112.464 53.7136 111.26 53.1925C110.047 52.7999 109.227 54.4483 107.997 54.1065C106.775 53.7735 106.997 51.9623 105.715 51.672C104.452 51.5014 103.939 53.2696 102.667 53.1498C101.411 53.0388 101.3 51.2192 99.9927 51.1596C98.7355 51.2452 98.5389 53.073 97.2752 53.184ZM97.3429 53.9187C98.9315 53.7735 99.2993 51.9539 100.026 51.9197C100.743 51.9539 101.033 53.7647 102.614 53.9099C104.185 54.0466 104.894 52.3298 105.612 52.4236C106.312 52.586 106.27 54.4226 107.807 54.8409C109.345 55.268 110.327 53.6964 111.019 53.9184C111.677 54.2 111.309 56.0024 112.745 56.6944C114.18 57.3865 115.427 56.0112 116.067 56.3614C116.665 56.7628 115.982 58.4627 117.271 59.4021C118.561 60.3416 120.047 59.2227 120.603 59.6671C121.107 60.1541 120.141 61.7169 121.243 62.8702C122.346 64.0235 123.994 63.1778 124.472 63.7244C124.9 64.3139 123.652 65.655 124.532 66.9959C125.412 68.3285 127.189 67.7901 127.564 68.4138C127.872 69.0544 126.42 70.1905 127.043 71.6423C127.667 73.103 129.512 72.8982 129.768 73.573C129.956 74.2735 128.325 75.102 128.675 76.6567C129.034 78.2113 130.887 78.3308 131.015 79.0483C131.075 79.7657 129.324 80.2953 129.392 81.8842C129.469 83.4731 131.263 83.9259 131.263 84.6518C131.194 85.3692 129.375 85.5743 129.153 87.1544C128.948 88.6918 130.631 89.5033 130.502 90.2123C130.306 90.9044 128.478 90.7846 127.983 92.2966C127.487 93.8171 129.016 94.8676 128.769 95.5512C128.453 96.2003 126.676 95.7475 125.916 97.157C125.155 98.5577 126.471 99.8731 126.103 100.497C125.676 101.078 124.011 100.317 123.012 101.564C122.021 102.811 123.071 104.332 122.601 104.887C122.081 105.383 120.569 104.332 119.373 105.383C118.168 106.433 118.946 108.116 118.374 108.577C117.767 108.97 116.477 107.672 115.102 108.492C113.736 109.303 114.188 111.106 113.547 111.456C112.881 111.737 111.839 110.226 110.344 110.789C108.849 111.353 108.978 113.198 108.294 113.429C107.603 113.582 106.799 111.917 105.262 112.199C103.69 112.481 103.494 114.326 102.768 114.428C102.051 114.454 101.607 112.677 100.009 112.677C98.4113 112.677 97.882 114.454 97.1561 114.428C96.4386 114.326 96.3188 112.497 94.7557 112.216C93.201 111.934 92.3384 113.582 91.6379 113.42C90.9549 113.198 91.1593 111.37 89.6645 110.815C88.1698 110.251 87.0506 111.729 86.3853 111.447C85.7531 111.097 86.2824 109.345 84.9074 108.525C83.5409 107.705 82.1743 108.961 81.5675 108.56C81.0044 108.107 81.841 106.475 80.6366 105.425C79.4321 104.374 77.869 105.365 77.3397 104.861C76.8696 104.314 77.9803 102.862 76.9894 101.615C75.9979 100.368 74.2726 101.06 73.8462 100.47C73.4784 99.8468 74.8371 98.6166 74.0767 97.2074C73.3162 95.7979 71.505 96.1824 71.1808 95.5248C70.9334 94.85 72.4881 93.8764 71.992 92.3559C71.4966 90.8438 69.6431 90.8865 69.4465 90.186C69.3188 89.4942 71.0187 88.7511 70.813 87.2136C70.5994 85.6336 68.7635 85.3432 68.7036 84.617C68.7114 83.8995 70.5057 83.532 70.5741 81.9434C70.6424 80.3461 68.8911 79.7397 68.951 79.0138C69.0877 78.3048 70.9152 78.2706 71.2739 76.7078C71.6242 75.1531 70.0096 74.239 70.2062 73.5385C70.4627 72.8637 72.2733 73.1541 72.897 71.685C73.5207 70.2159 72.0942 69.0369 72.41 68.3793C72.7863 67.7644 74.5109 68.3709 75.3911 67.0382C76.2713 65.7055 75.0754 64.2878 75.5024 63.6983C75.981 63.1518 77.5695 64.0655 78.6802 62.9125C79.7817 61.7592 78.8677 60.1449 79.3892 59.641C79.9523 59.1967 81.3625 60.3754 82.6522 59.436C83.9419 58.4965 83.3267 56.7452 83.9334 56.3438C84.5741 56.002 85.744 57.4203 87.1795 56.7198C88.6151 56.0281 88.3241 54.2 88.9901 53.9096C89.6821 53.6873 90.5786 55.2849 92.1164 54.8575C93.6541 54.4304 93.6886 52.5769 94.4061 52.4145C95.1392 52.3302 95.7629 54.0554 97.3429 53.9187Z" fill="#CCAF6B"/>
<path d="M179.639 172.278C178.619 172.278 177.928 171.552 177.928 170.646C177.928 169.898 178.358 169.32 179.084 169.32C179.73 169.32 180.194 169.784 180.194 170.419C180.194 171.065 179.741 171.53 179.14 171.53C178.483 171.53 178.098 171.054 178.018 170.589C178.018 171.541 178.698 172.187 179.639 172.187C180.897 172.187 181.668 171.167 182.348 169.388L182.982 167.733C183.039 167.586 183.107 167.404 183.107 167.257C183.107 167.03 182.971 166.86 182.54 166.86H182.382L178.755 156.502H177.406V156.411H182.472V156.502H180.738L183.855 165.455L185.94 159.981C186.178 159.358 186.303 158.734 186.303 158.202C186.303 157.216 185.895 156.502 185.011 156.502H184.841V156.411H188.819V156.502H188.74C187.482 156.502 186.802 157.952 185.906 160.31L182.461 169.342C181.747 171.212 180.965 172.278 179.639 172.278Z" fill="#CCAF6B"/>
<path d="M175.601 165.874L175.669 165.931C175.261 166.554 174.558 167.155 173.448 167.155C171.804 167.155 171.056 166.067 171.056 163.823V156.502H169.379V156.411H171.056V154.484C171.714 154.303 172.575 153.589 172.938 152.988V156.411H175.612V156.502H172.938V165.217C172.938 166.43 173.402 166.86 174.071 166.86C174.785 166.86 175.329 166.305 175.601 165.874Z" fill="#CCAF6B"/>
<path d="M166.199 152.83C166.199 153.464 165.701 153.929 165.1 153.929C164.488 153.929 164.001 153.464 164.001 152.83C164.001 152.195 164.488 151.73 165.1 151.73C165.701 151.73 166.199 152.195 166.199 152.83ZM166.052 156.128V166.77H167.797V166.86H162.414V166.77H164.159V156.502H162.414V156.411C163.91 156.411 164.941 156.343 166.052 156.128Z" fill="#CCAF6B"/>
<path d="M158.985 159.879V166.77H160.73V166.86H155.415V166.77H157.092V158.893C157.092 157.148 156.435 156.422 155.415 156.422C153.33 156.422 152.457 159.494 152.457 160.922V166.77H154.123V166.86H148.819V166.77H150.564V156.502H148.819V156.411C150.315 156.411 151.358 156.343 152.457 156.128V159.992C152.752 158.451 153.602 156.128 156.038 156.128C157.942 156.128 158.985 157.499 158.985 159.879Z" fill="#CCAF6B"/>
<path d="M147.007 157.544C147.007 158.292 146.474 158.757 145.885 158.757C145.296 158.757 144.763 158.292 144.763 157.658C144.763 157.012 145.284 156.558 145.851 156.558C146.282 156.558 146.678 156.796 146.871 157.17C146.712 156.672 146.27 156.218 145.466 156.218C143.222 156.218 142.326 159.754 142.326 162.542V166.77H144.185V166.86H138.654V166.77H140.4V156.502H138.654V156.411C140.173 156.411 141.216 156.343 142.326 156.128V160.956C142.632 158.394 143.641 156.128 145.466 156.128C146.429 156.128 147.007 156.751 147.007 157.544Z" fill="#CCAF6B"/>
<path d="M136.225 164.82L136.293 164.866C135.591 166.158 134.095 167.155 132.417 167.155C129.833 167.155 127.261 164.945 127.261 161.658C127.261 158.462 129.697 156.128 132.383 156.128C135.239 156.128 136.543 158.655 136.407 161.012H129.335C129.267 164.537 130.275 166.928 132.837 166.928C134.276 166.928 135.568 165.988 136.225 164.82ZM129.335 160.922H134.31C134.321 160.763 134.321 160.593 134.321 160.434C134.321 158.428 133.732 156.218 132.055 156.218C130.309 156.218 129.471 158.462 129.335 160.922Z" fill="#CCAF6B"/>
<path d="M125.221 165.874L125.289 165.931C124.881 166.554 124.178 167.155 123.068 167.155C121.424 167.155 120.676 166.067 120.676 163.823V156.502H118.999V156.411H120.676V154.484C121.334 154.303 122.195 153.589 122.558 152.988V156.411H125.232V156.502H122.558V165.217C122.558 166.43 123.022 166.86 123.691 166.86C124.405 166.86 124.949 166.305 125.221 165.874Z" fill="#CCAF6B"/>
<path d="M116.396 162.418L116.452 161.296H116.543L116.271 166.86H104.473V166.77H106.49V151.084H104.473V150.994H116.203L116.384 156.286H116.294L116.237 155.278C116.112 153.113 115.308 151.084 111.636 151.084H108.712V158.87H109.675C110.242 158.87 110.752 158.836 111.069 158.757C112.157 158.496 112.758 157.193 112.803 155.81H112.894V162.021H112.803C112.735 160.264 112.168 159.312 111.126 159.063C110.752 158.972 110.253 158.961 109.675 158.961H108.712V166.77H111.613C115.149 166.77 116.271 164.832 116.396 162.418Z" fill="#CCAF6B"/>
<path d="M94.5421 150.824C95.1201 150.824 95.4147 151.186 95.5621 151.515C95.3921 150.869 94.8027 150.518 94.1227 150.518C92.7854 150.518 91.8787 151.64 91.8787 153.657C91.8787 154.53 92.0261 155.504 92.2981 156.411H94.7007V156.502H92.3094V166.77H94.3267V166.86H88.6714V166.77H90.4281V157.42C90.4281 157.102 90.4394 156.796 90.4507 156.502H88.6714V156.411H90.4621C90.7001 152.603 92.2981 150.427 94.1227 150.427C95.0181 150.427 95.6867 150.994 95.6867 151.81C95.6867 152.501 95.2107 153.022 94.5534 153.022C93.8961 153.022 93.4314 152.546 93.4314 151.923C93.4314 151.334 93.8847 150.824 94.5421 150.824Z" fill="#CCAF6B"/>
<path d="M81.4047 156.128C84.0227 156.128 86.516 158.428 86.516 161.647C86.516 164.843 84.0227 167.155 81.4047 167.155C78.7867 167.155 76.3047 164.832 76.3047 161.647C76.3047 158.44 78.7867 156.128 81.4047 156.128ZM84.442 161.534C84.442 158.916 83.7847 156.218 81.4274 156.218C79.0474 156.218 78.3787 158.916 78.3787 161.488C78.3787 164.537 79.138 167.064 81.4047 167.064C83.6827 167.064 84.442 164.526 84.442 161.534Z" fill="#CCAF6B"/>
<path d="M64.927 159.89V166.77H66.6837V166.86H61.3117V166.77H63.0457V158.802C63.0457 157.17 62.411 156.422 61.391 156.422C59.249 156.422 58.2064 159.63 58.2064 161.216V166.77H59.9517V166.86H54.5684V166.77H56.3137V151.084H54.5684V150.994C56.0644 150.994 57.107 150.926 58.2064 150.71V160.344C58.5124 158.632 59.4984 156.128 62.0144 156.128C63.8957 156.128 64.927 157.488 64.927 159.89Z" fill="#CCAF6B"/>
<path d="M47.4197 160.049L51.7264 166.77H53.0071V166.86H48.1564V166.77H49.5617L46.0824 161.432L44.6771 162.882V166.77H46.3657V166.86H41.0391V166.77H42.7844V151.084H41.0391V150.994C42.5351 150.994 43.5777 150.926 44.6771 150.71V162.758L48.0771 159.256C48.8251 158.485 49.1197 157.816 49.1197 157.329C49.1197 156.808 48.7797 156.502 48.2924 156.502H48.2017V156.411H52.5991V156.502H52.5537C51.5564 156.502 49.8904 157.499 48.0997 159.346L47.4197 160.049Z" fill="#CCAF6B"/>
<path d="M37.7002 159.879V166.77H39.4455V166.86H34.1302V166.77H35.8075V158.893C35.8075 157.148 35.1502 156.422 34.1302 156.422C32.0448 156.422 31.1722 159.494 31.1722 160.922V166.77H32.8382V166.86H27.5342V166.77H29.2795V156.502H27.5342V156.411C29.0302 156.411 30.0728 156.343 31.1722 156.128V159.992C31.4668 158.451 32.3168 156.128 34.7535 156.128C36.6575 156.128 37.7002 157.499 37.7002 159.879Z" fill="#CCAF6B"/>
<path d="M18.4186 150.699L24.3913 166.77H25.9553V166.86H20.1866V166.77H21.9546L19.8353 161.012H14.826C14.214 162.78 13.976 164.004 13.976 164.866C13.976 166.52 14.894 166.77 15.8913 166.77H16.0273V166.86H10.814V166.77H10.8366C12.2533 166.77 12.9673 166.067 14.1913 162.542L18.3393 150.699H18.4186ZM14.8486 160.922H19.8013L17.2626 154.042L14.86 160.899C14.86 160.91 14.86 160.91 14.8486 160.922Z" fill="#CCAF6B"/>
</svg>
